<?xml version="1.0" standalone="no"?>
<svg width="567" height="384" viewBox="0 0 567 384" xmlns="http://www.w3.org/2000/svg">
<title>
/home/ubuntuuser/geant_exercises/geant-exercises-karnivool/Exercise 7/1a fit e- lin.svg
</title>
<desc>
Creator: ROOT Version 5.32/04
CreationDate: Wed Jan 31 15:45:51 2024</desc>
<defs>
</defs>
<rect x="0" y="0" width="567" height="384" fill="white"/>
<rect x="6" y="3" width="272" height="185" fill="white"/>
<rect x="33" y="22" width="218" height="147" fill="white"/>
<rect x="33" y="22" width="218" height="147" fill="none" stroke="black"/>
<rect x="33" y="22" width="218" height="147" fill="white"/>
<rect x="33" y="22" width="218" height="147" fill="none" stroke="black"/>
<path d="M33,64h 2v -12h 2v 117h 2v -11h 5v -12h 2v -82h 2v 12h 2v 70h 2v -117h 3v 58h 2v 71h 2v -24h 2v 12h 2v 23h 9v -23h 2v 23h 5v -11h 2v 11h 170" fill="none" stroke="#000099"/>
<rect x="218" y="15" width="54" height="30" fill="white"/>
<path d="M218,45h 54" fill="none" stroke="black"/>
<path d="M272,45v -30" fill="none" stroke="black"/>
<path d="M272,15h -54" fill="none" stroke="black"/>
<path d="M218,15v 30" fill="none" stroke="black"/>
<text x="240" y="22" fill="black" font-size="6" font-family="Helvetica">
hx
</text>
<path d="M218,23h 54" fill="none" stroke="black"/>
<text x="220" y="29" fill="black" font-size="6" font-family="Helvetica">
Entries 
</text>
<text x="257" y="29" fill="black" font-size="6" font-family="Helvetica">
 100
</text>
<text x="220" y="36" fill="black" font-size="6" font-family="Helvetica">
Mean  
</text>
<text x="249" y="36" fill="black" font-size="6" font-family="Helvetica">
  1.764
</text>
<text x="220" y="44" fill="black" font-size="6" font-family="Helvetica">
RMS   
</text>
<text x="249" y="44" fill="black" font-size="6" font-family="Helvetica">
  1.168
</text>
<path d="M33,169h 218" fill="none" stroke="black"/>
<text x="200" y="182" fill="black" font-size="6" font-family="Helvetica">
x of first vertex [cm]
</text>
<path d="M33,165v 4" fill="none" stroke="black"/>
<path d="M42,167v 2" fill="none" stroke="black"/>
<path d="M50,167v 2" fill="none" stroke="black"/>
<path d="M59,167v 2" fill="none" stroke="black"/>
<path d="M68,167v 2" fill="none" stroke="black"/>
<path d="M76,165v 4" fill="none" stroke="black"/>
<path d="M85,167v 2" fill="none" stroke="black"/>
<path d="M94,167v 2" fill="none" stroke="black"/>
<path d="M103,167v 2" fill="none" stroke="black"/>
<path d="M111,167v 2" fill="none" stroke="black"/>
<path d="M120,165v 4" fill="none" stroke="black"/>
<path d="M129,167v 2" fill="none" stroke="black"/>
<path d="M137,167v 2" fill="none" stroke="black"/>
<path d="M146,167v 2" fill="none" stroke="black"/>
<path d="M155,167v 2" fill="none" stroke="black"/>
<path d="M164,165v 4" fill="none" stroke="black"/>
<path d="M172,167v 2" fill="none" stroke="black"/>
<path d="M181,167v 2" fill="none" stroke="black"/>
<path d="M190,167v 2" fill="none" stroke="black"/>
<path d="M198,167v 2" fill="none" stroke="black"/>
<path d="M207,165v 4" fill="none" stroke="black"/>
<path d="M216,167v 2" fill="none" stroke="black"/>
<path d="M224,167v 2" fill="none" stroke="black"/>
<path d="M233,167v 2" fill="none" stroke="black"/>
<path d="M242,167v 2" fill="none" stroke="black"/>
<path d="M251,165v 4" fill="none" stroke="black"/>
<text x="31" y="175" fill="black" font-size="6" font-family="Helvetica">
0
</text>
<text x="74" y="175" fill="black" font-size="6" font-family="Helvetica">
5
</text>
<text x="116" y="175" fill="black" font-size="6" font-family="Helvetica">
10
</text>
<text x="160" y="175" fill="black" font-size="6" font-family="Helvetica">
15
</text>
<text x="204" y="175" fill="black" font-size="6" font-family="Helvetica">
20
</text>
<text x="247" y="175" fill="black" font-size="6" font-family="Helvetica">
25
</text>
<path d="M33,169v -147" fill="none" stroke="black"/>
<g transform="rotate(-90,20,50)">
<text x="20" y="50" fill="black" font-size="6" font-family="Helvetica">
# of entries
</text>
</g>
<path d="M39,169h -6" fill="none" stroke="black"/>
<path d="M36,164h -3" fill="none" stroke="black"/>
<path d="M36,158h -3" fill="none" stroke="black"/>
<path d="M36,152h -3" fill="none" stroke="black"/>
<path d="M39,146h -6" fill="none" stroke="black"/>
<path d="M36,140h -3" fill="none" stroke="black"/>
<path d="M36,134h -3" fill="none" stroke="black"/>
<path d="M36,128h -3" fill="none" stroke="black"/>
<path d="M39,123h -6" fill="none" stroke="black"/>
<path d="M36,117h -3" fill="none" stroke="black"/>
<path d="M36,111h -3" fill="none" stroke="black"/>
<path d="M36,105h -3" fill="none" stroke="black"/>
<path d="M39,99h -6" fill="none" stroke="black"/>
<path d="M36,93h -3" fill="none" stroke="black"/>
<path d="M36,87h -3" fill="none" stroke="black"/>
<path d="M36,82h -3" fill="none" stroke="black"/>
<path d="M39,76h -6" fill="none" stroke="black"/>
<path d="M36,70h -3" fill="none" stroke="black"/>
<path d="M36,64h -3" fill="none" stroke="black"/>
<path d="M36,58h -3" fill="none" stroke="black"/>
<path d="M39,52h -6" fill="none" stroke="black"/>
<path d="M36,46h -3" fill="none" stroke="black"/>
<path d="M36,41h -3" fill="none" stroke="black"/>
<path d="M36,35h -3" fill="none" stroke="black"/>
<path d="M39,29h -6" fill="none" stroke="black"/>
<path d="M39,29h -6" fill="none" stroke="black"/>
<path d="M36,23h -3" fill="none" stroke="black"/>
<text x="28" y="171" fill="black" font-size="6" font-family="Helvetica">
0
</text>
<text x="28" y="149" fill="black" font-size="6" font-family="Helvetica">
2
</text>
<text x="28" y="126" fill="black" font-size="6" font-family="Helvetica">
4
</text>
<text x="28" y="101" fill="black" font-size="6" font-family="Helvetica">
6
</text>
<text x="28" y="78" fill="black" font-size="6" font-family="Helvetica">
8
</text>
<text x="24" y="54" fill="black" font-size="6" font-family="Helvetica">
10
</text>
<text x="24" y="32" fill="black" font-size="6" font-family="Helvetica">
12
</text>
<rect x="218" y="15" width="54" height="30" fill="white"/>
<path d="M218,45h 54" fill="none" stroke="black"/>
<path d="M272,45v -30" fill="none" stroke="black"/>
<path d="M272,15h -54" fill="none" stroke="black"/>
<path d="M218,15v 30" fill="none" stroke="black"/>
<text x="240" y="22" fill="black" font-size="6" font-family="Helvetica">
hx
</text>
<path d="M218,23h 54" fill="none" stroke="black"/>
<text x="220" y="29" fill="black" font-size="6" font-family="Helvetica">
Entries 
</text>
<text x="257" y="29" fill="black" font-size="6" font-family="Helvetica">
 100
</text>
<text x="220" y="36" fill="black" font-size="6" font-family="Helvetica">
Mean  
</text>
<text x="249" y="36" fill="black" font-size="6" font-family="Helvetica">
  1.764
</text>
<text x="220" y="44" fill="black" font-size="6" font-family="Helvetica">
RMS   
</text>
<text x="249" y="44" fill="black" font-size="6" font-family="Helvetica">
  1.168
</text>
<text x="95" y="13" fill="black" font-size="9" font-family="Helvetica">
starting point of shower
</text>
<rect x="289" y="3" width="272" height="185" fill="white"/>
<rect x="316" y="22" width="218" height="147" fill="white"/>
<rect x="316" y="22" width="218" height="147" fill="none" stroke="black"/>
<rect x="316" y="22" width="218" height="147" fill="white"/>
<rect x="316" y="22" width="218" height="147" fill="none" stroke="black"/>
<path d="M316,169h 35v -10h 5v -49h 4v -81h 4v 35h 5v 81h 4v 21h 4v -4h 5v 7h 152" fill="none" stroke="#000099"/>
<rect x="501" y="15" width="55" height="30" fill="white"/>
<path d="M501,45h 55" fill="none" stroke="black"/>
<path d="M556,45v -30" fill="none" stroke="black"/>
<path d="M556,15h -55" fill="none" stroke="black"/>
<path d="M501,15v 30" fill="none" stroke="black"/>
<text x="518" y="21" fill="black" font-size="6" font-family="Helvetica">
hwidth
</text>
<path d="M501,23h 55" fill="none" stroke="black"/>
<text x="503" y="29" fill="black" font-size="6" font-family="Helvetica">
Entries 
</text>
<text x="540" y="29" fill="black" font-size="6" font-family="Helvetica">
 100
</text>
<text x="503" y="36" fill="black" font-size="6" font-family="Helvetica">
Mean  
</text>
<text x="533" y="36" fill="black" font-size="6" font-family="Helvetica">
  5.455
</text>
<text x="503" y="44" fill="black" font-size="6" font-family="Helvetica">
RMS   
</text>
<text x="531" y="44" fill="black" font-size="6" font-family="Helvetica">
 0.5277
</text>
<path d="M316,169h 218" fill="none" stroke="black"/>
<text x="472" y="182" fill="black" font-size="6" font-family="Helvetica">
width of the shower [cm]
</text>
<path d="M316,165v 4" fill="none" stroke="black"/>
<path d="M325,167v 2" fill="none" stroke="black"/>
<path d="M334,167v 2" fill="none" stroke="black"/>
<path d="M342,167v 2" fill="none" stroke="black"/>
<path d="M351,167v 2" fill="none" stroke="black"/>
<path d="M360,165v 4" fill="none" stroke="black"/>
<path d="M369,167v 2" fill="none" stroke="black"/>
<path d="M377,167v 2" fill="none" stroke="black"/>
<path d="M386,167v 2" fill="none" stroke="black"/>
<path d="M395,167v 2" fill="none" stroke="black"/>
<path d="M403,165v 4" fill="none" stroke="black"/>
<path d="M412,167v 2" fill="none" stroke="black"/>
<path d="M421,167v 2" fill="none" stroke="black"/>
<path d="M430,167v 2" fill="none" stroke="black"/>
<path d="M438,167v 2" fill="none" stroke="black"/>
<path d="M447,165v 4" fill="none" stroke="black"/>
<path d="M456,167v 2" fill="none" stroke="black"/>
<path d="M464,167v 2" fill="none" stroke="black"/>
<path d="M473,167v 2" fill="none" stroke="black"/>
<path d="M482,167v 2" fill="none" stroke="black"/>
<path d="M491,165v 4" fill="none" stroke="black"/>
<path d="M499,167v 2" fill="none" stroke="black"/>
<path d="M508,167v 2" fill="none" stroke="black"/>
<path d="M517,167v 2" fill="none" stroke="black"/>
<path d="M525,167v 2" fill="none" stroke="black"/>
<path d="M534,165v 4" fill="none" stroke="black"/>
<text x="314" y="175" fill="black" font-size="6" font-family="Helvetica">
0
</text>
<text x="358" y="175" fill="black" font-size="6" font-family="Helvetica">
5
</text>
<text x="400" y="175" fill="black" font-size="6" font-family="Helvetica">
10
</text>
<text x="443" y="175" fill="black" font-size="6" font-family="Helvetica">
15
</text>
<text x="487" y="175" fill="black" font-size="6" font-family="Helvetica">
20
</text>
<text x="530" y="175" fill="black" font-size="6" font-family="Helvetica">
25
</text>
<path d="M316,169v -147" fill="none" stroke="black"/>
<g transform="rotate(-90,303,50)">
<text x="303" y="50" fill="black" font-size="6" font-family="Helvetica">
# of entries
</text>
</g>
<path d="M323,169h -7" fill="none" stroke="black"/>
<path d="M320,166h -4" fill="none" stroke="black"/>
<path d="M320,162h -4" fill="none" stroke="black"/>
<path d="M320,159h -4" fill="none" stroke="black"/>
<path d="M320,155h -4" fill="none" stroke="black"/>
<path d="M323,152h -7" fill="none" stroke="black"/>
<path d="M320,148h -4" fill="none" stroke="black"/>
<path d="M320,145h -4" fill="none" stroke="black"/>
<path d="M320,141h -4" fill="none" stroke="black"/>
<path d="M320,138h -4" fill="none" stroke="black"/>
<path d="M323,134h -7" fill="none" stroke="black"/>
<path d="M320,131h -4" fill="none" stroke="black"/>
<path d="M320,127h -4" fill="none" stroke="black"/>
<path d="M320,124h -4" fill="none" stroke="black"/>
<path d="M320,120h -4" fill="none" stroke="black"/>
<path d="M323,117h -7" fill="none" stroke="black"/>
<path d="M320,113h -4" fill="none" stroke="black"/>
<path d="M320,110h -4" fill="none" stroke="black"/>
<path d="M320,106h -4" fill="none" stroke="black"/>
<path d="M320,103h -4" fill="none" stroke="black"/>
<path d="M323,99h -7" fill="none" stroke="black"/>
<path d="M320,96h -4" fill="none" stroke="black"/>
<path d="M320,92h -4" fill="none" stroke="black"/>
<path d="M320,89h -4" fill="none" stroke="black"/>
<path d="M320,85h -4" fill="none" stroke="black"/>
<path d="M323,82h -7" fill="none" stroke="black"/>
<path d="M320,78h -4" fill="none" stroke="black"/>
<path d="M320,75h -4" fill="none" stroke="black"/>
<path d="M320,71h -4" fill="none" stroke="black"/>
<path d="M320,68h -4" fill="none" stroke="black"/>
<path d="M323,64h -7" fill="none" stroke="black"/>
<path d="M320,60h -4" fill="none" stroke="black"/>
<path d="M320,57h -4" fill="none" stroke="black"/>
<path d="M320,53h -4" fill="none" stroke="black"/>
<path d="M320,50h -4" fill="none" stroke="black"/>
<path d="M323,46h -7" fill="none" stroke="black"/>
<path d="M320,43h -4" fill="none" stroke="black"/>
<path d="M320,39h -4" fill="none" stroke="black"/>
<path d="M320,36h -4" fill="none" stroke="black"/>
<path d="M320,32h -4" fill="none" stroke="black"/>
<path d="M323,29h -7" fill="none" stroke="black"/>
<path d="M323,29h -7" fill="none" stroke="black"/>
<path d="M320,25h -4" fill="none" stroke="black"/>
<path d="M320,22h -4" fill="none" stroke="black"/>
<text x="311" y="171" fill="black" font-size="6" font-family="Helvetica">
0
</text>
<text x="311" y="154" fill="black" font-size="6" font-family="Helvetica">
5
</text>
<text x="308" y="136" fill="black" font-size="6" font-family="Helvetica">
10
</text>
<text x="308" y="118" fill="black" font-size="6" font-family="Helvetica">
15
</text>
<text x="308" y="101" fill="black" font-size="6" font-family="Helvetica">
20
</text>
<text x="308" y="83" fill="black" font-size="6" font-family="Helvetica">
25
</text>
<text x="308" y="66" fill="black" font-size="6" font-family="Helvetica">
30
</text>
<text x="308" y="48" fill="black" font-size="6" font-family="Helvetica">
35
</text>
<text x="308" y="31" fill="black" font-size="6" font-family="Helvetica">
40
</text>
<rect x="501" y="15" width="55" height="30" fill="white"/>
<path d="M501,45h 55" fill="none" stroke="black"/>
<path d="M556,45v -30" fill="none" stroke="black"/>
<path d="M556,15h -55" fill="none" stroke="black"/>
<path d="M501,15v 30" fill="none" stroke="black"/>
<text x="518" y="21" fill="black" font-size="6" font-family="Helvetica">
hwidth
</text>
<path d="M501,23h 55" fill="none" stroke="black"/>
<text x="503" y="29" fill="black" font-size="6" font-family="Helvetica">
Entries 
</text>
<text x="540" y="29" fill="black" font-size="6" font-family="Helvetica">
 100
</text>
<text x="503" y="36" fill="black" font-size="6" font-family="Helvetica">
Mean  
</text>
<text x="533" y="36" fill="black" font-size="6" font-family="Helvetica">
  5.455
</text>
<text x="503" y="44" fill="black" font-size="6" font-family="Helvetica">
RMS   
</text>
<text x="531" y="44" fill="black" font-size="6" font-family="Helvetica">
 0.5277
</text>
<text x="389" y="13" fill="black" font-size="8" font-family="Helvetica">
width of the shower
</text>
<rect x="6" y="196" width="272" height="184" fill="white"/>
<rect x="33" y="214" width="218" height="148" fill="white"/>
<rect x="33" y="214" width="218" height="148" fill="none" stroke="black"/>
<rect x="33" y="214" width="218" height="148" fill="white"/>
<rect x="33" y="214" width="218" height="148" fill="none" stroke="black"/>
<path d="M33,362h 48v -4h 4v -24h 4v 16h 5v 4h 4v -82h 5v -51h 4v 94h 4v 23h 5v 20h 4v -4h 4v -8h 5v 4h 4v 12h 118" fill="none" stroke="#000099"/>
<rect x="218" y="208" width="54" height="29" fill="white"/>
<path d="M218,237h 54" fill="none" stroke="black"/>
<path d="M272,237v -29" fill="none" stroke="black"/>
<path d="M272,208h -54" fill="none" stroke="black"/>
<path d="M218,208v 29" fill="none" stroke="black"/>
<text x="234" y="213" fill="black" font-size="6" font-family="Helvetica">
hlength
</text>
<path d="M218,215h 54" fill="none" stroke="black"/>
<text x="220" y="221" fill="black" font-size="6" font-family="Helvetica">
Entries 
</text>
<text x="257" y="221" fill="black" font-size="6" font-family="Helvetica">
 100
</text>
<text x="220" y="228" fill="black" font-size="6" font-family="Helvetica">
Mean  
</text>
<text x="249" y="228" fill="black" font-size="6" font-family="Helvetica">
  8.256
</text>
<text x="220" y="236" fill="black" font-size="6" font-family="Helvetica">
RMS   
</text>
<text x="249" y="236" fill="black" font-size="6" font-family="Helvetica">
  1.102
</text>
<path d="M33,362h 218" fill="none" stroke="black"/>
<text x="187" y="374" fill="black" font-size="6" font-family="Helvetica">
length of the shower [cm]
</text>
<path d="M33,357v 5" fill="none" stroke="black"/>
<path d="M42,359v 3" fill="none" stroke="black"/>
<path d="M50,359v 3" fill="none" stroke="black"/>
<path d="M59,359v 3" fill="none" stroke="black"/>
<path d="M68,359v 3" fill="none" stroke="black"/>
<path d="M76,357v 5" fill="none" stroke="black"/>
<path d="M85,359v 3" fill="none" stroke="black"/>
<path d="M94,359v 3" fill="none" stroke="black"/>
<path d="M103,359v 3" fill="none" stroke="black"/>
<path d="M111,359v 3" fill="none" stroke="black"/>
<path d="M120,357v 5" fill="none" stroke="black"/>
<path d="M129,359v 3" fill="none" stroke="black"/>
<path d="M137,359v 3" fill="none" stroke="black"/>
<path d="M146,359v 3" fill="none" stroke="black"/>
<path d="M155,359v 3" fill="none" stroke="black"/>
<path d="M164,357v 5" fill="none" stroke="black"/>
<path d="M172,359v 3" fill="none" stroke="black"/>
<path d="M181,359v 3" fill="none" stroke="black"/>
<path d="M190,359v 3" fill="none" stroke="black"/>
<path d="M198,359v 3" fill="none" stroke="black"/>
<path d="M207,357v 5" fill="none" stroke="black"/>
<path d="M216,359v 3" fill="none" stroke="black"/>
<path d="M224,359v 3" fill="none" stroke="black"/>
<path d="M233,359v 3" fill="none" stroke="black"/>
<path d="M242,359v 3" fill="none" stroke="black"/>
<path d="M251,357v 5" fill="none" stroke="black"/>
<text x="31" y="368" fill="black" font-size="6" font-family="Helvetica">
0
</text>
<text x="74" y="368" fill="black" font-size="6" font-family="Helvetica">
5
</text>
<text x="116" y="368" fill="black" font-size="6" font-family="Helvetica">
10
</text>
<text x="160" y="368" fill="black" font-size="6" font-family="Helvetica">
15
</text>
<text x="204" y="368" fill="black" font-size="6" font-family="Helvetica">
20
</text>
<text x="247" y="368" fill="black" font-size="6" font-family="Helvetica">
25
</text>
<path d="M33,362v -148" fill="none" stroke="black"/>
<g transform="rotate(-90,20,242)">
<text x="20" y="242" fill="black" font-size="6" font-family="Helvetica">
# of entries
</text>
</g>
<path d="M39,362h -6" fill="none" stroke="black"/>
<path d="M36,358h -3" fill="none" stroke="black"/>
<path d="M36,354h -3" fill="none" stroke="black"/>
<path d="M36,350h -3" fill="none" stroke="black"/>
<path d="M36,346h -3" fill="none" stroke="black"/>
<path d="M39,342h -6" fill="none" stroke="black"/>
<path d="M36,338h -3" fill="none" stroke="black"/>
<path d="M36,334h -3" fill="none" stroke="black"/>
<path d="M36,330h -3" fill="none" stroke="black"/>
<path d="M36,327h -3" fill="none" stroke="black"/>
<path d="M39,323h -6" fill="none" stroke="black"/>
<path d="M36,319h -3" fill="none" stroke="black"/>
<path d="M36,315h -3" fill="none" stroke="black"/>
<path d="M36,311h -3" fill="none" stroke="black"/>
<path d="M36,307h -3" fill="none" stroke="black"/>
<path d="M39,303h -6" fill="none" stroke="black"/>
<path d="M36,299h -3" fill="none" stroke="black"/>
<path d="M36,295h -3" fill="none" stroke="black"/>
<path d="M36,291h -3" fill="none" stroke="black"/>
<path d="M36,287h -3" fill="none" stroke="black"/>
<path d="M39,284h -6" fill="none" stroke="black"/>
<path d="M36,280h -3" fill="none" stroke="black"/>
<path d="M36,276h -3" fill="none" stroke="black"/>
<path d="M36,272h -3" fill="none" stroke="black"/>
<path d="M36,268h -3" fill="none" stroke="black"/>
<path d="M39,264h -6" fill="none" stroke="black"/>
<path d="M36,260h -3" fill="none" stroke="black"/>
<path d="M36,256h -3" fill="none" stroke="black"/>
<path d="M36,252h -3" fill="none" stroke="black"/>
<path d="M36,248h -3" fill="none" stroke="black"/>
<path d="M39,245h -6" fill="none" stroke="black"/>
<path d="M36,241h -3" fill="none" stroke="black"/>
<path d="M36,237h -3" fill="none" stroke="black"/>
<path d="M36,233h -3" fill="none" stroke="black"/>
<path d="M36,229h -3" fill="none" stroke="black"/>
<path d="M39,225h -6" fill="none" stroke="black"/>
<path d="M39,225h -6" fill="none" stroke="black"/>
<path d="M36,221h -3" fill="none" stroke="black"/>
<path d="M36,217h -3" fill="none" stroke="black"/>
<text x="28" y="364" fill="black" font-size="6" font-family="Helvetica">
0
</text>
<text x="28" y="344" fill="black" font-size="6" font-family="Helvetica">
5
</text>
<text x="24" y="325" fill="black" font-size="6" font-family="Helvetica">
10
</text>
<text x="24" y="305" fill="black" font-size="6" font-family="Helvetica">
15
</text>
<text x="24" y="285" fill="black" font-size="6" font-family="Helvetica">
20
</text>
<text x="24" y="266" fill="black" font-size="6" font-family="Helvetica">
25
</text>
<text x="24" y="246" fill="black" font-size="6" font-family="Helvetica">
30
</text>
<text x="24" y="227" fill="black" font-size="6" font-family="Helvetica">
35
</text>
<rect x="218" y="208" width="54" height="29" fill="white"/>
<path d="M218,237h 54" fill="none" stroke="black"/>
<path d="M272,237v -29" fill="none" stroke="black"/>
<path d="M272,208h -54" fill="none" stroke="black"/>
<path d="M218,208v 29" fill="none" stroke="black"/>
<text x="234" y="213" fill="black" font-size="6" font-family="Helvetica">
hlength
</text>
<path d="M218,215h 54" fill="none" stroke="black"/>
<text x="220" y="221" fill="black" font-size="6" font-family="Helvetica">
Entries 
</text>
<text x="257" y="221" fill="black" font-size="6" font-family="Helvetica">
 100
</text>
<text x="220" y="228" fill="black" font-size="6" font-family="Helvetica">
Mean  
</text>
<text x="249" y="228" fill="black" font-size="6" font-family="Helvetica">
  8.256
</text>
<text x="220" y="236" fill="black" font-size="6" font-family="Helvetica">
RMS   
</text>
<text x="249" y="236" fill="black" font-size="6" font-family="Helvetica">
  1.102
</text>
<text x="101" y="206" fill="black" font-size="9" font-family="Helvetica">
length of the shower
</text>
<rect x="289" y="196" width="272" height="184" fill="white"/>
<rect x="316" y="214" width="218" height="148" fill="white"/>
<rect x="316" y="214" width="218" height="148" fill="none" stroke="black"/>
<rect x="316" y="214" width="218" height="148" fill="white"/>
<rect x="316" y="214" width="218" height="148" fill="none" stroke="black"/>
<path d="M322,361v -4" fill="none" stroke="#000099"/>
<path d="M322,357v -5" fill="none" stroke="#000099"/>
<path d="M316,357h 6" fill="none" stroke="#000099"/>
<path d="M322,357h 5" fill="none" stroke="#000099"/>
<g stroke="black" stroke-width="1" fill="none">
<line x1="321" y1="357" x2="322" y2="357"/>
</g>
<path d="M333,356v -1" fill="none" stroke="#000099"/>
<path d="M333,355v -2" fill="none" stroke="#000099"/>
<path d="M327,355h 6" fill="none" stroke="#000099"/>
<path d="M333,355h 5" fill="none" stroke="#000099"/>
<g stroke="black" stroke-width="1" fill="none">
<line x1="332" y1="355" x2="333" y2="355"/>
</g>
<path d="M344,352v -5" fill="none" stroke="#000099"/>
<path d="M344,347v -4" fill="none" stroke="#000099"/>
<path d="M338,347h 6" fill="none" stroke="#000099"/>
<path d="M344,347h 5" fill="none" stroke="#000099"/>
<g stroke="black" stroke-width="1" fill="none">
<line x1="343" y1="347" x2="344" y2="347"/>
</g>
<path d="M354,345v -4" fill="none" stroke="#000099"/>
<path d="M354,341v -4" fill="none" stroke="#000099"/>
<path d="M349,341h 5" fill="none" stroke="#000099"/>
<path d="M354,341h 6" fill="none" stroke="#000099"/>
<g stroke="black" stroke-width="1" fill="none">
<line x1="353" y1="341" x2="354" y2="341"/>
</g>
<path d="M365,338v -4" fill="none" stroke="#000099"/>
<path d="M365,334v -5" fill="none" stroke="#000099"/>
<path d="M360,334h 5" fill="none" stroke="#000099"/>
<path d="M365,334h 6" fill="none" stroke="#000099"/>
<g stroke="black" stroke-width="1" fill="none">
<line x1="364" y1="334" x2="365" y2="334"/>
</g>
<path d="M376,335v -7" fill="none" stroke="#000099"/>
<path d="M376,328v -8" fill="none" stroke="#000099"/>
<path d="M371,328h 5" fill="none" stroke="#000099"/>
<path d="M376,328h 6" fill="none" stroke="#000099"/>
<g stroke="black" stroke-width="1" fill="none">
<line x1="375" y1="328" x2="376" y2="328"/>
</g>
<path d="M387,326v -5" fill="none" stroke="#000099"/>
<path d="M387,321v -4" fill="none" stroke="#000099"/>
<path d="M382,321h 5" fill="none" stroke="#000099"/>
<path d="M387,321h 6" fill="none" stroke="#000099"/>
<g stroke="black" stroke-width="1" fill="none">
<line x1="386" y1="321" x2="387" y2="321"/>
</g>
<path d="M398,315v -6" fill="none" stroke="#000099"/>
<path d="M398,309v -6" fill="none" stroke="#000099"/>
<path d="M393,309h 5" fill="none" stroke="#000099"/>
<path d="M398,309h 5" fill="none" stroke="#000099"/>
<g stroke="black" stroke-width="1" fill="none">
<line x1="397" y1="309" x2="398" y2="309"/>
</g>
<path d="M409,310v -8" fill="none" stroke="#000099"/>
<path d="M409,302v -8" fill="none" stroke="#000099"/>
<path d="M403,302h 6" fill="none" stroke="#000099"/>
<path d="M409,302h 5" fill="none" stroke="#000099"/>
<g stroke="black" stroke-width="1" fill="none">
<line x1="408" y1="302" x2="409" y2="302"/>
</g>
<path d="M420,314v -5" fill="none" stroke="#000099"/>
<path d="M420,309v -5" fill="none" stroke="#000099"/>
<path d="M414,309h 6" fill="none" stroke="#000099"/>
<path d="M420,309h 5" fill="none" stroke="#000099"/>
<g stroke="black" stroke-width="1" fill="none">
<line x1="419" y1="309" x2="420" y2="309"/>
</g>
<path d="M431,302v -9" fill="none" stroke="#000099"/>
<path d="M431,293v -10" fill="none" stroke="#000099"/>
<path d="M425,293h 6" fill="none" stroke="#000099"/>
<path d="M431,293h 5" fill="none" stroke="#000099"/>
<g stroke="black" stroke-width="1" fill="none">
<line x1="430" y1="293" x2="431" y2="293"/>
</g>
<path d="M442,305v -11" fill="none" stroke="#000099"/>
<path d="M442,294v -11" fill="none" stroke="#000099"/>
<path d="M436,294h 6" fill="none" stroke="#000099"/>
<path d="M442,294h 5" fill="none" stroke="#000099"/>
<g stroke="black" stroke-width="1" fill="none">
<line x1="441" y1="294" x2="442" y2="294"/>
</g>
<path d="M452,293v -6" fill="none" stroke="#000099"/>
<path d="M452,287v -7" fill="none" stroke="#000099"/>
<path d="M447,287h 5" fill="none" stroke="#000099"/>
<path d="M452,287h 6" fill="none" stroke="#000099"/>
<g stroke="black" stroke-width="1" fill="none">
<line x1="451" y1="287" x2="452" y2="287"/>
</g>
<path d="M463,283v -4" fill="none" stroke="#000099"/>
<path d="M463,279v -3" fill="none" stroke="#000099"/>
<path d="M458,279h 5" fill="none" stroke="#000099"/>
<path d="M463,279h 6" fill="none" stroke="#000099"/>
<g stroke="black" stroke-width="1" fill="none">
<line x1="462" y1="279" x2="463" y2="279"/>
</g>
<path d="M474,282v -12" fill="none" stroke="#000099"/>
<path d="M474,270v -11" fill="none" stroke="#000099"/>
<path d="M469,270h 5" fill="none" stroke="#000099"/>
<path d="M474,270h 6" fill="none" stroke="#000099"/>
<g stroke="black" stroke-width="1" fill="none">
<line x1="473" y1="270" x2="474" y2="270"/>
</g>
<path d="M485,273v -8" fill="none" stroke="#000099"/>
<path d="M485,265v -8" fill="none" stroke="#000099"/>
<path d="M480,265h 5" fill="none" stroke="#000099"/>
<path d="M485,265h 6" fill="none" stroke="#000099"/>
<g stroke="black" stroke-width="1" fill="none">
<line x1="484" y1="265" x2="485" y2="265"/>
</g>
<path d="M496,273v -8" fill="none" stroke="#000099"/>
<path d="M496,265v -8" fill="none" stroke="#000099"/>
<path d="M491,265h 5" fill="none" stroke="#000099"/>
<path d="M496,265h 5" fill="none" stroke="#000099"/>
<g stroke="black" stroke-width="1" fill="none">
<line x1="495" y1="265" x2="496" y2="265"/>
</g>
<path d="M507,261v -10" fill="none" stroke="#000099"/>
<path d="M507,251v -10" fill="none" stroke="#000099"/>
<path d="M501,251h 6" fill="none" stroke="#000099"/>
<path d="M507,251h 5" fill="none" stroke="#000099"/>
<g stroke="black" stroke-width="1" fill="none">
<line x1="506" y1="251" x2="507" y2="251"/>
</g>
<path d="M518,258v -6" fill="none" stroke="#000099"/>
<path d="M518,252v -7" fill="none" stroke="#000099"/>
<path d="M512,252h 6" fill="none" stroke="#000099"/>
<path d="M518,252h 5" fill="none" stroke="#000099"/>
<g stroke="black" stroke-width="1" fill="none">
<line x1="517" y1="252" x2="518" y2="252"/>
</g>
<path d="M529,257v -18" fill="none" stroke="#000099"/>
<path d="M529,239v -18" fill="none" stroke="#000099"/>
<path d="M523,239h 6" fill="none" stroke="#000099"/>
<path d="M529,239h 5" fill="none" stroke="#000099"/>
<g stroke="black" stroke-width="1" fill="none">
<line x1="528" y1="239" x2="529" y2="239"/>
</g>
<rect x="327" y="207" width="82" height="84" fill="white"/>
<path d="M327,291h 82" fill="none" stroke="black"/>
<path d="M409,291v -84" fill="none" stroke="black"/>
<path d="M409,207h -82" fill="none" stroke="black"/>
<path d="M327,207v 84" fill="none" stroke="black"/>
<text x="354" y="215" fill="black" font-size="7" font-family="Helvetica">
hcounts
</text>
<path d="M327,216h 82" fill="none" stroke="black"/>
<text x="331" y="222" fill="black" font-size="7" font-family="Helvetica">
Entries 
</text>
<text x="391" y="222" fill="black" font-size="7" font-family="Helvetica">
 100
</text>
<text x="331" y="230" fill="black" font-size="7" font-family="Helvetica">
Mean  
</text>
<text x="385" y="230" fill="black" font-size="7" font-family="Helvetica">
  5.001
</text>
<text x="331" y="239" fill="black" font-size="7" font-family="Helvetica">
Mean y 
</text>
<text x="384" y="239" fill="black" font-size="7" font-family="Helvetica">
  73.73
</text>
<text x="331" y="247" fill="black" font-size="7" font-family="Helvetica">
RMS   
</text>
<text x="384" y="247" fill="black" font-size="7" font-family="Helvetica">
  2.858
</text>
<text x="331" y="255" fill="black" font-size="7" font-family="Helvetica">
RMS y 
</text>
<text x="384" y="255" fill="black" font-size="7" font-family="Helvetica">
  43.32
</text>
<text x="338" y="264" fill="black" font-size="7" font-family="Helvetica">
 / ndf 
</text>
<text x="335" y="262" fill="black" font-size="4" font-family="Helvetica">
2
</text>
<text x="331" y="264" fill="black" font-size="7" font-family="Times">
&#0967;
</text>
<text x="375" y="263" fill="black" font-size="7" font-family="Helvetica">
  5.78 / 18
</text>
<text x="331" y="272" fill="black" font-size="7" font-family="Helvetica">
Prob  
</text>
<text x="386" y="272" fill="black" font-size="7" font-family="Helvetica">
 0.997
</text>
<text x="331" y="281" fill="black" font-size="7" font-family="Helvetica">
p0       
</text>
<text x="386" y="281" fill="black" font-size="7" font-family="Helvetica">
 1.797
</text>
<text x="382" y="281" fill="black" font-size="7" font-family="Times">
&#0177;
</text>
<text x="360" y="281" fill="black" font-size="7" font-family="Helvetica">
 -1.413 
</text>
<text x="331" y="289" fill="black" font-size="7" font-family="Helvetica">
p1       
</text>
<text x="389" y="289" fill="black" font-size="7" font-family="Helvetica">
 0.47
</text>
<text x="385" y="289" fill="black" font-size="7" font-family="Times">
&#0177;
</text>
<text x="366" y="289" fill="black" font-size="7" font-family="Helvetica">
 14.77 
</text>
<path d="M317,362l 3, -1l 2, -1l 2, -1l 2, -2l 2, -1l 2, -1l 3, -1l 2, -2l 2, -1l 2, -1l 2, -1l 3, -2l 2, -1l 2, -1l 2, -1l 2, -2l 2, -1l 3, -1l 2, -1l 2, -2l 2, -1l 2, -1l 3, -1l 2, -1l 2, -2l 2, -1l 2, -1l 2, -1l 3, -2l 2, -1l 2, -1l 2, -1l 2, -2l
 2, -1l 3, -1l 2, -1l 2, -2l 2, -1l 2, -1l 3, -1l 2, -2l 2, -1l 2, -1l 2, -1l 2, -1l 3, -2l 2, -1l 2, -1l 2, -1" fill="none" stroke="#ff0000" stroke-width="2"/>
<path d="M424,302l 2, -2l 2, -1l 3, -1l 2, -1l 2, -2l 2, -1l 2, -1l 3, -1l 2, -2l 2, -1l 2, -1l 2, -1l 2, -2l 3, -1l 2, -1l 2, -1l 2, -1l 2, -2l 2, -1l 3, -1l 2, -1l 2, -2l 2, -1l 2, -1l 3, -1l 2, -2l 2, -1l 2, -1l 2, -1l 2, -2l 3, -1l 2, -1l 2, -1l
 2, -2l 2, -1l 2, -1l 3, -1l 2, -2l 2, -1l 2, -1l 2, -1l 3, -1l 2, -2l 2, -1l 2, -1l 2, -1l 2, -2l 3, -1l 2, -1" fill="none" stroke="#ff0000" stroke-width="2"/>
<path d="M531,241l 2, -1" fill="none" stroke="#ff0000" stroke-width="2"/>
<path d="M316,362h 218" fill="none" stroke="black"/>
<text x="500" y="374" fill="black" font-size="6" font-family="Helvetica">
energy [GeV]
</text>
<path d="M316,357v 5" fill="none" stroke="black"/>
<path d="M321,359v 3" fill="none" stroke="black"/>
<path d="M325,359v 3" fill="none" stroke="black"/>
<path d="M329,359v 3" fill="none" stroke="black"/>
<path d="M334,359v 3" fill="none" stroke="black"/>
<path d="M338,357v 5" fill="none" stroke="black"/>
<path d="M342,359v 3" fill="none" stroke="black"/>
<path d="M347,359v 3" fill="none" stroke="black"/>
<path d="M351,359v 3" fill="none" stroke="black"/>
<path d="M356,359v 3" fill="none" stroke="black"/>
<path d="M360,357v 5" fill="none" stroke="black"/>
<path d="M364,359v 3" fill="none" stroke="black"/>
<path d="M369,359v 3" fill="none" stroke="black"/>
<path d="M373,359v 3" fill="none" stroke="black"/>
<path d="M377,359v 3" fill="none" stroke="black"/>
<path d="M382,357v 5" fill="none" stroke="black"/>
<path d="M386,359v 3" fill="none" stroke="black"/>
<path d="M390,359v 3" fill="none" stroke="black"/>
<path d="M395,359v 3" fill="none" stroke="black"/>
<path d="M399,359v 3" fill="none" stroke="black"/>
<path d="M403,357v 5" fill="none" stroke="black"/>
<path d="M408,359v 3" fill="none" stroke="black"/>
<path d="M412,359v 3" fill="none" stroke="black"/>
<path d="M416,359v 3" fill="none" stroke="black"/>
<path d="M421,359v 3" fill="none" stroke="black"/>
<path d="M425,357v 5" fill="none" stroke="black"/>
<path d="M430,359v 3" fill="none" stroke="black"/>
<path d="M434,359v 3" fill="none" stroke="black"/>
<path d="M438,359v 3" fill="none" stroke="black"/>
<path d="M443,359v 3" fill="none" stroke="black"/>
<path d="M447,357v 5" fill="none" stroke="black"/>
<path d="M451,359v 3" fill="none" stroke="black"/>
<path d="M456,359v 3" fill="none" stroke="black"/>
<path d="M460,359v 3" fill="none" stroke="black"/>
<path d="M464,359v 3" fill="none" stroke="black"/>
<path d="M469,357v 5" fill="none" stroke="black"/>
<path d="M473,359v 3" fill="none" stroke="black"/>
<path d="M477,359v 3" fill="none" stroke="black"/>
<path d="M482,359v 3" fill="none" stroke="black"/>
<path d="M486,359v 3" fill="none" stroke="black"/>
<path d="M491,357v 5" fill="none" stroke="black"/>
<path d="M495,359v 3" fill="none" stroke="black"/>
<path d="M499,359v 3" fill="none" stroke="black"/>
<path d="M504,359v 3" fill="none" stroke="black"/>
<path d="M508,359v 3" fill="none" stroke="black"/>
<path d="M512,357v 5" fill="none" stroke="black"/>
<path d="M517,359v 3" fill="none" stroke="black"/>
<path d="M521,359v 3" fill="none" stroke="black"/>
<path d="M525,359v 3" fill="none" stroke="black"/>
<path d="M530,359v 3" fill="none" stroke="black"/>
<path d="M534,357v 5" fill="none" stroke="black"/>
<text x="314" y="368" fill="black" font-size="6" font-family="Helvetica">
0
</text>
<text x="336" y="368" fill="black" font-size="6" font-family="Helvetica">
1
</text>
<text x="358" y="368" fill="black" font-size="6" font-family="Helvetica">
2
</text>
<text x="380" y="368" fill="black" font-size="6" font-family="Helvetica">
3
</text>
<text x="402" y="368" fill="black" font-size="6" font-family="Helvetica">
4
</text>
<text x="424" y="368" fill="black" font-size="6" font-family="Helvetica">
5
</text>
<text x="445" y="368" fill="black" font-size="6" font-family="Helvetica">
6
</text>
<text x="467" y="368" fill="black" font-size="6" font-family="Helvetica">
7
</text>
<text x="489" y="368" fill="black" font-size="6" font-family="Helvetica">
8
</text>
<text x="510" y="368" fill="black" font-size="6" font-family="Helvetica">
9
</text>
<text x="530" y="368" fill="black" font-size="6" font-family="Helvetica">
10
</text>
<path d="M316,362v -148" fill="none" stroke="black"/>
<g transform="rotate(-90,303,274)">
<text x="303" y="274" fill="black" font-size="6" font-family="Helvetica">
mean number of counts
</text>
</g>
<path d="M323,362h -7" fill="none" stroke="black"/>
<path d="M320,358h -4" fill="none" stroke="black"/>
<path d="M320,353h -4" fill="none" stroke="black"/>
<path d="M320,349h -4" fill="none" stroke="black"/>
<path d="M323,345h -7" fill="none" stroke="black"/>
<path d="M320,341h -4" fill="none" stroke="black"/>
<path d="M320,337h -4" fill="none" stroke="black"/>
<path d="M320,332h -4" fill="none" stroke="black"/>
<path d="M323,328h -7" fill="none" stroke="black"/>
<path d="M320,324h -4" fill="none" stroke="black"/>
<path d="M320,320h -4" fill="none" stroke="black"/>
<path d="M320,316h -4" fill="none" stroke="black"/>
<path d="M323,311h -7" fill="none" stroke="black"/>
<path d="M320,307h -4" fill="none" stroke="black"/>
<path d="M320,303h -4" fill="none" stroke="black"/>
<path d="M320,299h -4" fill="none" stroke="black"/>
<path d="M323,295h -7" fill="none" stroke="black"/>
<path d="M320,290h -4" fill="none" stroke="black"/>
<path d="M320,286h -4" fill="none" stroke="black"/>
<path d="M320,282h -4" fill="none" stroke="black"/>
<path d="M323,278h -7" fill="none" stroke="black"/>
<path d="M320,274h -4" fill="none" stroke="black"/>
<path d="M320,269h -4" fill="none" stroke="black"/>
<path d="M320,265h -4" fill="none" stroke="black"/>
<path d="M323,261h -7" fill="none" stroke="black"/>
<path d="M320,257h -4" fill="none" stroke="black"/>
<path d="M320,253h -4" fill="none" stroke="black"/>
<path d="M320,249h -4" fill="none" stroke="black"/>
<path d="M323,244h -7" fill="none" stroke="black"/>
<path d="M320,240h -4" fill="none" stroke="black"/>
<path d="M320,236h -4" fill="none" stroke="black"/>
<path d="M320,232h -4" fill="none" stroke="black"/>
<path d="M323,228h -7" fill="none" stroke="black"/>
<path d="M323,228h -7" fill="none" stroke="black"/>
<path d="M320,223h -4" fill="none" stroke="black"/>
<path d="M320,219h -4" fill="none" stroke="black"/>
<path d="M320,215h -4" fill="none" stroke="black"/>
<text x="311" y="364" fill="black" font-size="6" font-family="Helvetica">
0
</text>
<text x="308" y="347" fill="black" font-size="6" font-family="Helvetica">
20
</text>
<text x="308" y="330" fill="black" font-size="6" font-family="Helvetica">
40
</text>
<text x="308" y="313" fill="black" font-size="6" font-family="Helvetica">
60
</text>
<text x="308" y="297" fill="black" font-size="6" font-family="Helvetica">
80
</text>
<text x="305" y="280" fill="black" font-size="6" font-family="Helvetica">
100
</text>
<text x="305" y="263" fill="black" font-size="6" font-family="Helvetica">
120
</text>
<text x="305" y="246" fill="black" font-size="6" font-family="Helvetica">
140
</text>
<text x="305" y="229" fill="black" font-size="6" font-family="Helvetica">
160
</text>
<rect x="327" y="207" width="82" height="84" fill="white"/>
<path d="M327,291h 82" fill="none" stroke="black"/>
<path d="M409,291v -84" fill="none" stroke="black"/>
<path d="M409,207h -82" fill="none" stroke="black"/>
<path d="M327,207v 84" fill="none" stroke="black"/>
<text x="354" y="215" fill="black" font-size="7" font-family="Helvetica">
hcounts
</text>
<path d="M327,216h 82" fill="none" stroke="black"/>
<text x="331" y="222" fill="black" font-size="7" font-family="Helvetica">
Entries 
</text>
<text x="391" y="222" fill="black" font-size="7" font-family="Helvetica">
 100
</text>
<text x="331" y="230" fill="black" font-size="7" font-family="Helvetica">
Mean  
</text>
<text x="385" y="230" fill="black" font-size="7" font-family="Helvetica">
  5.001
</text>
<text x="331" y="239" fill="black" font-size="7" font-family="Helvetica">
Mean y 
</text>
<text x="384" y="239" fill="black" font-size="7" font-family="Helvetica">
  73.73
</text>
<text x="331" y="247" fill="black" font-size="7" font-family="Helvetica">
RMS   
</text>
<text x="384" y="247" fill="black" font-size="7" font-family="Helvetica">
  2.858
</text>
<text x="331" y="255" fill="black" font-size="7" font-family="Helvetica">
RMS y 
</text>
<text x="384" y="255" fill="black" font-size="7" font-family="Helvetica">
  43.32
</text>
<text x="338" y="264" fill="black" font-size="7" font-family="Helvetica">
 / ndf 
</text>
<text x="335" y="262" fill="black" font-size="4" font-family="Helvetica">
2
</text>
<text x="331" y="264" fill="black" font-size="7" font-family="Times">
&#0967;
</text>
<text x="375" y="263" fill="black" font-size="7" font-family="Helvetica">
  5.78 / 18
</text>
<text x="331" y="272" fill="black" font-size="7" font-family="Helvetica">
Prob  
</text>
<text x="386" y="272" fill="black" font-size="7" font-family="Helvetica">
 0.997
</text>
<text x="331" y="281" fill="black" font-size="7" font-family="Helvetica">
p0       
</text>
<text x="386" y="281" fill="black" font-size="7" font-family="Helvetica">
 1.797
</text>
<text x="382" y="281" fill="black" font-size="7" font-family="Times">
&#0177;
</text>
<text x="360" y="281" fill="black" font-size="7" font-family="Helvetica">
 -1.413 
</text>
<text x="331" y="289" fill="black" font-size="7" font-family="Helvetica">
p1       
</text>
<text x="389" y="289" fill="black" font-size="7" font-family="Helvetica">
 0.47
</text>
<text x="385" y="289" fill="black" font-size="7" font-family="Times">
&#0177;
</text>
<text x="366" y="289" fill="black" font-size="7" font-family="Helvetica">
 14.77 
</text>
<text x="374" y="206" fill="black" font-size="9" font-family="Helvetica">
Counts vs particle energy
</text></svg>
