<?xml version="1.0" standalone="no"?>
<svg width="567" height="384" viewBox="0 0 567 384" xmlns="http://www.w3.org/2000/svg">
<title>
/home/ubuntuuser/geant_exercises/geant-exercises-karnivool/Exercise 7/1c fit pi- lin.svg
</title>
<desc>
Creator: ROOT Version 5.32/04
CreationDate: Wed Jan 31 16:01:36 2024</desc>
<defs>
</defs>
<rect x="0" y="0" width="567" height="384" fill="white"/>
<rect x="6" y="3" width="272" height="185" fill="white"/>
<rect x="33" y="22" width="218" height="147" fill="white"/>
<rect x="33" y="22" width="218" height="147" fill="none" stroke="black"/>
<rect x="33" y="22" width="218" height="147" fill="white"/>
<rect x="33" y="22" width="218" height="147" fill="none" stroke="black"/>
<path d="M33,169h 2v -140h 2v 140h 7v -35h 4v 35h 11v -35h 2v 35h 5v -35h 2v 35h 2v -35h 2v -70h 2v 35h 9v 70h 2v -35h 2v -35h 2v 70h 9v -35h 2v 35h 5v -70h 2v 70h 2v -35h 2v 35h 9v -35h 2v 35h 2v -35h 2v 35h 9v -35h 2v 35h 3v -70h 2v 70h 11v -70h 2v
 35h 2v -35h 2v 35h 2v 35h 5v -35h 2v 35h 2v -35h 4v 35h 5v -35h 2v 35h 6v -35h 3v 35h 2v -35h 2v 35h 9v -35h 4v 35h 2v -70h 2v 35h 9v 35h 9v -35h 4v -35h 2v 70h 7v -35h 2v 35h 7" fill="none" stroke="#000099"/>
<rect x="218" y="15" width="54" height="30" fill="white"/>
<path d="M218,45h 54" fill="none" stroke="black"/>
<path d="M272,45v -30" fill="none" stroke="black"/>
<path d="M272,15h -54" fill="none" stroke="black"/>
<path d="M218,15v 30" fill="none" stroke="black"/>
<text x="240" y="22" fill="black" font-size="6" font-family="Helvetica">
hx
</text>
<path d="M218,23h 54" fill="none" stroke="black"/>
<text x="220" y="29" fill="black" font-size="6" font-family="Helvetica">
Entries 
</text>
<text x="257" y="29" fill="black" font-size="6" font-family="Helvetica">
 100
</text>
<text x="220" y="36" fill="black" font-size="6" font-family="Helvetica">
Mean  
</text>
<text x="250" y="36" fill="black" font-size="6" font-family="Helvetica">
  11.35
</text>
<text x="220" y="44" fill="black" font-size="6" font-family="Helvetica">
RMS   
</text>
<text x="249" y="44" fill="black" font-size="6" font-family="Helvetica">
  7.273
</text>
<path d="M33,169h 218" fill="none" stroke="black"/>
<text x="200" y="182" fill="black" font-size="6" font-family="Helvetica">
x of first vertex [cm]
</text>
<path d="M33,165v 4" fill="none" stroke="black"/>
<path d="M42,167v 2" fill="none" stroke="black"/>
<path d="M50,167v 2" fill="none" stroke="black"/>
<path d="M59,167v 2" fill="none" stroke="black"/>
<path d="M68,167v 2" fill="none" stroke="black"/>
<path d="M76,165v 4" fill="none" stroke="black"/>
<path d="M85,167v 2" fill="none" stroke="black"/>
<path d="M94,167v 2" fill="none" stroke="black"/>
<path d="M103,167v 2" fill="none" stroke="black"/>
<path d="M111,167v 2" fill="none" stroke="black"/>
<path d="M120,165v 4" fill="none" stroke="black"/>
<path d="M129,167v 2" fill="none" stroke="black"/>
<path d="M137,167v 2" fill="none" stroke="black"/>
<path d="M146,167v 2" fill="none" stroke="black"/>
<path d="M155,167v 2" fill="none" stroke="black"/>
<path d="M164,165v 4" fill="none" stroke="black"/>
<path d="M172,167v 2" fill="none" stroke="black"/>
<path d="M181,167v 2" fill="none" stroke="black"/>
<path d="M190,167v 2" fill="none" stroke="black"/>
<path d="M198,167v 2" fill="none" stroke="black"/>
<path d="M207,165v 4" fill="none" stroke="black"/>
<path d="M216,167v 2" fill="none" stroke="black"/>
<path d="M224,167v 2" fill="none" stroke="black"/>
<path d="M233,167v 2" fill="none" stroke="black"/>
<path d="M242,167v 2" fill="none" stroke="black"/>
<path d="M251,165v 4" fill="none" stroke="black"/>
<text x="31" y="175" fill="black" font-size="6" font-family="Helvetica">
0
</text>
<text x="74" y="175" fill="black" font-size="6" font-family="Helvetica">
5
</text>
<text x="116" y="175" fill="black" font-size="6" font-family="Helvetica">
10
</text>
<text x="160" y="175" fill="black" font-size="6" font-family="Helvetica">
15
</text>
<text x="204" y="175" fill="black" font-size="6" font-family="Helvetica">
20
</text>
<text x="247" y="175" fill="black" font-size="6" font-family="Helvetica">
25
</text>
<path d="M33,169v -147" fill="none" stroke="black"/>
<g transform="rotate(-90,20,50)">
<text x="20" y="50" fill="black" font-size="6" font-family="Helvetica">
# of entries
</text>
</g>
<path d="M39,169h -6" fill="none" stroke="black"/>
<path d="M36,166h -3" fill="none" stroke="black"/>
<path d="M36,162h -3" fill="none" stroke="black"/>
<path d="M36,159h -3" fill="none" stroke="black"/>
<path d="M36,155h -3" fill="none" stroke="black"/>
<path d="M39,152h -6" fill="none" stroke="black"/>
<path d="M36,148h -3" fill="none" stroke="black"/>
<path d="M36,145h -3" fill="none" stroke="black"/>
<path d="M36,141h -3" fill="none" stroke="black"/>
<path d="M36,138h -3" fill="none" stroke="black"/>
<path d="M39,134h -6" fill="none" stroke="black"/>
<path d="M36,131h -3" fill="none" stroke="black"/>
<path d="M36,127h -3" fill="none" stroke="black"/>
<path d="M36,124h -3" fill="none" stroke="black"/>
<path d="M36,120h -3" fill="none" stroke="black"/>
<path d="M39,117h -6" fill="none" stroke="black"/>
<path d="M36,113h -3" fill="none" stroke="black"/>
<path d="M36,110h -3" fill="none" stroke="black"/>
<path d="M36,106h -3" fill="none" stroke="black"/>
<path d="M36,103h -3" fill="none" stroke="black"/>
<path d="M39,99h -6" fill="none" stroke="black"/>
<path d="M36,96h -3" fill="none" stroke="black"/>
<path d="M36,92h -3" fill="none" stroke="black"/>
<path d="M36,89h -3" fill="none" stroke="black"/>
<path d="M36,85h -3" fill="none" stroke="black"/>
<path d="M39,82h -6" fill="none" stroke="black"/>
<path d="M36,78h -3" fill="none" stroke="black"/>
<path d="M36,75h -3" fill="none" stroke="black"/>
<path d="M36,71h -3" fill="none" stroke="black"/>
<path d="M36,68h -3" fill="none" stroke="black"/>
<path d="M39,64h -6" fill="none" stroke="black"/>
<path d="M36,60h -3" fill="none" stroke="black"/>
<path d="M36,57h -3" fill="none" stroke="black"/>
<path d="M36,53h -3" fill="none" stroke="black"/>
<path d="M36,50h -3" fill="none" stroke="black"/>
<path d="M39,46h -6" fill="none" stroke="black"/>
<path d="M36,43h -3" fill="none" stroke="black"/>
<path d="M36,39h -3" fill="none" stroke="black"/>
<path d="M36,36h -3" fill="none" stroke="black"/>
<path d="M36,32h -3" fill="none" stroke="black"/>
<path d="M39,29h -6" fill="none" stroke="black"/>
<path d="M39,29h -6" fill="none" stroke="black"/>
<path d="M36,25h -3" fill="none" stroke="black"/>
<path d="M36,22h -3" fill="none" stroke="black"/>
<text x="28" y="171" fill="black" font-size="6" font-family="Helvetica">
0
</text>
<text x="23" y="154" fill="black" font-size="6" font-family="Helvetica">
0.5
</text>
<text x="29" y="137" fill="black" font-size="6" font-family="Helvetica">
1
</text>
<text x="23" y="118" fill="black" font-size="6" font-family="Helvetica">
1.5
</text>
<text x="28" y="102" fill="black" font-size="6" font-family="Helvetica">
2
</text>
<text x="23" y="83" fill="black" font-size="6" font-family="Helvetica">
2.5
</text>
<text x="28" y="66" fill="black" font-size="6" font-family="Helvetica">
3
</text>
<text x="23" y="48" fill="black" font-size="6" font-family="Helvetica">
3.5
</text>
<text x="28" y="32" fill="black" font-size="6" font-family="Helvetica">
4
</text>
<rect x="218" y="15" width="54" height="30" fill="white"/>
<path d="M218,45h 54" fill="none" stroke="black"/>
<path d="M272,45v -30" fill="none" stroke="black"/>
<path d="M272,15h -54" fill="none" stroke="black"/>
<path d="M218,15v 30" fill="none" stroke="black"/>
<text x="240" y="22" fill="black" font-size="6" font-family="Helvetica">
hx
</text>
<path d="M218,23h 54" fill="none" stroke="black"/>
<text x="220" y="29" fill="black" font-size="6" font-family="Helvetica">
Entries 
</text>
<text x="257" y="29" fill="black" font-size="6" font-family="Helvetica">
 100
</text>
<text x="220" y="36" fill="black" font-size="6" font-family="Helvetica">
Mean  
</text>
<text x="250" y="36" fill="black" font-size="6" font-family="Helvetica">
  11.35
</text>
<text x="220" y="44" fill="black" font-size="6" font-family="Helvetica">
RMS   
</text>
<text x="249" y="44" fill="black" font-size="6" font-family="Helvetica">
  7.273
</text>
<text x="95" y="13" fill="black" font-size="9" font-family="Helvetica">
starting point of shower
</text>
<rect x="289" y="3" width="272" height="185" fill="white"/>
<rect x="316" y="22" width="218" height="147" fill="white"/>
<rect x="316" y="22" width="218" height="147" fill="none" stroke="black"/>
<rect x="316" y="22" width="218" height="147" fill="white"/>
<rect x="316" y="22" width="218" height="147" fill="none" stroke="black"/>
<path d="M316,169h 92v -140h 4v 140h 4v -140h 5v 140h 43v -140h 5v 140h 8v -140h 9v 140h 9v -140h 9v 140h 4v -140h 4v 140h 9v -140h 4v 140h 5v -140h 4" fill="none" stroke="#000099"/>
<rect x="501" y="15" width="55" height="30" fill="white"/>
<path d="M501,45h 55" fill="none" stroke="black"/>
<path d="M556,45v -30" fill="none" stroke="black"/>
<path d="M556,15h -55" fill="none" stroke="black"/>
<path d="M501,15v 30" fill="none" stroke="black"/>
<text x="518" y="21" fill="black" font-size="6" font-family="Helvetica">
hwidth
</text>
<path d="M501,23h 55" fill="none" stroke="black"/>
<text x="503" y="29" fill="black" font-size="6" font-family="Helvetica">
Entries 
</text>
<text x="540" y="29" fill="black" font-size="6" font-family="Helvetica">
 100
</text>
<text x="503" y="36" fill="black" font-size="6" font-family="Helvetica">
Mean  
</text>
<text x="533" y="36" fill="black" font-size="6" font-family="Helvetica">
  19.14
</text>
<text x="503" y="44" fill="black" font-size="6" font-family="Helvetica">
RMS   
</text>
<text x="533" y="44" fill="black" font-size="6" font-family="Helvetica">
  4.443
</text>
<path d="M316,169h 218" fill="none" stroke="black"/>
<text x="472" y="182" fill="black" font-size="6" font-family="Helvetica">
width of the shower [cm]
</text>
<path d="M316,165v 4" fill="none" stroke="black"/>
<path d="M325,167v 2" fill="none" stroke="black"/>
<path d="M334,167v 2" fill="none" stroke="black"/>
<path d="M342,167v 2" fill="none" stroke="black"/>
<path d="M351,167v 2" fill="none" stroke="black"/>
<path d="M360,165v 4" fill="none" stroke="black"/>
<path d="M369,167v 2" fill="none" stroke="black"/>
<path d="M377,167v 2" fill="none" stroke="black"/>
<path d="M386,167v 2" fill="none" stroke="black"/>
<path d="M395,167v 2" fill="none" stroke="black"/>
<path d="M403,165v 4" fill="none" stroke="black"/>
<path d="M412,167v 2" fill="none" stroke="black"/>
<path d="M421,167v 2" fill="none" stroke="black"/>
<path d="M430,167v 2" fill="none" stroke="black"/>
<path d="M438,167v 2" fill="none" stroke="black"/>
<path d="M447,165v 4" fill="none" stroke="black"/>
<path d="M456,167v 2" fill="none" stroke="black"/>
<path d="M464,167v 2" fill="none" stroke="black"/>
<path d="M473,167v 2" fill="none" stroke="black"/>
<path d="M482,167v 2" fill="none" stroke="black"/>
<path d="M491,165v 4" fill="none" stroke="black"/>
<path d="M499,167v 2" fill="none" stroke="black"/>
<path d="M508,167v 2" fill="none" stroke="black"/>
<path d="M517,167v 2" fill="none" stroke="black"/>
<path d="M525,167v 2" fill="none" stroke="black"/>
<path d="M534,165v 4" fill="none" stroke="black"/>
<text x="314" y="175" fill="black" font-size="6" font-family="Helvetica">
0
</text>
<text x="358" y="175" fill="black" font-size="6" font-family="Helvetica">
5
</text>
<text x="400" y="175" fill="black" font-size="6" font-family="Helvetica">
10
</text>
<text x="443" y="175" fill="black" font-size="6" font-family="Helvetica">
15
</text>
<text x="487" y="175" fill="black" font-size="6" font-family="Helvetica">
20
</text>
<text x="530" y="175" fill="black" font-size="6" font-family="Helvetica">
25
</text>
<path d="M316,169v -147" fill="none" stroke="black"/>
<g transform="rotate(-90,303,50)">
<text x="303" y="50" fill="black" font-size="6" font-family="Helvetica">
# of entries
</text>
</g>
<path d="M323,169h -7" fill="none" stroke="black"/>
<path d="M320,162h -4" fill="none" stroke="black"/>
<path d="M320,155h -4" fill="none" stroke="black"/>
<path d="M320,148h -4" fill="none" stroke="black"/>
<path d="M323,141h -7" fill="none" stroke="black"/>
<path d="M320,134h -4" fill="none" stroke="black"/>
<path d="M320,127h -4" fill="none" stroke="black"/>
<path d="M320,120h -4" fill="none" stroke="black"/>
<path d="M323,113h -7" fill="none" stroke="black"/>
<path d="M320,106h -4" fill="none" stroke="black"/>
<path d="M320,99h -4" fill="none" stroke="black"/>
<path d="M320,92h -4" fill="none" stroke="black"/>
<path d="M323,85h -7" fill="none" stroke="black"/>
<path d="M320,78h -4" fill="none" stroke="black"/>
<path d="M320,71h -4" fill="none" stroke="black"/>
<path d="M320,64h -4" fill="none" stroke="black"/>
<path d="M323,57h -7" fill="none" stroke="black"/>
<path d="M320,50h -4" fill="none" stroke="black"/>
<path d="M320,43h -4" fill="none" stroke="black"/>
<path d="M320,36h -4" fill="none" stroke="black"/>
<path d="M323,29h -7" fill="none" stroke="black"/>
<path d="M323,29h -7" fill="none" stroke="black"/>
<text x="311" y="171" fill="black" font-size="6" font-family="Helvetica">
0
</text>
<text x="306" y="144" fill="black" font-size="6" font-family="Helvetica">
0.2
</text>
<text x="306" y="115" fill="black" font-size="6" font-family="Helvetica">
0.4
</text>
<text x="306" y="88" fill="black" font-size="6" font-family="Helvetica">
0.6
</text>
<text x="306" y="59" fill="black" font-size="6" font-family="Helvetica">
0.8
</text>
<text x="312" y="32" fill="black" font-size="6" font-family="Helvetica">
1
</text>
<rect x="501" y="15" width="55" height="30" fill="white"/>
<path d="M501,45h 55" fill="none" stroke="black"/>
<path d="M556,45v -30" fill="none" stroke="black"/>
<path d="M556,15h -55" fill="none" stroke="black"/>
<path d="M501,15v 30" fill="none" stroke="black"/>
<text x="518" y="21" fill="black" font-size="6" font-family="Helvetica">
hwidth
</text>
<path d="M501,23h 55" fill="none" stroke="black"/>
<text x="503" y="29" fill="black" font-size="6" font-family="Helvetica">
Entries 
</text>
<text x="540" y="29" fill="black" font-size="6" font-family="Helvetica">
 100
</text>
<text x="503" y="36" fill="black" font-size="6" font-family="Helvetica">
Mean  
</text>
<text x="533" y="36" fill="black" font-size="6" font-family="Helvetica">
  19.14
</text>
<text x="503" y="44" fill="black" font-size="6" font-family="Helvetica">
RMS   
</text>
<text x="533" y="44" fill="black" font-size="6" font-family="Helvetica">
  4.443
</text>
<text x="389" y="13" fill="black" font-size="8" font-family="Helvetica">
width of the shower
</text>
<rect x="6" y="196" width="272" height="184" fill="white"/>
<rect x="33" y="214" width="218" height="148" fill="white"/>
<rect x="33" y="214" width="218" height="148" fill="none" stroke="black"/>
<rect x="33" y="214" width="218" height="148" fill="white"/>
<rect x="33" y="214" width="218" height="148" fill="none" stroke="black"/>
<path d="M33,362h 70v -47h 4v 47h 13v -47h 4v 47h 5v -47h 4v 47h 4v -47h 13v 47h 14v -47h 4v 47h 9v -94h 8v 94h 9v -94h 4v 94h 13v -141h 5v 94h 4v 47h 4v -47h 9v 47h 9v -47h 4v -47h 5" fill="none" stroke="#000099"/>
<rect x="218" y="208" width="54" height="29" fill="white"/>
<path d="M218,237h 54" fill="none" stroke="black"/>
<path d="M272,237v -29" fill="none" stroke="black"/>
<path d="M272,208h -54" fill="none" stroke="black"/>
<path d="M218,208v 29" fill="none" stroke="black"/>
<text x="234" y="213" fill="black" font-size="6" font-family="Helvetica">
hlength
</text>
<path d="M218,215h 54" fill="none" stroke="black"/>
<text x="220" y="221" fill="black" font-size="6" font-family="Helvetica">
Entries 
</text>
<text x="257" y="221" fill="black" font-size="6" font-family="Helvetica">
 100
</text>
<text x="220" y="228" fill="black" font-size="6" font-family="Helvetica">
Mean  
</text>
<text x="252" y="228" fill="black" font-size="6" font-family="Helvetica">
   17.8
</text>
<text x="220" y="236" fill="black" font-size="6" font-family="Helvetica">
RMS   
</text>
<text x="249" y="236" fill="black" font-size="6" font-family="Helvetica">
  4.799
</text>
<path d="M33,362h 218" fill="none" stroke="black"/>
<text x="187" y="374" fill="black" font-size="6" font-family="Helvetica">
length of the shower [cm]
</text>
<path d="M33,357v 5" fill="none" stroke="black"/>
<path d="M42,359v 3" fill="none" stroke="black"/>
<path d="M50,359v 3" fill="none" stroke="black"/>
<path d="M59,359v 3" fill="none" stroke="black"/>
<path d="M68,359v 3" fill="none" stroke="black"/>
<path d="M76,357v 5" fill="none" stroke="black"/>
<path d="M85,359v 3" fill="none" stroke="black"/>
<path d="M94,359v 3" fill="none" stroke="black"/>
<path d="M103,359v 3" fill="none" stroke="black"/>
<path d="M111,359v 3" fill="none" stroke="black"/>
<path d="M120,357v 5" fill="none" stroke="black"/>
<path d="M129,359v 3" fill="none" stroke="black"/>
<path d="M137,359v 3" fill="none" stroke="black"/>
<path d="M146,359v 3" fill="none" stroke="black"/>
<path d="M155,359v 3" fill="none" stroke="black"/>
<path d="M164,357v 5" fill="none" stroke="black"/>
<path d="M172,359v 3" fill="none" stroke="black"/>
<path d="M181,359v 3" fill="none" stroke="black"/>
<path d="M190,359v 3" fill="none" stroke="black"/>
<path d="M198,359v 3" fill="none" stroke="black"/>
<path d="M207,357v 5" fill="none" stroke="black"/>
<path d="M216,359v 3" fill="none" stroke="black"/>
<path d="M224,359v 3" fill="none" stroke="black"/>
<path d="M233,359v 3" fill="none" stroke="black"/>
<path d="M242,359v 3" fill="none" stroke="black"/>
<path d="M251,357v 5" fill="none" stroke="black"/>
<text x="31" y="368" fill="black" font-size="6" font-family="Helvetica">
0
</text>
<text x="74" y="368" fill="black" font-size="6" font-family="Helvetica">
5
</text>
<text x="116" y="368" fill="black" font-size="6" font-family="Helvetica">
10
</text>
<text x="160" y="368" fill="black" font-size="6" font-family="Helvetica">
15
</text>
<text x="204" y="368" fill="black" font-size="6" font-family="Helvetica">
20
</text>
<text x="247" y="368" fill="black" font-size="6" font-family="Helvetica">
25
</text>
<path d="M33,362v -148" fill="none" stroke="black"/>
<g transform="rotate(-90,20,242)">
<text x="20" y="242" fill="black" font-size="6" font-family="Helvetica">
# of entries
</text>
</g>
<path d="M39,362h -6" fill="none" stroke="black"/>
<path d="M36,357h -3" fill="none" stroke="black"/>
<path d="M36,352h -3" fill="none" stroke="black"/>
<path d="M36,348h -3" fill="none" stroke="black"/>
<path d="M36,343h -3" fill="none" stroke="black"/>
<path d="M39,338h -6" fill="none" stroke="black"/>
<path d="M36,334h -3" fill="none" stroke="black"/>
<path d="M36,329h -3" fill="none" stroke="black"/>
<path d="M36,324h -3" fill="none" stroke="black"/>
<path d="M36,320h -3" fill="none" stroke="black"/>
<path d="M39,315h -6" fill="none" stroke="black"/>
<path d="M36,310h -3" fill="none" stroke="black"/>
<path d="M36,305h -3" fill="none" stroke="black"/>
<path d="M36,301h -3" fill="none" stroke="black"/>
<path d="M36,296h -3" fill="none" stroke="black"/>
<path d="M39,291h -6" fill="none" stroke="black"/>
<path d="M36,287h -3" fill="none" stroke="black"/>
<path d="M36,282h -3" fill="none" stroke="black"/>
<path d="M36,277h -3" fill="none" stroke="black"/>
<path d="M36,273h -3" fill="none" stroke="black"/>
<path d="M39,268h -6" fill="none" stroke="black"/>
<path d="M36,263h -3" fill="none" stroke="black"/>
<path d="M36,259h -3" fill="none" stroke="black"/>
<path d="M36,254h -3" fill="none" stroke="black"/>
<path d="M36,249h -3" fill="none" stroke="black"/>
<path d="M39,245h -6" fill="none" stroke="black"/>
<path d="M36,240h -3" fill="none" stroke="black"/>
<path d="M36,235h -3" fill="none" stroke="black"/>
<path d="M36,230h -3" fill="none" stroke="black"/>
<path d="M36,226h -3" fill="none" stroke="black"/>
<path d="M39,221h -6" fill="none" stroke="black"/>
<path d="M39,221h -6" fill="none" stroke="black"/>
<path d="M36,216h -3" fill="none" stroke="black"/>
<text x="28" y="364" fill="black" font-size="6" font-family="Helvetica">
0
</text>
<text x="23" y="340" fill="black" font-size="6" font-family="Helvetica">
0.5
</text>
<text x="29" y="318" fill="black" font-size="6" font-family="Helvetica">
1
</text>
<text x="23" y="294" fill="black" font-size="6" font-family="Helvetica">
1.5
</text>
<text x="28" y="271" fill="black" font-size="6" font-family="Helvetica">
2
</text>
<text x="23" y="246" fill="black" font-size="6" font-family="Helvetica">
2.5
</text>
<text x="28" y="224" fill="black" font-size="6" font-family="Helvetica">
3
</text>
<rect x="218" y="208" width="54" height="29" fill="white"/>
<path d="M218,237h 54" fill="none" stroke="black"/>
<path d="M272,237v -29" fill="none" stroke="black"/>
<path d="M272,208h -54" fill="none" stroke="black"/>
<path d="M218,208v 29" fill="none" stroke="black"/>
<text x="234" y="213" fill="black" font-size="6" font-family="Helvetica">
hlength
</text>
<path d="M218,215h 54" fill="none" stroke="black"/>
<text x="220" y="221" fill="black" font-size="6" font-family="Helvetica">
Entries 
</text>
<text x="257" y="221" fill="black" font-size="6" font-family="Helvetica">
 100
</text>
<text x="220" y="228" fill="black" font-size="6" font-family="Helvetica">
Mean  
</text>
<text x="252" y="228" fill="black" font-size="6" font-family="Helvetica">
   17.8
</text>
<text x="220" y="236" fill="black" font-size="6" font-family="Helvetica">
RMS   
</text>
<text x="249" y="236" fill="black" font-size="6" font-family="Helvetica">
  4.799
</text>
<text x="101" y="206" fill="black" font-size="9" font-family="Helvetica">
length of the shower
</text>
<rect x="289" y="196" width="272" height="184" fill="white"/>
<rect x="316" y="214" width="218" height="148" fill="white"/>
<rect x="316" y="214" width="218" height="148" fill="none" stroke="black"/>
<rect x="316" y="214" width="218" height="148" fill="white"/>
<rect x="316" y="214" width="218" height="148" fill="none" stroke="black"/>
<path d="M322,360v -3" fill="none" stroke="#000099"/>
<path d="M322,357v -3" fill="none" stroke="#000099"/>
<path d="M316,357h 6" fill="none" stroke="#000099"/>
<path d="M322,357h 5" fill="none" stroke="#000099"/>
<g stroke="black" stroke-width="1" fill="none">
<line x1="321" y1="357" x2="322" y2="357"/>
</g>
<path d="M333,354v -5" fill="none" stroke="#000099"/>
<path d="M333,349v -5" fill="none" stroke="#000099"/>
<path d="M327,349h 6" fill="none" stroke="#000099"/>
<path d="M333,349h 5" fill="none" stroke="#000099"/>
<g stroke="black" stroke-width="1" fill="none">
<line x1="332" y1="349" x2="333" y2="349"/>
</g>
<path d="M344,348v -3" fill="none" stroke="#000099"/>
<path d="M344,345v -4" fill="none" stroke="#000099"/>
<path d="M338,345h 6" fill="none" stroke="#000099"/>
<path d="M344,345h 5" fill="none" stroke="#000099"/>
<g stroke="black" stroke-width="1" fill="none">
<line x1="343" y1="345" x2="344" y2="345"/>
</g>
<path d="M354,348v -9" fill="none" stroke="#000099"/>
<path d="M354,339v -9" fill="none" stroke="#000099"/>
<path d="M349,339h 5" fill="none" stroke="#000099"/>
<path d="M354,339h 6" fill="none" stroke="#000099"/>
<g stroke="black" stroke-width="1" fill="none">
<line x1="353" y1="339" x2="354" y2="339"/>
</g>
<path d="M365,347v -10" fill="none" stroke="#000099"/>
<path d="M365,337v -10" fill="none" stroke="#000099"/>
<path d="M360,337h 5" fill="none" stroke="#000099"/>
<path d="M365,337h 6" fill="none" stroke="#000099"/>
<g stroke="black" stroke-width="1" fill="none">
<line x1="364" y1="337" x2="365" y2="337"/>
</g>
<path d="M376,342v -13" fill="none" stroke="#000099"/>
<path d="M376,329v -13" fill="none" stroke="#000099"/>
<path d="M371,329h 5" fill="none" stroke="#000099"/>
<path d="M376,329h 6" fill="none" stroke="#000099"/>
<g stroke="black" stroke-width="1" fill="none">
<line x1="375" y1="329" x2="376" y2="329"/>
</g>
<path d="M387,340v -11" fill="none" stroke="#000099"/>
<path d="M387,329v -12" fill="none" stroke="#000099"/>
<path d="M382,329h 5" fill="none" stroke="#000099"/>
<path d="M387,329h 6" fill="none" stroke="#000099"/>
<g stroke="black" stroke-width="1" fill="none">
<line x1="386" y1="329" x2="387" y2="329"/>
</g>
<path d="M398,325v -6" fill="none" stroke="#000099"/>
<path d="M398,319v -6" fill="none" stroke="#000099"/>
<path d="M393,319h 5" fill="none" stroke="#000099"/>
<path d="M398,319h 5" fill="none" stroke="#000099"/>
<g stroke="black" stroke-width="1" fill="none">
<line x1="397" y1="319" x2="398" y2="319"/>
</g>
<path d="M409,319v -15" fill="none" stroke="#000099"/>
<path d="M409,304v -14" fill="none" stroke="#000099"/>
<path d="M403,304h 6" fill="none" stroke="#000099"/>
<path d="M409,304h 5" fill="none" stroke="#000099"/>
<g stroke="black" stroke-width="1" fill="none">
<line x1="408" y1="304" x2="409" y2="304"/>
</g>
<path d="M420,315v -17" fill="none" stroke="#000099"/>
<path d="M420,298v -17" fill="none" stroke="#000099"/>
<path d="M414,298h 6" fill="none" stroke="#000099"/>
<path d="M420,298h 5" fill="none" stroke="#000099"/>
<g stroke="black" stroke-width="1" fill="none">
<line x1="419" y1="298" x2="420" y2="298"/>
</g>
<path d="M431,306v -2" fill="none" stroke="#000099"/>
<path d="M431,304v -2" fill="none" stroke="#000099"/>
<path d="M425,304h 6" fill="none" stroke="#000099"/>
<path d="M431,304h 5" fill="none" stroke="#000099"/>
<g stroke="black" stroke-width="1" fill="none">
<line x1="430" y1="304" x2="431" y2="304"/>
</g>
<path d="M442,322v -17" fill="none" stroke="#000099"/>
<path d="M442,305v -16" fill="none" stroke="#000099"/>
<path d="M436,305h 6" fill="none" stroke="#000099"/>
<path d="M442,305h 5" fill="none" stroke="#000099"/>
<g stroke="black" stroke-width="1" fill="none">
<line x1="441" y1="305" x2="442" y2="305"/>
</g>
<path d="M452,296v -11" fill="none" stroke="#000099"/>
<path d="M452,285v -10" fill="none" stroke="#000099"/>
<path d="M447,285h 5" fill="none" stroke="#000099"/>
<path d="M452,285h 6" fill="none" stroke="#000099"/>
<g stroke="black" stroke-width="1" fill="none">
<line x1="451" y1="285" x2="452" y2="285"/>
</g>
<path d="M463,301v -17" fill="none" stroke="#000099"/>
<path d="M463,284v -16" fill="none" stroke="#000099"/>
<path d="M458,284h 5" fill="none" stroke="#000099"/>
<path d="M463,284h 6" fill="none" stroke="#000099"/>
<g stroke="black" stroke-width="1" fill="none">
<line x1="462" y1="284" x2="463" y2="284"/>
</g>
<path d="M474,308v -28" fill="none" stroke="#000099"/>
<path d="M474,280v -27" fill="none" stroke="#000099"/>
<path d="M469,280h 5" fill="none" stroke="#000099"/>
<path d="M474,280h 6" fill="none" stroke="#000099"/>
<g stroke="black" stroke-width="1" fill="none">
<line x1="473" y1="280" x2="474" y2="280"/>
</g>
<path d="M485,288v -11" fill="none" stroke="#000099"/>
<path d="M485,277v -12" fill="none" stroke="#000099"/>
<path d="M480,277h 5" fill="none" stroke="#000099"/>
<path d="M485,277h 6" fill="none" stroke="#000099"/>
<g stroke="black" stroke-width="1" fill="none">
<line x1="484" y1="277" x2="485" y2="277"/>
</g>
<path d="M496,295v -37" fill="none" stroke="#000099"/>
<path d="M496,258v -37" fill="none" stroke="#000099"/>
<path d="M491,258h 5" fill="none" stroke="#000099"/>
<path d="M496,258h 5" fill="none" stroke="#000099"/>
<g stroke="black" stroke-width="1" fill="none">
<line x1="495" y1="258" x2="496" y2="258"/>
</g>
<path d="M507,268v -7" fill="none" stroke="#000099"/>
<path d="M507,261v -7" fill="none" stroke="#000099"/>
<path d="M501,261h 6" fill="none" stroke="#000099"/>
<path d="M507,261h 5" fill="none" stroke="#000099"/>
<g stroke="black" stroke-width="1" fill="none">
<line x1="506" y1="261" x2="507" y2="261"/>
</g>
<path d="M518,269v -20" fill="none" stroke="#000099"/>
<path d="M518,249v -21" fill="none" stroke="#000099"/>
<path d="M512,249h 6" fill="none" stroke="#000099"/>
<path d="M518,249h 5" fill="none" stroke="#000099"/>
<g stroke="black" stroke-width="1" fill="none">
<line x1="517" y1="249" x2="518" y2="249"/>
</g>
<path d="M529,319v -34" fill="none" stroke="#000099"/>
<path d="M529,285v -35" fill="none" stroke="#000099"/>
<path d="M523,285h 6" fill="none" stroke="#000099"/>
<path d="M529,285h 5" fill="none" stroke="#000099"/>
<g stroke="black" stroke-width="1" fill="none">
<line x1="528" y1="285" x2="529" y2="285"/>
</g>
<rect x="325" y="207" width="93" height="84" fill="white"/>
<path d="M325,291h 93" fill="none" stroke="black"/>
<path d="M418,291v -84" fill="none" stroke="black"/>
<path d="M418,207h -93" fill="none" stroke="black"/>
<path d="M325,207v 84" fill="none" stroke="black"/>
<text x="358" y="215" fill="black" font-size="7" font-family="Helvetica">
hcounts
</text>
<path d="M325,216h 93" fill="none" stroke="black"/>
<text x="329" y="223" fill="black" font-size="7" font-family="Helvetica">
Entries 
</text>
<text x="398" y="223" fill="black" font-size="7" font-family="Helvetica">
 100
</text>
<text x="329" y="231" fill="black" font-size="7" font-family="Helvetica">
Mean  
</text>
<text x="392" y="231" fill="black" font-size="7" font-family="Helvetica">
  5.001
</text>
<text x="329" y="239" fill="black" font-size="7" font-family="Helvetica">
Mean y 
</text>
<text x="392" y="240" fill="black" font-size="7" font-family="Helvetica">
  358.1
</text>
<text x="329" y="248" fill="black" font-size="7" font-family="Helvetica">
RMS   
</text>
<text x="390" y="248" fill="black" font-size="7" font-family="Helvetica">
  2.858
</text>
<text x="329" y="255" fill="black" font-size="7" font-family="Helvetica">
RMS y 
</text>
<text x="390" y="256" fill="black" font-size="7" font-family="Helvetica">
  223.6
</text>
<text x="336" y="264" fill="black" font-size="7" font-family="Helvetica">
 / ndf 
</text>
<text x="333" y="262" fill="black" font-size="5" font-family="Helvetica">
2
</text>
<text x="329" y="264" fill="black" font-size="7" font-family="Times">
&#0967;
</text>
<text x="378" y="264" fill="black" font-size="7" font-family="Helvetica">
 3.723 / 18
</text>
<text x="329" y="273" fill="black" font-size="7" font-family="Helvetica">
Prob  
</text>
<text x="389" y="273" fill="black" font-size="7" font-family="Helvetica">
 0.9999
</text>
<text x="329" y="281" fill="black" font-size="7" font-family="Helvetica">
p0       
</text>
<text x="393" y="281" fill="black" font-size="7" font-family="Helvetica">
 13.59
</text>
<text x="389" y="281" fill="black" font-size="7" font-family="Times">
&#0177;
</text>
<text x="367" y="281" fill="black" font-size="7" font-family="Helvetica">
 16.31 
</text>
<text x="329" y="289" fill="black" font-size="7" font-family="Helvetica">
p1       
</text>
<text x="397" y="290" fill="black" font-size="7" font-family="Helvetica">
 3.23
</text>
<text x="393" y="290" fill="black" font-size="7" font-family="Times">
&#0177;
</text>
<text x="371" y="290" fill="black" font-size="7" font-family="Helvetica">
 67.41 
</text>
<path d="M317,359l 3, -2l 2, -1l 2, -1l 2, -1l 2, -1l 2, -1l 3, -1l 2, -1l 2, -1l 2, -1l 2, -1l 3, -1l 2, -1l 2, -1l 2, -2l 2, -1l 2, -1l 3, -1l 2, -1l 2, -1l 2, -1l 2, -1l 3, -1l 2, -1l 2, -1l 2, -1l 2, -1l 2, -1l 3, -2l 2, -1l 2, -1l 2, -1l 2, -1l
 2, -1l 3, -1l 2, -1l 2, -1l 2, -1l 2, -1l 3, -1l 2, -1l 2, -2l 2, -1l 2, -1l 2, -1l 3, -1l 2, -1l 2, -1l 2, -1" fill="none" stroke="#ff0000" stroke-width="2"/>
<path d="M424,306l 2, -1l 2, -1l 3, -1l 2, -1l 2, -1l 2, -1l 2, -2l 3, -1l 2, -1l 2, -1l 2, -1l 2, -1l 2, -1l 3, -1l 2, -1l 2, -1l 2, -1l 2, -1l 2, -1l 3, -2l 2, -1l 2, -1l 2, -1l 2, -1l 3, -1l 2, -1l 2, -1l 2, -1l 2, -1l 2, -1l 3, -1l 2, -1l 2, -1l
 2, -2l 2, -1l 2, -1l 3, -1l 2, -1l 2, -1l 2, -1l 2, -1l 3, -1l 2, -1l 2, -1l 2, -1l 2, -1l 2, -1l 3, -2l 2, -1" fill="none" stroke="#ff0000" stroke-width="2"/>
<path d="M531,253l 2, -1" fill="none" stroke="#ff0000" stroke-width="2"/>
<path d="M316,362h 218" fill="none" stroke="black"/>
<text x="500" y="374" fill="black" font-size="6" font-family="Helvetica">
energy [GeV]
</text>
<path d="M316,357v 5" fill="none" stroke="black"/>
<path d="M321,359v 3" fill="none" stroke="black"/>
<path d="M325,359v 3" fill="none" stroke="black"/>
<path d="M329,359v 3" fill="none" stroke="black"/>
<path d="M334,359v 3" fill="none" stroke="black"/>
<path d="M338,357v 5" fill="none" stroke="black"/>
<path d="M342,359v 3" fill="none" stroke="black"/>
<path d="M347,359v 3" fill="none" stroke="black"/>
<path d="M351,359v 3" fill="none" stroke="black"/>
<path d="M356,359v 3" fill="none" stroke="black"/>
<path d="M360,357v 5" fill="none" stroke="black"/>
<path d="M364,359v 3" fill="none" stroke="black"/>
<path d="M369,359v 3" fill="none" stroke="black"/>
<path d="M373,359v 3" fill="none" stroke="black"/>
<path d="M377,359v 3" fill="none" stroke="black"/>
<path d="M382,357v 5" fill="none" stroke="black"/>
<path d="M386,359v 3" fill="none" stroke="black"/>
<path d="M390,359v 3" fill="none" stroke="black"/>
<path d="M395,359v 3" fill="none" stroke="black"/>
<path d="M399,359v 3" fill="none" stroke="black"/>
<path d="M403,357v 5" fill="none" stroke="black"/>
<path d="M408,359v 3" fill="none" stroke="black"/>
<path d="M412,359v 3" fill="none" stroke="black"/>
<path d="M416,359v 3" fill="none" stroke="black"/>
<path d="M421,359v 3" fill="none" stroke="black"/>
<path d="M425,357v 5" fill="none" stroke="black"/>
<path d="M430,359v 3" fill="none" stroke="black"/>
<path d="M434,359v 3" fill="none" stroke="black"/>
<path d="M438,359v 3" fill="none" stroke="black"/>
<path d="M443,359v 3" fill="none" stroke="black"/>
<path d="M447,357v 5" fill="none" stroke="black"/>
<path d="M451,359v 3" fill="none" stroke="black"/>
<path d="M456,359v 3" fill="none" stroke="black"/>
<path d="M460,359v 3" fill="none" stroke="black"/>
<path d="M464,359v 3" fill="none" stroke="black"/>
<path d="M469,357v 5" fill="none" stroke="black"/>
<path d="M473,359v 3" fill="none" stroke="black"/>
<path d="M477,359v 3" fill="none" stroke="black"/>
<path d="M482,359v 3" fill="none" stroke="black"/>
<path d="M486,359v 3" fill="none" stroke="black"/>
<path d="M491,357v 5" fill="none" stroke="black"/>
<path d="M495,359v 3" fill="none" stroke="black"/>
<path d="M499,359v 3" fill="none" stroke="black"/>
<path d="M504,359v 3" fill="none" stroke="black"/>
<path d="M508,359v 3" fill="none" stroke="black"/>
<path d="M512,357v 5" fill="none" stroke="black"/>
<path d="M517,359v 3" fill="none" stroke="black"/>
<path d="M521,359v 3" fill="none" stroke="black"/>
<path d="M525,359v 3" fill="none" stroke="black"/>
<path d="M530,359v 3" fill="none" stroke="black"/>
<path d="M534,357v 5" fill="none" stroke="black"/>
<text x="314" y="368" fill="black" font-size="6" font-family="Helvetica">
0
</text>
<text x="336" y="368" fill="black" font-size="6" font-family="Helvetica">
1
</text>
<text x="358" y="368" fill="black" font-size="6" font-family="Helvetica">
2
</text>
<text x="380" y="368" fill="black" font-size="6" font-family="Helvetica">
3
</text>
<text x="402" y="368" fill="black" font-size="6" font-family="Helvetica">
4
</text>
<text x="424" y="368" fill="black" font-size="6" font-family="Helvetica">
5
</text>
<text x="445" y="368" fill="black" font-size="6" font-family="Helvetica">
6
</text>
<text x="467" y="368" fill="black" font-size="6" font-family="Helvetica">
7
</text>
<text x="489" y="368" fill="black" font-size="6" font-family="Helvetica">
8
</text>
<text x="510" y="368" fill="black" font-size="6" font-family="Helvetica">
9
</text>
<text x="530" y="368" fill="black" font-size="6" font-family="Helvetica">
10
</text>
<path d="M316,362v -148" fill="none" stroke="black"/>
<g transform="rotate(-90,303,274)">
<text x="303" y="274" fill="black" font-size="6" font-family="Helvetica">
mean number of counts
</text>
</g>
<path d="M323,362h -7" fill="none" stroke="black"/>
<path d="M320,359h -4" fill="none" stroke="black"/>
<path d="M320,355h -4" fill="none" stroke="black"/>
<path d="M320,352h -4" fill="none" stroke="black"/>
<path d="M320,349h -4" fill="none" stroke="black"/>
<path d="M323,346h -7" fill="none" stroke="black"/>
<path d="M320,343h -4" fill="none" stroke="black"/>
<path d="M320,339h -4" fill="none" stroke="black"/>
<path d="M320,336h -4" fill="none" stroke="black"/>
<path d="M320,333h -4" fill="none" stroke="black"/>
<path d="M323,330h -7" fill="none" stroke="black"/>
<path d="M320,327h -4" fill="none" stroke="black"/>
<path d="M320,323h -4" fill="none" stroke="black"/>
<path d="M320,320h -4" fill="none" stroke="black"/>
<path d="M320,317h -4" fill="none" stroke="black"/>
<path d="M323,314h -7" fill="none" stroke="black"/>
<path d="M320,311h -4" fill="none" stroke="black"/>
<path d="M320,308h -4" fill="none" stroke="black"/>
<path d="M320,304h -4" fill="none" stroke="black"/>
<path d="M320,301h -4" fill="none" stroke="black"/>
<path d="M323,298h -7" fill="none" stroke="black"/>
<path d="M320,295h -4" fill="none" stroke="black"/>
<path d="M320,292h -4" fill="none" stroke="black"/>
<path d="M320,288h -4" fill="none" stroke="black"/>
<path d="M320,285h -4" fill="none" stroke="black"/>
<path d="M323,282h -7" fill="none" stroke="black"/>
<path d="M320,279h -4" fill="none" stroke="black"/>
<path d="M320,276h -4" fill="none" stroke="black"/>
<path d="M320,273h -4" fill="none" stroke="black"/>
<path d="M320,269h -4" fill="none" stroke="black"/>
<path d="M323,266h -7" fill="none" stroke="black"/>
<path d="M320,263h -4" fill="none" stroke="black"/>
<path d="M320,260h -4" fill="none" stroke="black"/>
<path d="M320,257h -4" fill="none" stroke="black"/>
<path d="M320,253h -4" fill="none" stroke="black"/>
<path d="M323,250h -7" fill="none" stroke="black"/>
<path d="M320,247h -4" fill="none" stroke="black"/>
<path d="M320,244h -4" fill="none" stroke="black"/>
<path d="M320,241h -4" fill="none" stroke="black"/>
<path d="M320,237h -4" fill="none" stroke="black"/>
<path d="M323,234h -7" fill="none" stroke="black"/>
<path d="M320,231h -4" fill="none" stroke="black"/>
<path d="M320,228h -4" fill="none" stroke="black"/>
<path d="M320,225h -4" fill="none" stroke="black"/>
<path d="M320,222h -4" fill="none" stroke="black"/>
<path d="M323,218h -7" fill="none" stroke="black"/>
<path d="M323,218h -7" fill="none" stroke="black"/>
<path d="M320,215h -4" fill="none" stroke="black"/>
<text x="311" y="364" fill="black" font-size="6" font-family="Helvetica">
0
</text>
<text x="305" y="348" fill="black" font-size="6" font-family="Helvetica">
100
</text>
<text x="305" y="332" fill="black" font-size="6" font-family="Helvetica">
200
</text>
<text x="305" y="316" fill="black" font-size="6" font-family="Helvetica">
300
</text>
<text x="305" y="300" fill="black" font-size="6" font-family="Helvetica">
400
</text>
<text x="305" y="284" fill="black" font-size="6" font-family="Helvetica">
500
</text>
<text x="305" y="268" fill="black" font-size="6" font-family="Helvetica">
600
</text>
<text x="305" y="252" fill="black" font-size="6" font-family="Helvetica">
700
</text>
<text x="305" y="237" fill="black" font-size="6" font-family="Helvetica">
800
</text>
<text x="305" y="220" fill="black" font-size="6" font-family="Helvetica">
900
</text>
<rect x="325" y="207" width="93" height="84" fill="white"/>
<path d="M325,291h 93" fill="none" stroke="black"/>
<path d="M418,291v -84" fill="none" stroke="black"/>
<path d="M418,207h -93" fill="none" stroke="black"/>
<path d="M325,207v 84" fill="none" stroke="black"/>
<text x="358" y="215" fill="black" font-size="7" font-family="Helvetica">
hcounts
</text>
<path d="M325,216h 93" fill="none" stroke="black"/>
<text x="329" y="223" fill="black" font-size="7" font-family="Helvetica">
Entries 
</text>
<text x="398" y="223" fill="black" font-size="7" font-family="Helvetica">
 100
</text>
<text x="329" y="231" fill="black" font-size="7" font-family="Helvetica">
Mean  
</text>
<text x="392" y="231" fill="black" font-size="7" font-family="Helvetica">
  5.001
</text>
<text x="329" y="239" fill="black" font-size="7" font-family="Helvetica">
Mean y 
</text>
<text x="392" y="240" fill="black" font-size="7" font-family="Helvetica">
  358.1
</text>
<text x="329" y="248" fill="black" font-size="7" font-family="Helvetica">
RMS   
</text>
<text x="390" y="248" fill="black" font-size="7" font-family="Helvetica">
  2.858
</text>
<text x="329" y="255" fill="black" font-size="7" font-family="Helvetica">
RMS y 
</text>
<text x="390" y="256" fill="black" font-size="7" font-family="Helvetica">
  223.6
</text>
<text x="336" y="264" fill="black" font-size="7" font-family="Helvetica">
 / ndf 
</text>
<text x="333" y="262" fill="black" font-size="5" font-family="Helvetica">
2
</text>
<text x="329" y="264" fill="black" font-size="7" font-family="Times">
&#0967;
</text>
<text x="378" y="264" fill="black" font-size="7" font-family="Helvetica">
 3.723 / 18
</text>
<text x="329" y="273" fill="black" font-size="7" font-family="Helvetica">
Prob  
</text>
<text x="389" y="273" fill="black" font-size="7" font-family="Helvetica">
 0.9999
</text>
<text x="329" y="281" fill="black" font-size="7" font-family="Helvetica">
p0       
</text>
<text x="393" y="281" fill="black" font-size="7" font-family="Helvetica">
 13.59
</text>
<text x="389" y="281" fill="black" font-size="7" font-family="Times">
&#0177;
</text>
<text x="367" y="281" fill="black" font-size="7" font-family="Helvetica">
 16.31 
</text>
<text x="329" y="289" fill="black" font-size="7" font-family="Helvetica">
p1       
</text>
<text x="397" y="290" fill="black" font-size="7" font-family="Helvetica">
 3.23
</text>
<text x="393" y="290" fill="black" font-size="7" font-family="Times">
&#0177;
</text>
<text x="371" y="290" fill="black" font-size="7" font-family="Helvetica">
 67.41 
</text>
<text x="374" y="206" fill="black" font-size="9" font-family="Helvetica">
Counts vs particle energy
</text></svg>
