<?xml version="1.0" standalone="no"?>
<svg width="567" height="384" viewBox="0 0 567 384" xmlns="http://www.w3.org/2000/svg">
<title>
/home/ubuntuuser/geant_exercises/geant-exercises-karnivool/Exercise 7/1c fit pi- lin.svg
</title>
<desc>
Creator: ROOT Version 5.32/04
CreationDate: Mon Feb  5 12:36:23 2024</desc>
<defs>
</defs>
<rect x="0" y="0" width="567" height="384" fill="white"/>
<rect x="6" y="3" width="272" height="185" fill="white"/>
<rect x="33" y="22" width="218" height="147" fill="white"/>
<rect x="33" y="22" width="218" height="147" fill="none" stroke="black"/>
<rect x="33" y="22" width="218" height="147" fill="white"/>
<rect x="33" y="22" width="218" height="147" fill="none" stroke="black"/>
<path d="M33,99h 2v 47h 2v -117h 2v 94h 3v 11h 4v -11h 2v -24h 2v 35h 5v -35h 2v 24h 2v 11h 2v -35h 2v 59h 3v -24h 2v 12h 2v 12h 2v -35h 2v 35h 7v -12h 2v 12h 2v 11h 4v -23h 3v 23h 8v -46h 3v 46h 10v -23h 3v 23h 8v -11h 5v 11h 122" fill="none"
 stroke="#000099"/>
<rect x="218" y="15" width="54" height="30" fill="white"/>
<path d="M218,45h 54" fill="none" stroke="black"/>
<path d="M272,45v -30" fill="none" stroke="black"/>
<path d="M272,15h -54" fill="none" stroke="black"/>
<path d="M218,15v 30" fill="none" stroke="black"/>
<text x="240" y="22" fill="black" font-size="6" font-family="Helvetica">
hx
</text>
<path d="M218,23h 54" fill="none" stroke="black"/>
<text x="220" y="29" fill="black" font-size="6" font-family="Helvetica">
Entries 
</text>
<text x="257" y="29" fill="black" font-size="6" font-family="Helvetica">
 100
</text>
<text x="220" y="36" fill="black" font-size="6" font-family="Helvetica">
Mean  
</text>
<text x="249" y="36" fill="black" font-size="6" font-family="Helvetica">
  23.54
</text>
<text x="220" y="44" fill="black" font-size="6" font-family="Helvetica">
RMS   
</text>
<text x="249" y="44" fill="black" font-size="6" font-family="Helvetica">
  19.82
</text>
<path d="M33,169h 218" fill="none" stroke="black"/>
<text x="200" y="182" fill="black" font-size="6" font-family="Helvetica">
x of first vertex [cm]
</text>
<path d="M33,165v 4" fill="none" stroke="black"/>
<path d="M38,167v 2" fill="none" stroke="black"/>
<path d="M44,167v 2" fill="none" stroke="black"/>
<path d="M49,167v 2" fill="none" stroke="black"/>
<path d="M55,165v 4" fill="none" stroke="black"/>
<path d="M60,167v 2" fill="none" stroke="black"/>
<path d="M66,167v 2" fill="none" stroke="black"/>
<path d="M71,167v 2" fill="none" stroke="black"/>
<path d="M76,165v 4" fill="none" stroke="black"/>
<path d="M82,167v 2" fill="none" stroke="black"/>
<path d="M87,167v 2" fill="none" stroke="black"/>
<path d="M93,167v 2" fill="none" stroke="black"/>
<path d="M98,165v 4" fill="none" stroke="black"/>
<path d="M104,167v 2" fill="none" stroke="black"/>
<path d="M109,167v 2" fill="none" stroke="black"/>
<path d="M115,167v 2" fill="none" stroke="black"/>
<path d="M120,165v 4" fill="none" stroke="black"/>
<path d="M125,167v 2" fill="none" stroke="black"/>
<path d="M131,167v 2" fill="none" stroke="black"/>
<path d="M136,167v 2" fill="none" stroke="black"/>
<path d="M142,165v 4" fill="none" stroke="black"/>
<path d="M147,167v 2" fill="none" stroke="black"/>
<path d="M153,167v 2" fill="none" stroke="black"/>
<path d="M158,167v 2" fill="none" stroke="black"/>
<path d="M164,165v 4" fill="none" stroke="black"/>
<path d="M169,167v 2" fill="none" stroke="black"/>
<path d="M174,167v 2" fill="none" stroke="black"/>
<path d="M180,167v 2" fill="none" stroke="black"/>
<path d="M185,165v 4" fill="none" stroke="black"/>
<path d="M191,167v 2" fill="none" stroke="black"/>
<path d="M196,167v 2" fill="none" stroke="black"/>
<path d="M202,167v 2" fill="none" stroke="black"/>
<path d="M207,165v 4" fill="none" stroke="black"/>
<path d="M212,167v 2" fill="none" stroke="black"/>
<path d="M218,167v 2" fill="none" stroke="black"/>
<path d="M223,167v 2" fill="none" stroke="black"/>
<path d="M229,165v 4" fill="none" stroke="black"/>
<path d="M234,167v 2" fill="none" stroke="black"/>
<path d="M240,167v 2" fill="none" stroke="black"/>
<path d="M245,167v 2" fill="none" stroke="black"/>
<path d="M251,165v 4" fill="none" stroke="black"/>
<text x="31" y="175" fill="black" font-size="6" font-family="Helvetica">
0
</text>
<text x="51" y="175" fill="black" font-size="6" font-family="Helvetica">
20
</text>
<text x="72" y="175" fill="black" font-size="6" font-family="Helvetica">
40
</text>
<text x="94" y="175" fill="black" font-size="6" font-family="Helvetica">
60
</text>
<text x="116" y="175" fill="black" font-size="6" font-family="Helvetica">
80
</text>
<text x="137" y="175" fill="black" font-size="6" font-family="Helvetica">
100
</text>
<text x="158" y="175" fill="black" font-size="6" font-family="Helvetica">
120
</text>
<text x="180" y="175" fill="black" font-size="6" font-family="Helvetica">
140
</text>
<text x="202" y="175" fill="black" font-size="6" font-family="Helvetica">
160
</text>
<text x="223" y="175" fill="black" font-size="6" font-family="Helvetica">
180
</text>
<text x="245" y="175" fill="black" font-size="6" font-family="Helvetica">
200
</text>
<path d="M33,169v -147" fill="none" stroke="black"/>
<g transform="rotate(-90,20,50)">
<text x="20" y="50" fill="black" font-size="6" font-family="Helvetica">
# of entries
</text>
</g>
<path d="M39,169h -6" fill="none" stroke="black"/>
<path d="M36,164h -3" fill="none" stroke="black"/>
<path d="M36,158h -3" fill="none" stroke="black"/>
<path d="M36,152h -3" fill="none" stroke="black"/>
<path d="M39,146h -6" fill="none" stroke="black"/>
<path d="M36,140h -3" fill="none" stroke="black"/>
<path d="M36,134h -3" fill="none" stroke="black"/>
<path d="M36,128h -3" fill="none" stroke="black"/>
<path d="M39,123h -6" fill="none" stroke="black"/>
<path d="M36,117h -3" fill="none" stroke="black"/>
<path d="M36,111h -3" fill="none" stroke="black"/>
<path d="M36,105h -3" fill="none" stroke="black"/>
<path d="M39,99h -6" fill="none" stroke="black"/>
<path d="M36,93h -3" fill="none" stroke="black"/>
<path d="M36,87h -3" fill="none" stroke="black"/>
<path d="M36,82h -3" fill="none" stroke="black"/>
<path d="M39,76h -6" fill="none" stroke="black"/>
<path d="M36,70h -3" fill="none" stroke="black"/>
<path d="M36,64h -3" fill="none" stroke="black"/>
<path d="M36,58h -3" fill="none" stroke="black"/>
<path d="M39,52h -6" fill="none" stroke="black"/>
<path d="M36,46h -3" fill="none" stroke="black"/>
<path d="M36,41h -3" fill="none" stroke="black"/>
<path d="M36,35h -3" fill="none" stroke="black"/>
<path d="M39,29h -6" fill="none" stroke="black"/>
<path d="M39,29h -6" fill="none" stroke="black"/>
<path d="M36,23h -3" fill="none" stroke="black"/>
<text x="28" y="171" fill="black" font-size="6" font-family="Helvetica">
0
</text>
<text x="28" y="149" fill="black" font-size="6" font-family="Helvetica">
2
</text>
<text x="28" y="126" fill="black" font-size="6" font-family="Helvetica">
4
</text>
<text x="28" y="101" fill="black" font-size="6" font-family="Helvetica">
6
</text>
<text x="28" y="78" fill="black" font-size="6" font-family="Helvetica">
8
</text>
<text x="24" y="54" fill="black" font-size="6" font-family="Helvetica">
10
</text>
<text x="24" y="32" fill="black" font-size="6" font-family="Helvetica">
12
</text>
<rect x="218" y="15" width="54" height="30" fill="white"/>
<path d="M218,45h 54" fill="none" stroke="black"/>
<path d="M272,45v -30" fill="none" stroke="black"/>
<path d="M272,15h -54" fill="none" stroke="black"/>
<path d="M218,15v 30" fill="none" stroke="black"/>
<text x="240" y="22" fill="black" font-size="6" font-family="Helvetica">
hx
</text>
<path d="M218,23h 54" fill="none" stroke="black"/>
<text x="220" y="29" fill="black" font-size="6" font-family="Helvetica">
Entries 
</text>
<text x="257" y="29" fill="black" font-size="6" font-family="Helvetica">
 100
</text>
<text x="220" y="36" fill="black" font-size="6" font-family="Helvetica">
Mean  
</text>
<text x="249" y="36" fill="black" font-size="6" font-family="Helvetica">
  23.54
</text>
<text x="220" y="44" fill="black" font-size="6" font-family="Helvetica">
RMS   
</text>
<text x="249" y="44" fill="black" font-size="6" font-family="Helvetica">
  19.82
</text>
<text x="95" y="13" fill="black" font-size="9" font-family="Helvetica">
starting point of shower
</text>
<rect x="289" y="3" width="272" height="185" fill="white"/>
<rect x="316" y="22" width="218" height="147" fill="white"/>
<rect x="316" y="22" width="218" height="147" fill="none" stroke="black"/>
<rect x="316" y="22" width="218" height="147" fill="white"/>
<rect x="316" y="22" width="218" height="147" fill="none" stroke="black"/>
<path d="M316,169h 9v -23h 4v 23h 5v -35h 4v -11h 4v -47h 5v 23h 4v -70h 5v 12h 4v 23h 4v 82h 5v -35h 8v -47h 5v 70h 4v -35h 4v 47h 5v 12h 8v -12h 9v 12h 9v 11h 4v -11h 5v 11h 4v -11h 9v 11h 4v -11h 4v 11h 5v -11h 4v 11h 74" fill="none"
 stroke="#000099"/>
<rect x="501" y="15" width="55" height="30" fill="white"/>
<path d="M501,45h 55" fill="none" stroke="black"/>
<path d="M556,45v -30" fill="none" stroke="black"/>
<path d="M556,15h -55" fill="none" stroke="black"/>
<path d="M501,15v 30" fill="none" stroke="black"/>
<text x="518" y="21" fill="black" font-size="6" font-family="Helvetica">
hwidth
</text>
<path d="M501,23h 55" fill="none" stroke="black"/>
<text x="503" y="29" fill="black" font-size="6" font-family="Helvetica">
Entries 
</text>
<text x="540" y="29" fill="black" font-size="6" font-family="Helvetica">
 100
</text>
<text x="503" y="36" fill="black" font-size="6" font-family="Helvetica">
Mean  
</text>
<text x="535" y="36" fill="black" font-size="6" font-family="Helvetica">
   48.6
</text>
<text x="503" y="44" fill="black" font-size="6" font-family="Helvetica">
RMS   
</text>
<text x="533" y="44" fill="black" font-size="6" font-family="Helvetica">
  23.65
</text>
<path d="M316,169h 218" fill="none" stroke="black"/>
<text x="472" y="182" fill="black" font-size="6" font-family="Helvetica">
width of the shower [cm]
</text>
<path d="M316,165v 4" fill="none" stroke="black"/>
<path d="M322,167v 2" fill="none" stroke="black"/>
<path d="M327,167v 2" fill="none" stroke="black"/>
<path d="M333,167v 2" fill="none" stroke="black"/>
<path d="M338,165v 4" fill="none" stroke="black"/>
<path d="M344,167v 2" fill="none" stroke="black"/>
<path d="M349,167v 2" fill="none" stroke="black"/>
<path d="M354,167v 2" fill="none" stroke="black"/>
<path d="M360,165v 4" fill="none" stroke="black"/>
<path d="M365,167v 2" fill="none" stroke="black"/>
<path d="M371,167v 2" fill="none" stroke="black"/>
<path d="M376,167v 2" fill="none" stroke="black"/>
<path d="M382,165v 4" fill="none" stroke="black"/>
<path d="M387,167v 2" fill="none" stroke="black"/>
<path d="M393,167v 2" fill="none" stroke="black"/>
<path d="M398,167v 2" fill="none" stroke="black"/>
<path d="M403,165v 4" fill="none" stroke="black"/>
<path d="M409,167v 2" fill="none" stroke="black"/>
<path d="M414,167v 2" fill="none" stroke="black"/>
<path d="M420,167v 2" fill="none" stroke="black"/>
<path d="M425,165v 4" fill="none" stroke="black"/>
<path d="M431,167v 2" fill="none" stroke="black"/>
<path d="M436,167v 2" fill="none" stroke="black"/>
<path d="M442,167v 2" fill="none" stroke="black"/>
<path d="M447,165v 4" fill="none" stroke="black"/>
<path d="M452,167v 2" fill="none" stroke="black"/>
<path d="M458,167v 2" fill="none" stroke="black"/>
<path d="M463,167v 2" fill="none" stroke="black"/>
<path d="M469,165v 4" fill="none" stroke="black"/>
<path d="M474,167v 2" fill="none" stroke="black"/>
<path d="M480,167v 2" fill="none" stroke="black"/>
<path d="M485,167v 2" fill="none" stroke="black"/>
<path d="M491,165v 4" fill="none" stroke="black"/>
<path d="M496,167v 2" fill="none" stroke="black"/>
<path d="M501,167v 2" fill="none" stroke="black"/>
<path d="M507,167v 2" fill="none" stroke="black"/>
<path d="M512,165v 4" fill="none" stroke="black"/>
<path d="M518,167v 2" fill="none" stroke="black"/>
<path d="M523,167v 2" fill="none" stroke="black"/>
<path d="M529,167v 2" fill="none" stroke="black"/>
<path d="M534,165v 4" fill="none" stroke="black"/>
<text x="314" y="175" fill="black" font-size="6" font-family="Helvetica">
0
</text>
<text x="335" y="175" fill="black" font-size="6" font-family="Helvetica">
20
</text>
<text x="356" y="175" fill="black" font-size="6" font-family="Helvetica">
40
</text>
<text x="378" y="175" fill="black" font-size="6" font-family="Helvetica">
60
</text>
<text x="400" y="175" fill="black" font-size="6" font-family="Helvetica">
80
</text>
<text x="420" y="175" fill="black" font-size="6" font-family="Helvetica">
100
</text>
<text x="441" y="175" fill="black" font-size="6" font-family="Helvetica">
120
</text>
<text x="463" y="175" fill="black" font-size="6" font-family="Helvetica">
140
</text>
<text x="485" y="175" fill="black" font-size="6" font-family="Helvetica">
160
</text>
<text x="507" y="175" fill="black" font-size="6" font-family="Helvetica">
180
</text>
<text x="529" y="175" fill="black" font-size="6" font-family="Helvetica">
200
</text>
<path d="M316,169v -147" fill="none" stroke="black"/>
<g transform="rotate(-90,303,50)">
<text x="303" y="50" fill="black" font-size="6" font-family="Helvetica">
# of entries
</text>
</g>
<path d="M323,169h -7" fill="none" stroke="black"/>
<path d="M320,164h -4" fill="none" stroke="black"/>
<path d="M320,158h -4" fill="none" stroke="black"/>
<path d="M320,152h -4" fill="none" stroke="black"/>
<path d="M323,146h -7" fill="none" stroke="black"/>
<path d="M320,140h -4" fill="none" stroke="black"/>
<path d="M320,134h -4" fill="none" stroke="black"/>
<path d="M320,128h -4" fill="none" stroke="black"/>
<path d="M323,123h -7" fill="none" stroke="black"/>
<path d="M320,117h -4" fill="none" stroke="black"/>
<path d="M320,111h -4" fill="none" stroke="black"/>
<path d="M320,105h -4" fill="none" stroke="black"/>
<path d="M323,99h -7" fill="none" stroke="black"/>
<path d="M320,93h -4" fill="none" stroke="black"/>
<path d="M320,87h -4" fill="none" stroke="black"/>
<path d="M320,82h -4" fill="none" stroke="black"/>
<path d="M323,76h -7" fill="none" stroke="black"/>
<path d="M320,70h -4" fill="none" stroke="black"/>
<path d="M320,64h -4" fill="none" stroke="black"/>
<path d="M320,58h -4" fill="none" stroke="black"/>
<path d="M323,52h -7" fill="none" stroke="black"/>
<path d="M320,46h -4" fill="none" stroke="black"/>
<path d="M320,41h -4" fill="none" stroke="black"/>
<path d="M320,35h -4" fill="none" stroke="black"/>
<path d="M323,29h -7" fill="none" stroke="black"/>
<path d="M323,29h -7" fill="none" stroke="black"/>
<path d="M320,23h -4" fill="none" stroke="black"/>
<text x="311" y="171" fill="black" font-size="6" font-family="Helvetica">
0
</text>
<text x="311" y="149" fill="black" font-size="6" font-family="Helvetica">
2
</text>
<text x="311" y="126" fill="black" font-size="6" font-family="Helvetica">
4
</text>
<text x="311" y="101" fill="black" font-size="6" font-family="Helvetica">
6
</text>
<text x="311" y="78" fill="black" font-size="6" font-family="Helvetica">
8
</text>
<text x="308" y="54" fill="black" font-size="6" font-family="Helvetica">
10
</text>
<text x="308" y="32" fill="black" font-size="6" font-family="Helvetica">
12
</text>
<rect x="501" y="15" width="55" height="30" fill="white"/>
<path d="M501,45h 55" fill="none" stroke="black"/>
<path d="M556,45v -30" fill="none" stroke="black"/>
<path d="M556,15h -55" fill="none" stroke="black"/>
<path d="M501,15v 30" fill="none" stroke="black"/>
<text x="518" y="21" fill="black" font-size="6" font-family="Helvetica">
hwidth
</text>
<path d="M501,23h 55" fill="none" stroke="black"/>
<text x="503" y="29" fill="black" font-size="6" font-family="Helvetica">
Entries 
</text>
<text x="540" y="29" fill="black" font-size="6" font-family="Helvetica">
 100
</text>
<text x="503" y="36" fill="black" font-size="6" font-family="Helvetica">
Mean  
</text>
<text x="535" y="36" fill="black" font-size="6" font-family="Helvetica">
   48.6
</text>
<text x="503" y="44" fill="black" font-size="6" font-family="Helvetica">
RMS   
</text>
<text x="533" y="44" fill="black" font-size="6" font-family="Helvetica">
  23.65
</text>
<text x="389" y="13" fill="black" font-size="8" font-family="Helvetica">
width of the shower
</text>
<rect x="6" y="196" width="272" height="184" fill="white"/>
<rect x="33" y="214" width="218" height="148" fill="white"/>
<rect x="33" y="214" width="218" height="148" fill="none" stroke="black"/>
<rect x="33" y="214" width="218" height="148" fill="white"/>
<rect x="33" y="214" width="218" height="148" fill="none" stroke="black"/>
<path d="M33,362h 9v -35h 4v -12h 4v -24h 9v -23h 4v 59h 5v -106h 4v 59h 9v 11h 4v 12h 4v -23h 5v 11h 4v 47h 5v -23h 4v -24h 4v 47h 5v -11h 4v 11h 4v 12h 5v 12h 122" fill="none" stroke="#000099"/>
<rect x="218" y="208" width="54" height="29" fill="white"/>
<path d="M218,237h 54" fill="none" stroke="black"/>
<path d="M272,237v -29" fill="none" stroke="black"/>
<path d="M272,208h -54" fill="none" stroke="black"/>
<path d="M218,208v 29" fill="none" stroke="black"/>
<text x="234" y="213" fill="black" font-size="6" font-family="Helvetica">
hlength
</text>
<path d="M218,215h 54" fill="none" stroke="black"/>
<text x="220" y="221" fill="black" font-size="6" font-family="Helvetica">
Entries 
</text>
<text x="257" y="221" fill="black" font-size="6" font-family="Helvetica">
 100
</text>
<text x="220" y="228" fill="black" font-size="6" font-family="Helvetica">
Mean  
</text>
<text x="249" y="228" fill="black" font-size="6" font-family="Helvetica">
  42.85
</text>
<text x="220" y="236" fill="black" font-size="6" font-family="Helvetica">
RMS   
</text>
<text x="252" y="236" fill="black" font-size="6" font-family="Helvetica">
   19.3
</text>
<path d="M33,362h 218" fill="none" stroke="black"/>
<text x="187" y="374" fill="black" font-size="6" font-family="Helvetica">
length of the shower [cm]
</text>
<path d="M33,357v 5" fill="none" stroke="black"/>
<path d="M38,359v 3" fill="none" stroke="black"/>
<path d="M44,359v 3" fill="none" stroke="black"/>
<path d="M49,359v 3" fill="none" stroke="black"/>
<path d="M55,357v 5" fill="none" stroke="black"/>
<path d="M60,359v 3" fill="none" stroke="black"/>
<path d="M66,359v 3" fill="none" stroke="black"/>
<path d="M71,359v 3" fill="none" stroke="black"/>
<path d="M76,357v 5" fill="none" stroke="black"/>
<path d="M82,359v 3" fill="none" stroke="black"/>
<path d="M87,359v 3" fill="none" stroke="black"/>
<path d="M93,359v 3" fill="none" stroke="black"/>
<path d="M98,357v 5" fill="none" stroke="black"/>
<path d="M104,359v 3" fill="none" stroke="black"/>
<path d="M109,359v 3" fill="none" stroke="black"/>
<path d="M115,359v 3" fill="none" stroke="black"/>
<path d="M120,357v 5" fill="none" stroke="black"/>
<path d="M125,359v 3" fill="none" stroke="black"/>
<path d="M131,359v 3" fill="none" stroke="black"/>
<path d="M136,359v 3" fill="none" stroke="black"/>
<path d="M142,357v 5" fill="none" stroke="black"/>
<path d="M147,359v 3" fill="none" stroke="black"/>
<path d="M153,359v 3" fill="none" stroke="black"/>
<path d="M158,359v 3" fill="none" stroke="black"/>
<path d="M164,357v 5" fill="none" stroke="black"/>
<path d="M169,359v 3" fill="none" stroke="black"/>
<path d="M174,359v 3" fill="none" stroke="black"/>
<path d="M180,359v 3" fill="none" stroke="black"/>
<path d="M185,357v 5" fill="none" stroke="black"/>
<path d="M191,359v 3" fill="none" stroke="black"/>
<path d="M196,359v 3" fill="none" stroke="black"/>
<path d="M202,359v 3" fill="none" stroke="black"/>
<path d="M207,357v 5" fill="none" stroke="black"/>
<path d="M212,359v 3" fill="none" stroke="black"/>
<path d="M218,359v 3" fill="none" stroke="black"/>
<path d="M223,359v 3" fill="none" stroke="black"/>
<path d="M229,357v 5" fill="none" stroke="black"/>
<path d="M234,359v 3" fill="none" stroke="black"/>
<path d="M240,359v 3" fill="none" stroke="black"/>
<path d="M245,359v 3" fill="none" stroke="black"/>
<path d="M251,357v 5" fill="none" stroke="black"/>
<text x="31" y="368" fill="black" font-size="6" font-family="Helvetica">
0
</text>
<text x="51" y="368" fill="black" font-size="6" font-family="Helvetica">
20
</text>
<text x="72" y="368" fill="black" font-size="6" font-family="Helvetica">
40
</text>
<text x="94" y="368" fill="black" font-size="6" font-family="Helvetica">
60
</text>
<text x="116" y="368" fill="black" font-size="6" font-family="Helvetica">
80
</text>
<text x="137" y="368" fill="black" font-size="6" font-family="Helvetica">
100
</text>
<text x="158" y="368" fill="black" font-size="6" font-family="Helvetica">
120
</text>
<text x="180" y="368" fill="black" font-size="6" font-family="Helvetica">
140
</text>
<text x="202" y="368" fill="black" font-size="6" font-family="Helvetica">
160
</text>
<text x="223" y="368" fill="black" font-size="6" font-family="Helvetica">
180
</text>
<text x="245" y="368" fill="black" font-size="6" font-family="Helvetica">
200
</text>
<path d="M33,362v -148" fill="none" stroke="black"/>
<g transform="rotate(-90,20,242)">
<text x="20" y="242" fill="black" font-size="6" font-family="Helvetica">
# of entries
</text>
</g>
<path d="M39,362h -6" fill="none" stroke="black"/>
<path d="M36,356h -3" fill="none" stroke="black"/>
<path d="M36,350h -3" fill="none" stroke="black"/>
<path d="M36,344h -3" fill="none" stroke="black"/>
<path d="M39,338h -6" fill="none" stroke="black"/>
<path d="M36,332h -3" fill="none" stroke="black"/>
<path d="M36,327h -3" fill="none" stroke="black"/>
<path d="M36,321h -3" fill="none" stroke="black"/>
<path d="M39,315h -6" fill="none" stroke="black"/>
<path d="M36,309h -3" fill="none" stroke="black"/>
<path d="M36,303h -3" fill="none" stroke="black"/>
<path d="M36,297h -3" fill="none" stroke="black"/>
<path d="M39,291h -6" fill="none" stroke="black"/>
<path d="M36,286h -3" fill="none" stroke="black"/>
<path d="M36,280h -3" fill="none" stroke="black"/>
<path d="M36,274h -3" fill="none" stroke="black"/>
<path d="M39,268h -6" fill="none" stroke="black"/>
<path d="M36,262h -3" fill="none" stroke="black"/>
<path d="M36,256h -3" fill="none" stroke="black"/>
<path d="M36,250h -3" fill="none" stroke="black"/>
<path d="M39,245h -6" fill="none" stroke="black"/>
<path d="M36,239h -3" fill="none" stroke="black"/>
<path d="M36,233h -3" fill="none" stroke="black"/>
<path d="M36,227h -3" fill="none" stroke="black"/>
<path d="M39,221h -6" fill="none" stroke="black"/>
<path d="M39,221h -6" fill="none" stroke="black"/>
<path d="M36,215h -3" fill="none" stroke="black"/>
<text x="28" y="364" fill="black" font-size="6" font-family="Helvetica">
0
</text>
<text x="28" y="341" fill="black" font-size="6" font-family="Helvetica">
2
</text>
<text x="28" y="318" fill="black" font-size="6" font-family="Helvetica">
4
</text>
<text x="28" y="294" fill="black" font-size="6" font-family="Helvetica">
6
</text>
<text x="28" y="270" fill="black" font-size="6" font-family="Helvetica">
8
</text>
<text x="24" y="246" fill="black" font-size="6" font-family="Helvetica">
10
</text>
<text x="24" y="224" fill="black" font-size="6" font-family="Helvetica">
12
</text>
<rect x="218" y="208" width="54" height="29" fill="white"/>
<path d="M218,237h 54" fill="none" stroke="black"/>
<path d="M272,237v -29" fill="none" stroke="black"/>
<path d="M272,208h -54" fill="none" stroke="black"/>
<path d="M218,208v 29" fill="none" stroke="black"/>
<text x="234" y="213" fill="black" font-size="6" font-family="Helvetica">
hlength
</text>
<path d="M218,215h 54" fill="none" stroke="black"/>
<text x="220" y="221" fill="black" font-size="6" font-family="Helvetica">
Entries 
</text>
<text x="257" y="221" fill="black" font-size="6" font-family="Helvetica">
 100
</text>
<text x="220" y="228" fill="black" font-size="6" font-family="Helvetica">
Mean  
</text>
<text x="249" y="228" fill="black" font-size="6" font-family="Helvetica">
  42.85
</text>
<text x="220" y="236" fill="black" font-size="6" font-family="Helvetica">
RMS   
</text>
<text x="252" y="236" fill="black" font-size="6" font-family="Helvetica">
   19.3
</text>
<text x="101" y="206" fill="black" font-size="9" font-family="Helvetica">
length of the shower
</text>
<rect x="289" y="196" width="272" height="184" fill="white"/>
<rect x="316" y="214" width="218" height="148" fill="white"/>
<rect x="316" y="214" width="218" height="148" fill="none" stroke="black"/>
<rect x="316" y="214" width="218" height="148" fill="white"/>
<rect x="316" y="214" width="218" height="148" fill="none" stroke="black"/>
<path d="M322,360v -3" fill="none" stroke="#000099"/>
<path d="M322,357v -3" fill="none" stroke="#000099"/>
<path d="M316,357h 6" fill="none" stroke="#000099"/>
<path d="M322,357h 5" fill="none" stroke="#000099"/>
<g stroke="black" stroke-width="1" fill="none">
<line x1="321" y1="357" x2="322" y2="357"/>
</g>
<path d="M333,354v -5" fill="none" stroke="#000099"/>
<path d="M333,349v -5" fill="none" stroke="#000099"/>
<path d="M327,349h 6" fill="none" stroke="#000099"/>
<path d="M333,349h 5" fill="none" stroke="#000099"/>
<g stroke="black" stroke-width="1" fill="none">
<line x1="332" y1="349" x2="333" y2="349"/>
</g>
<path d="M344,348v -3" fill="none" stroke="#000099"/>
<path d="M344,345v -4" fill="none" stroke="#000099"/>
<path d="M338,345h 6" fill="none" stroke="#000099"/>
<path d="M344,345h 5" fill="none" stroke="#000099"/>
<g stroke="black" stroke-width="1" fill="none">
<line x1="343" y1="345" x2="344" y2="345"/>
</g>
<path d="M354,348v -9" fill="none" stroke="#000099"/>
<path d="M354,339v -9" fill="none" stroke="#000099"/>
<path d="M349,339h 5" fill="none" stroke="#000099"/>
<path d="M354,339h 6" fill="none" stroke="#000099"/>
<g stroke="black" stroke-width="1" fill="none">
<line x1="353" y1="339" x2="354" y2="339"/>
</g>
<path d="M365,347v -10" fill="none" stroke="#000099"/>
<path d="M365,337v -10" fill="none" stroke="#000099"/>
<path d="M360,337h 5" fill="none" stroke="#000099"/>
<path d="M365,337h 6" fill="none" stroke="#000099"/>
<g stroke="black" stroke-width="1" fill="none">
<line x1="364" y1="337" x2="365" y2="337"/>
</g>
<path d="M376,342v -13" fill="none" stroke="#000099"/>
<path d="M376,329v -13" fill="none" stroke="#000099"/>
<path d="M371,329h 5" fill="none" stroke="#000099"/>
<path d="M376,329h 6" fill="none" stroke="#000099"/>
<g stroke="black" stroke-width="1" fill="none">
<line x1="375" y1="329" x2="376" y2="329"/>
</g>
<path d="M387,340v -11" fill="none" stroke="#000099"/>
<path d="M387,329v -12" fill="none" stroke="#000099"/>
<path d="M382,329h 5" fill="none" stroke="#000099"/>
<path d="M387,329h 6" fill="none" stroke="#000099"/>
<g stroke="black" stroke-width="1" fill="none">
<line x1="386" y1="329" x2="387" y2="329"/>
</g>
<path d="M398,325v -6" fill="none" stroke="#000099"/>
<path d="M398,319v -6" fill="none" stroke="#000099"/>
<path d="M393,319h 5" fill="none" stroke="#000099"/>
<path d="M398,319h 5" fill="none" stroke="#000099"/>
<g stroke="black" stroke-width="1" fill="none">
<line x1="397" y1="319" x2="398" y2="319"/>
</g>
<path d="M409,319v -15" fill="none" stroke="#000099"/>
<path d="M409,304v -14" fill="none" stroke="#000099"/>
<path d="M403,304h 6" fill="none" stroke="#000099"/>
<path d="M409,304h 5" fill="none" stroke="#000099"/>
<g stroke="black" stroke-width="1" fill="none">
<line x1="408" y1="304" x2="409" y2="304"/>
</g>
<path d="M420,315v -17" fill="none" stroke="#000099"/>
<path d="M420,298v -17" fill="none" stroke="#000099"/>
<path d="M414,298h 6" fill="none" stroke="#000099"/>
<path d="M420,298h 5" fill="none" stroke="#000099"/>
<g stroke="black" stroke-width="1" fill="none">
<line x1="419" y1="298" x2="420" y2="298"/>
</g>
<path d="M431,306v -2" fill="none" stroke="#000099"/>
<path d="M431,304v -2" fill="none" stroke="#000099"/>
<path d="M425,304h 6" fill="none" stroke="#000099"/>
<path d="M431,304h 5" fill="none" stroke="#000099"/>
<g stroke="black" stroke-width="1" fill="none">
<line x1="430" y1="304" x2="431" y2="304"/>
</g>
<path d="M442,322v -17" fill="none" stroke="#000099"/>
<path d="M442,305v -16" fill="none" stroke="#000099"/>
<path d="M436,305h 6" fill="none" stroke="#000099"/>
<path d="M442,305h 5" fill="none" stroke="#000099"/>
<g stroke="black" stroke-width="1" fill="none">
<line x1="441" y1="305" x2="442" y2="305"/>
</g>
<path d="M452,296v -11" fill="none" stroke="#000099"/>
<path d="M452,285v -10" fill="none" stroke="#000099"/>
<path d="M447,285h 5" fill="none" stroke="#000099"/>
<path d="M452,285h 6" fill="none" stroke="#000099"/>
<g stroke="black" stroke-width="1" fill="none">
<line x1="451" y1="285" x2="452" y2="285"/>
</g>
<path d="M463,301v -17" fill="none" stroke="#000099"/>
<path d="M463,284v -16" fill="none" stroke="#000099"/>
<path d="M458,284h 5" fill="none" stroke="#000099"/>
<path d="M463,284h 6" fill="none" stroke="#000099"/>
<g stroke="black" stroke-width="1" fill="none">
<line x1="462" y1="284" x2="463" y2="284"/>
</g>
<path d="M474,308v -28" fill="none" stroke="#000099"/>
<path d="M474,280v -27" fill="none" stroke="#000099"/>
<path d="M469,280h 5" fill="none" stroke="#000099"/>
<path d="M474,280h 6" fill="none" stroke="#000099"/>
<g stroke="black" stroke-width="1" fill="none">
<line x1="473" y1="280" x2="474" y2="280"/>
</g>
<path d="M485,288v -11" fill="none" stroke="#000099"/>
<path d="M485,277v -12" fill="none" stroke="#000099"/>
<path d="M480,277h 5" fill="none" stroke="#000099"/>
<path d="M485,277h 6" fill="none" stroke="#000099"/>
<g stroke="black" stroke-width="1" fill="none">
<line x1="484" y1="277" x2="485" y2="277"/>
</g>
<path d="M496,295v -37" fill="none" stroke="#000099"/>
<path d="M496,258v -37" fill="none" stroke="#000099"/>
<path d="M491,258h 5" fill="none" stroke="#000099"/>
<path d="M496,258h 5" fill="none" stroke="#000099"/>
<g stroke="black" stroke-width="1" fill="none">
<line x1="495" y1="258" x2="496" y2="258"/>
</g>
<path d="M507,268v -7" fill="none" stroke="#000099"/>
<path d="M507,261v -7" fill="none" stroke="#000099"/>
<path d="M501,261h 6" fill="none" stroke="#000099"/>
<path d="M507,261h 5" fill="none" stroke="#000099"/>
<g stroke="black" stroke-width="1" fill="none">
<line x1="506" y1="261" x2="507" y2="261"/>
</g>
<path d="M518,269v -20" fill="none" stroke="#000099"/>
<path d="M518,249v -21" fill="none" stroke="#000099"/>
<path d="M512,249h 6" fill="none" stroke="#000099"/>
<path d="M518,249h 5" fill="none" stroke="#000099"/>
<g stroke="black" stroke-width="1" fill="none">
<line x1="517" y1="249" x2="518" y2="249"/>
</g>
<path d="M529,319v -34" fill="none" stroke="#000099"/>
<path d="M529,285v -35" fill="none" stroke="#000099"/>
<path d="M523,285h 6" fill="none" stroke="#000099"/>
<path d="M529,285h 5" fill="none" stroke="#000099"/>
<g stroke="black" stroke-width="1" fill="none">
<line x1="528" y1="285" x2="529" y2="285"/>
</g>
<rect x="324" y="207" width="91" height="83" fill="white"/>
<path d="M324,290h 91" fill="none" stroke="black"/>
<path d="M415,290v -83" fill="none" stroke="black"/>
<path d="M415,207h -91" fill="none" stroke="black"/>
<path d="M324,207v 83" fill="none" stroke="black"/>
<text x="357" y="215" fill="black" font-size="7" font-family="Helvetica">
hcounts
</text>
<path d="M324,215h 91" fill="none" stroke="black"/>
<text x="328" y="223" fill="black" font-size="7" font-family="Helvetica">
Entries 
</text>
<text x="396" y="223" fill="black" font-size="7" font-family="Helvetica">
 100
</text>
<text x="328" y="231" fill="black" font-size="7" font-family="Helvetica">
Mean  
</text>
<text x="389" y="231" fill="black" font-size="7" font-family="Helvetica">
  5.001
</text>
<text x="328" y="238" fill="black" font-size="7" font-family="Helvetica">
Mean y 
</text>
<text x="389" y="239" fill="black" font-size="7" font-family="Helvetica">
  358.1
</text>
<text x="328" y="247" fill="black" font-size="7" font-family="Helvetica">
RMS   
</text>
<text x="388" y="247" fill="black" font-size="7" font-family="Helvetica">
  2.858
</text>
<text x="328" y="254" fill="black" font-size="7" font-family="Helvetica">
RMS y 
</text>
<text x="388" y="255" fill="black" font-size="7" font-family="Helvetica">
  223.6
</text>
<text x="336" y="263" fill="black" font-size="7" font-family="Helvetica">
 / ndf 
</text>
<text x="332" y="261" fill="black" font-size="5" font-family="Helvetica">
2
</text>
<text x="328" y="263" fill="black" font-size="7" font-family="Times">
&#0967;
</text>
<text x="376" y="263" fill="black" font-size="7" font-family="Helvetica">
 3.723 / 18
</text>
<text x="328" y="272" fill="black" font-size="7" font-family="Helvetica">
Prob  
</text>
<text x="386" y="272" fill="black" font-size="7" font-family="Helvetica">
 0.9999
</text>
<text x="328" y="279" fill="black" font-size="7" font-family="Helvetica">
p0       
</text>
<text x="390" y="280" fill="black" font-size="7" font-family="Helvetica">
 13.59
</text>
<text x="386" y="280" fill="black" font-size="7" font-family="Times">
&#0177;
</text>
<text x="365" y="280" fill="black" font-size="7" font-family="Helvetica">
 16.31 
</text>
<text x="328" y="287" fill="black" font-size="7" font-family="Helvetica">
p1       
</text>
<text x="394" y="288" fill="black" font-size="7" font-family="Helvetica">
 3.23
</text>
<text x="390" y="288" fill="black" font-size="7" font-family="Times">
&#0177;
</text>
<text x="369" y="288" fill="black" font-size="7" font-family="Helvetica">
 67.41 
</text>
<path d="M317,359l 3, -2l 2, -1l 2, -1l 2, -1l 2, -1l 2, -1l 3, -1l 2, -1l 2, -1l 2, -1l 2, -1l 3, -1l 2, -1l 2, -1l 2, -2l 2, -1l 2, -1l 3, -1l 2, -1l 2, -1l 2, -1l 2, -1l 3, -1l 2, -1l 2, -1l 2, -1l 2, -1l 2, -1l 3, -2l 2, -1l 2, -1l 2, -1l 2, -1l
 2, -1l 3, -1l 2, -1l 2, -1l 2, -1l 2, -1l 3, -1l 2, -1l 2, -2l 2, -1l 2, -1l 2, -1l 3, -1l 2, -1l 2, -1l 2, -1" fill="none" stroke="#ff0000" stroke-width="2"/>
<path d="M424,306l 2, -1l 2, -1l 3, -1l 2, -1l 2, -1l 2, -1l 2, -2l 3, -1l 2, -1l 2, -1l 2, -1l 2, -1l 2, -1l 3, -1l 2, -1l 2, -1l 2, -1l 2, -1l 2, -1l 3, -2l 2, -1l 2, -1l 2, -1l 2, -1l 3, -1l 2, -1l 2, -1l 2, -1l 2, -1l 2, -1l 3, -1l 2, -1l 2, -1l
 2, -2l 2, -1l 2, -1l 3, -1l 2, -1l 2, -1l 2, -1l 2, -1l 3, -1l 2, -1l 2, -1l 2, -1l 2, -1l 2, -1l 3, -2l 2, -1" fill="none" stroke="#ff0000" stroke-width="2"/>
<path d="M531,253l 2, -1" fill="none" stroke="#ff0000" stroke-width="2"/>
<path d="M316,362h 218" fill="none" stroke="black"/>
<text x="500" y="374" fill="black" font-size="6" font-family="Helvetica">
energy [GeV]
</text>
<path d="M316,357v 5" fill="none" stroke="black"/>
<path d="M321,359v 3" fill="none" stroke="black"/>
<path d="M325,359v 3" fill="none" stroke="black"/>
<path d="M329,359v 3" fill="none" stroke="black"/>
<path d="M334,359v 3" fill="none" stroke="black"/>
<path d="M338,357v 5" fill="none" stroke="black"/>
<path d="M342,359v 3" fill="none" stroke="black"/>
<path d="M347,359v 3" fill="none" stroke="black"/>
<path d="M351,359v 3" fill="none" stroke="black"/>
<path d="M356,359v 3" fill="none" stroke="black"/>
<path d="M360,357v 5" fill="none" stroke="black"/>
<path d="M364,359v 3" fill="none" stroke="black"/>
<path d="M369,359v 3" fill="none" stroke="black"/>
<path d="M373,359v 3" fill="none" stroke="black"/>
<path d="M377,359v 3" fill="none" stroke="black"/>
<path d="M382,357v 5" fill="none" stroke="black"/>
<path d="M386,359v 3" fill="none" stroke="black"/>
<path d="M390,359v 3" fill="none" stroke="black"/>
<path d="M395,359v 3" fill="none" stroke="black"/>
<path d="M399,359v 3" fill="none" stroke="black"/>
<path d="M403,357v 5" fill="none" stroke="black"/>
<path d="M408,359v 3" fill="none" stroke="black"/>
<path d="M412,359v 3" fill="none" stroke="black"/>
<path d="M416,359v 3" fill="none" stroke="black"/>
<path d="M421,359v 3" fill="none" stroke="black"/>
<path d="M425,357v 5" fill="none" stroke="black"/>
<path d="M430,359v 3" fill="none" stroke="black"/>
<path d="M434,359v 3" fill="none" stroke="black"/>
<path d="M438,359v 3" fill="none" stroke="black"/>
<path d="M443,359v 3" fill="none" stroke="black"/>
<path d="M447,357v 5" fill="none" stroke="black"/>
<path d="M451,359v 3" fill="none" stroke="black"/>
<path d="M456,359v 3" fill="none" stroke="black"/>
<path d="M460,359v 3" fill="none" stroke="black"/>
<path d="M464,359v 3" fill="none" stroke="black"/>
<path d="M469,357v 5" fill="none" stroke="black"/>
<path d="M473,359v 3" fill="none" stroke="black"/>
<path d="M477,359v 3" fill="none" stroke="black"/>
<path d="M482,359v 3" fill="none" stroke="black"/>
<path d="M486,359v 3" fill="none" stroke="black"/>
<path d="M491,357v 5" fill="none" stroke="black"/>
<path d="M495,359v 3" fill="none" stroke="black"/>
<path d="M499,359v 3" fill="none" stroke="black"/>
<path d="M504,359v 3" fill="none" stroke="black"/>
<path d="M508,359v 3" fill="none" stroke="black"/>
<path d="M512,357v 5" fill="none" stroke="black"/>
<path d="M517,359v 3" fill="none" stroke="black"/>
<path d="M521,359v 3" fill="none" stroke="black"/>
<path d="M525,359v 3" fill="none" stroke="black"/>
<path d="M530,359v 3" fill="none" stroke="black"/>
<path d="M534,357v 5" fill="none" stroke="black"/>
<text x="314" y="368" fill="black" font-size="6" font-family="Helvetica">
0
</text>
<text x="336" y="368" fill="black" font-size="6" font-family="Helvetica">
1
</text>
<text x="358" y="368" fill="black" font-size="6" font-family="Helvetica">
2
</text>
<text x="380" y="368" fill="black" font-size="6" font-family="Helvetica">
3
</text>
<text x="402" y="368" fill="black" font-size="6" font-family="Helvetica">
4
</text>
<text x="424" y="368" fill="black" font-size="6" font-family="Helvetica">
5
</text>
<text x="445" y="368" fill="black" font-size="6" font-family="Helvetica">
6
</text>
<text x="467" y="368" fill="black" font-size="6" font-family="Helvetica">
7
</text>
<text x="489" y="368" fill="black" font-size="6" font-family="Helvetica">
8
</text>
<text x="510" y="368" fill="black" font-size="6" font-family="Helvetica">
9
</text>
<text x="530" y="368" fill="black" font-size="6" font-family="Helvetica">
10
</text>
<path d="M316,362v -148" fill="none" stroke="black"/>
<g transform="rotate(-90,303,274)">
<text x="303" y="274" fill="black" font-size="6" font-family="Helvetica">
mean number of counts
</text>
</g>
<path d="M323,362h -7" fill="none" stroke="black"/>
<path d="M320,359h -4" fill="none" stroke="black"/>
<path d="M320,355h -4" fill="none" stroke="black"/>
<path d="M320,352h -4" fill="none" stroke="black"/>
<path d="M320,349h -4" fill="none" stroke="black"/>
<path d="M323,346h -7" fill="none" stroke="black"/>
<path d="M320,343h -4" fill="none" stroke="black"/>
<path d="M320,339h -4" fill="none" stroke="black"/>
<path d="M320,336h -4" fill="none" stroke="black"/>
<path d="M320,333h -4" fill="none" stroke="black"/>
<path d="M323,330h -7" fill="none" stroke="black"/>
<path d="M320,327h -4" fill="none" stroke="black"/>
<path d="M320,323h -4" fill="none" stroke="black"/>
<path d="M320,320h -4" fill="none" stroke="black"/>
<path d="M320,317h -4" fill="none" stroke="black"/>
<path d="M323,314h -7" fill="none" stroke="black"/>
<path d="M320,311h -4" fill="none" stroke="black"/>
<path d="M320,308h -4" fill="none" stroke="black"/>
<path d="M320,304h -4" fill="none" stroke="black"/>
<path d="M320,301h -4" fill="none" stroke="black"/>
<path d="M323,298h -7" fill="none" stroke="black"/>
<path d="M320,295h -4" fill="none" stroke="black"/>
<path d="M320,292h -4" fill="none" stroke="black"/>
<path d="M320,288h -4" fill="none" stroke="black"/>
<path d="M320,285h -4" fill="none" stroke="black"/>
<path d="M323,282h -7" fill="none" stroke="black"/>
<path d="M320,279h -4" fill="none" stroke="black"/>
<path d="M320,276h -4" fill="none" stroke="black"/>
<path d="M320,273h -4" fill="none" stroke="black"/>
<path d="M320,269h -4" fill="none" stroke="black"/>
<path d="M323,266h -7" fill="none" stroke="black"/>
<path d="M320,263h -4" fill="none" stroke="black"/>
<path d="M320,260h -4" fill="none" stroke="black"/>
<path d="M320,257h -4" fill="none" stroke="black"/>
<path d="M320,253h -4" fill="none" stroke="black"/>
<path d="M323,250h -7" fill="none" stroke="black"/>
<path d="M320,247h -4" fill="none" stroke="black"/>
<path d="M320,244h -4" fill="none" stroke="black"/>
<path d="M320,241h -4" fill="none" stroke="black"/>
<path d="M320,237h -4" fill="none" stroke="black"/>
<path d="M323,234h -7" fill="none" stroke="black"/>
<path d="M320,231h -4" fill="none" stroke="black"/>
<path d="M320,228h -4" fill="none" stroke="black"/>
<path d="M320,225h -4" fill="none" stroke="black"/>
<path d="M320,222h -4" fill="none" stroke="black"/>
<path d="M323,218h -7" fill="none" stroke="black"/>
<path d="M323,218h -7" fill="none" stroke="black"/>
<path d="M320,215h -4" fill="none" stroke="black"/>
<text x="311" y="364" fill="black" font-size="6" font-family="Helvetica">
0
</text>
<text x="305" y="348" fill="black" font-size="6" font-family="Helvetica">
100
</text>
<text x="305" y="332" fill="black" font-size="6" font-family="Helvetica">
200
</text>
<text x="305" y="316" fill="black" font-size="6" font-family="Helvetica">
300
</text>
<text x="305" y="300" fill="black" font-size="6" font-family="Helvetica">
400
</text>
<text x="305" y="284" fill="black" font-size="6" font-family="Helvetica">
500
</text>
<text x="305" y="268" fill="black" font-size="6" font-family="Helvetica">
600
</text>
<text x="305" y="252" fill="black" font-size="6" font-family="Helvetica">
700
</text>
<text x="305" y="237" fill="black" font-size="6" font-family="Helvetica">
800
</text>
<text x="305" y="220" fill="black" font-size="6" font-family="Helvetica">
900
</text>
<rect x="324" y="207" width="91" height="83" fill="white"/>
<path d="M324,290h 91" fill="none" stroke="black"/>
<path d="M415,290v -83" fill="none" stroke="black"/>
<path d="M415,207h -91" fill="none" stroke="black"/>
<path d="M324,207v 83" fill="none" stroke="black"/>
<text x="357" y="215" fill="black" font-size="7" font-family="Helvetica">
hcounts
</text>
<path d="M324,215h 91" fill="none" stroke="black"/>
<text x="328" y="223" fill="black" font-size="7" font-family="Helvetica">
Entries 
</text>
<text x="396" y="223" fill="black" font-size="7" font-family="Helvetica">
 100
</text>
<text x="328" y="231" fill="black" font-size="7" font-family="Helvetica">
Mean  
</text>
<text x="389" y="231" fill="black" font-size="7" font-family="Helvetica">
  5.001
</text>
<text x="328" y="238" fill="black" font-size="7" font-family="Helvetica">
Mean y 
</text>
<text x="389" y="239" fill="black" font-size="7" font-family="Helvetica">
  358.1
</text>
<text x="328" y="247" fill="black" font-size="7" font-family="Helvetica">
RMS   
</text>
<text x="388" y="247" fill="black" font-size="7" font-family="Helvetica">
  2.858
</text>
<text x="328" y="254" fill="black" font-size="7" font-family="Helvetica">
RMS y 
</text>
<text x="388" y="255" fill="black" font-size="7" font-family="Helvetica">
  223.6
</text>
<text x="336" y="263" fill="black" font-size="7" font-family="Helvetica">
 / ndf 
</text>
<text x="332" y="261" fill="black" font-size="5" font-family="Helvetica">
2
</text>
<text x="328" y="263" fill="black" font-size="7" font-family="Times">
&#0967;
</text>
<text x="376" y="263" fill="black" font-size="7" font-family="Helvetica">
 3.723 / 18
</text>
<text x="328" y="272" fill="black" font-size="7" font-family="Helvetica">
Prob  
</text>
<text x="386" y="272" fill="black" font-size="7" font-family="Helvetica">
 0.9999
</text>
<text x="328" y="279" fill="black" font-size="7" font-family="Helvetica">
p0       
</text>
<text x="390" y="280" fill="black" font-size="7" font-family="Helvetica">
 13.59
</text>
<text x="386" y="280" fill="black" font-size="7" font-family="Times">
&#0177;
</text>
<text x="365" y="280" fill="black" font-size="7" font-family="Helvetica">
 16.31 
</text>
<text x="328" y="287" fill="black" font-size="7" font-family="Helvetica">
p1       
</text>
<text x="394" y="288" fill="black" font-size="7" font-family="Helvetica">
 3.23
</text>
<text x="390" y="288" fill="black" font-size="7" font-family="Times">
&#0177;
</text>
<text x="369" y="288" fill="black" font-size="7" font-family="Helvetica">
 67.41 
</text>
<text x="374" y="206" fill="black" font-size="9" font-family="Helvetica">
Counts vs particle energy
</text></svg>
