<?xml version="1.0" standalone="no"?>
<svg width="567" height="384" viewBox="0 0 567 384" xmlns="http://www.w3.org/2000/svg">
<title>
/home/ubuntuuser/geant_exercises/geant-exercises-karnivool/Exercise 7/1d distribution e-.svg
</title>
<desc>
Creator: ROOT Version 5.32/04
CreationDate: Mon Feb  5 11:08:54 2024</desc>
<defs>
</defs>
<rect x="0" y="0" width="567" height="384" fill="white"/>
<rect x="57" y="38" width="453" height="308" fill="white"/>
<rect x="57" y="38" width="453" height="308" fill="none" stroke="black"/>
<rect x="57" y="38" width="453" height="308" fill="white"/>
<rect x="57" y="38" width="453" height="308" fill="none" stroke="black"/>
<rect x="70" y="337" width="18" height="5" fill="none" stroke="#000099"/>
<rect x="75" y="326" width="9" height="2" fill="none" stroke="#000099"/>
<rect x="76" y="314" width="7" height="2" fill="none" stroke="#000099"/>
<rect x="122" y="314" width="5" height="1" fill="none" stroke="#000099"/>
<rect x="73" y="301" width="13" height="3" fill="none" stroke="#000099"/>
<rect x="122" y="302" width="5" height="1" fill="none" stroke="#000099"/>
<rect x="70" y="288" width="18" height="5" fill="none" stroke="#000099"/>
<rect x="120" y="289" width="10" height="3" fill="none" stroke="#000099"/>
<rect x="72" y="276" width="14" height="4" fill="none" stroke="#000099"/>
<rect x="118" y="276" width="14" height="4" fill="none" stroke="#000099"/>
<rect x="168" y="277" width="5" height="2" fill="none" stroke="#000099"/>
<rect x="69" y="263" width="20" height="5" fill="none" stroke="#000099"/>
<rect x="119" y="264" width="12" height="3" fill="none" stroke="#000099"/>
<rect x="165" y="264" width="10" height="3" fill="none" stroke="#000099"/>
<rect x="212" y="265" width="7" height="2" fill="none" stroke="#000099"/>
<rect x="70" y="251" width="19" height="5" fill="none" stroke="#000099"/>
<rect x="115" y="251" width="19" height="5" fill="none" stroke="#000099"/>
<rect x="164" y="252" width="13" height="3" fill="none" stroke="#000099"/>
<rect x="213" y="253" width="5" height="1" fill="none" stroke="#000099"/>
<rect x="349" y="253" width="5" height="1" fill="none" stroke="#000099"/>
<rect x="69" y="238" width="21" height="6" fill="none" stroke="#000099"/>
<rect x="114" y="238" width="22" height="6" fill="none" stroke="#000099"/>
<rect x="162" y="239" width="16" height="4" fill="none" stroke="#000099"/>
<rect x="208" y="239" width="14" height="4" fill="none" stroke="#000099"/>
<rect x="255" y="239" width="12" height="4" fill="none" stroke="#000099"/>
<rect x="303" y="240" width="7" height="2" fill="none" stroke="#000099"/>
<rect x="346" y="239" width="11" height="3" fill="none" stroke="#000099"/>
<rect x="439" y="240" width="7" height="2" fill="none" stroke="#000099"/>
<rect x="68" y="226" width="22" height="6" fill="none" stroke="#000099"/>
<rect x="111" y="225" width="27" height="7" fill="none" stroke="#000099"/>
<rect x="160" y="226" width="21" height="6" fill="none" stroke="#000099"/>
<rect x="206" y="226" width="19" height="5" fill="none" stroke="#000099"/>
<rect x="253" y="227" width="16" height="4" fill="none" stroke="#000099"/>
<rect x="300" y="227" width="13" height="3" fill="none" stroke="#000099"/>
<rect x="345" y="227" width="13" height="3" fill="none" stroke="#000099"/>
<rect x="390" y="227" width="14" height="4" fill="none" stroke="#000099"/>
<rect x="437" y="227" width="10" height="3" fill="none" stroke="#000099"/>
<rect x="485" y="228" width="5" height="1" fill="none" stroke="#000099"/>
<rect x="68" y="213" width="22" height="6" fill="none" stroke="#000099"/>
<rect x="110" y="212" width="29" height="8" fill="none" stroke="#000099"/>
<rect x="154" y="212" width="32" height="9" fill="none" stroke="#000099"/>
<rect x="201" y="213" width="28" height="7" fill="none" stroke="#000099"/>
<rect x="247" y="213" width="28" height="7" fill="none" stroke="#000099"/>
<rect x="295" y="213" width="22" height="6" fill="none" stroke="#000099"/>
<rect x="338" y="213" width="27" height="7" fill="none" stroke="#000099"/>
<rect x="386" y="213" width="22" height="6" fill="none" stroke="#000099"/>
<rect x="432" y="214" width="20" height="5" fill="none" stroke="#000099"/>
<rect x="476" y="213" width="23" height="6" fill="none" stroke="#000099"/>
<rect x="69" y="201" width="21" height="6" fill="none" stroke="#000099"/>
<rect x="112" y="201" width="26" height="7" fill="none" stroke="#000099"/>
<rect x="154" y="200" width="32" height="9" fill="none" stroke="#000099"/>
<rect x="199" y="200" width="33" height="9" fill="none" stroke="#000099"/>
<rect x="245" y="200" width="31" height="8" fill="none" stroke="#000099"/>
<rect x="287" y="199" width="38" height="10" fill="none" stroke="#000099"/>
<rect x="335" y="200" width="33" height="9" fill="none" stroke="#000099"/>
<rect x="383" y="200" width="28" height="8" fill="none" stroke="#000099"/>
<rect x="425" y="199" width="35" height="10" fill="none" stroke="#000099"/>
<rect x="471" y="200" width="33" height="9" fill="none" stroke="#000099"/>
<rect x="69" y="189" width="21" height="6" fill="none" stroke="#000099"/>
<rect x="109" y="187" width="32" height="9" fill="none" stroke="#000099"/>
<rect x="156" y="188" width="28" height="8" fill="none" stroke="#000099"/>
<rect x="198" y="187" width="35" height="9" fill="none" stroke="#000099"/>
<rect x="241" y="186" width="40" height="11" fill="none" stroke="#000099"/>
<rect x="286" y="186" width="41" height="11" fill="none" stroke="#000099"/>
<rect x="333" y="187" width="37" height="10" fill="none" stroke="#000099"/>
<rect x="374" y="186" width="46" height="12" fill="none" stroke="#000099"/>
<rect x="421" y="186" width="42" height="12" fill="none" stroke="#000099"/>
<rect x="467" y="186" width="41" height="11" fill="none" stroke="#000099"/>
<rect x="68" y="176" width="23" height="7" fill="none" stroke="#000099"/>
<rect x="110" y="175" width="29" height="8" fill="none" stroke="#000099"/>
<rect x="154" y="175" width="32" height="9" fill="none" stroke="#000099"/>
<rect x="198" y="175" width="35" height="9" fill="none" stroke="#000099"/>
<rect x="242" y="174" width="38" height="11" fill="none" stroke="#000099"/>
<rect x="287" y="174" width="38" height="11" fill="none" stroke="#000099"/>
<rect x="331" y="174" width="41" height="11" fill="none" stroke="#000099"/>
<rect x="377" y="174" width="39" height="11" fill="none" stroke="#000099"/>
<rect x="421" y="174" width="43" height="11" fill="none" stroke="#000099"/>
<rect x="466" y="174" width="43" height="11" fill="none" stroke="#000099"/>
<rect x="70" y="165" width="18" height="5" fill="none" stroke="#000099"/>
<rect x="115" y="164" width="20" height="6" fill="none" stroke="#000099"/>
<rect x="154" y="163" width="32" height="9" fill="none" stroke="#000099"/>
<rect x="198" y="163" width="35" height="9" fill="none" stroke="#000099"/>
<rect x="245" y="163" width="31" height="8" fill="none" stroke="#000099"/>
<rect x="290" y="163" width="32" height="9" fill="none" stroke="#000099"/>
<rect x="334" y="162" width="35" height="10" fill="none" stroke="#000099"/>
<rect x="379" y="162" width="36" height="10" fill="none" stroke="#000099"/>
<rect x="427" y="163" width="31" height="8" fill="none" stroke="#000099"/>
<rect x="468" y="162" width="39" height="10" fill="none" stroke="#000099"/>
<rect x="69" y="152" width="21" height="6" fill="none" stroke="#000099"/>
<rect x="114" y="152" width="21" height="6" fill="none" stroke="#000099"/>
<rect x="157" y="151" width="26" height="7" fill="none" stroke="#000099"/>
<rect x="204" y="152" width="22" height="6" fill="none" stroke="#000099"/>
<rect x="249" y="152" width="24" height="6" fill="none" stroke="#000099"/>
<rect x="295" y="152" width="22" height="6" fill="none" stroke="#000099"/>
<rect x="340" y="152" width="23" height="6" fill="none" stroke="#000099"/>
<rect x="384" y="152" width="25" height="6" fill="none" stroke="#000099"/>
<rect x="429" y="151" width="26" height="7" fill="none" stroke="#000099"/>
<rect x="476" y="152" width="23" height="6" fill="none" stroke="#000099"/>
<rect x="71" y="140" width="17" height="5" fill="none" stroke="#000099"/>
<rect x="115" y="140" width="20" height="5" fill="none" stroke="#000099"/>
<rect x="160" y="140" width="21" height="5" fill="none" stroke="#000099"/>
<rect x="205" y="140" width="21" height="5" fill="none" stroke="#000099"/>
<rect x="250" y="140" width="22" height="5" fill="none" stroke="#000099"/>
<rect x="299" y="141" width="14" height="3" fill="none" stroke="#000099"/>
<rect x="343" y="140" width="17" height="5" fill="none" stroke="#000099"/>
<rect x="389" y="140" width="16" height="5" fill="none" stroke="#000099"/>
<rect x="434" y="140" width="17" height="5" fill="none" stroke="#000099"/>
<rect x="481" y="141" width="14" height="3" fill="none" stroke="#000099"/>
<rect x="70" y="128" width="18" height="5" fill="none" stroke="#000099"/>
<rect x="117" y="128" width="16" height="4" fill="none" stroke="#000099"/>
<rect x="164" y="129" width="12" height="3" fill="none" stroke="#000099"/>
<rect x="208" y="128" width="15" height="4" fill="none" stroke="#000099"/>
<rect x="255" y="129" width="11" height="3" fill="none" stroke="#000099"/>
<rect x="301" y="129" width="11" height="3" fill="none" stroke="#000099"/>
<rect x="346" y="129" width="11" height="3" fill="none" stroke="#000099"/>
<rect x="393" y="129" width="8" height="2" fill="none" stroke="#000099"/>
<rect x="437" y="129" width="10" height="3" fill="none" stroke="#000099"/>
<rect x="73" y="116" width="12" height="4" fill="none" stroke="#000099"/>
<rect x="118" y="116" width="14" height="4" fill="none" stroke="#000099"/>
<rect x="167" y="117" width="7" height="2" fill="none" stroke="#000099"/>
<rect x="212" y="117" width="7" height="2" fill="none" stroke="#000099"/>
<rect x="255" y="116" width="11" height="3" fill="none" stroke="#000099"/>
<rect x="301" y="116" width="11" height="3" fill="none" stroke="#000099"/>
<rect x="348" y="117" width="7" height="2" fill="none" stroke="#000099"/>
<rect x="393" y="117" width="7" height="2" fill="none" stroke="#000099"/>
<rect x="73" y="104" width="13" height="3" fill="none" stroke="#000099"/>
<rect x="117" y="104" width="15" height="4" fill="none" stroke="#000099"/>
<rect x="165" y="104" width="11" height="3" fill="none" stroke="#000099"/>
<rect x="211" y="104" width="9" height="3" fill="none" stroke="#000099"/>
<rect x="257" y="105" width="7" height="2" fill="none" stroke="#000099"/>
<rect x="349" y="105" width="5" height="1" fill="none" stroke="#000099"/>
<rect x="394" y="105" width="5" height="1" fill="none" stroke="#000099"/>
<rect x="76" y="92" width="7" height="2" fill="none" stroke="#000099"/>
<rect x="167" y="92" width="7" height="2" fill="none" stroke="#000099"/>
<rect x="304" y="93" width="5" height="1" fill="none" stroke="#000099"/>
<rect x="74" y="80" width="10" height="2" fill="none" stroke="#000099"/>
<rect x="122" y="80" width="5" height="2" fill="none" stroke="#000099"/>
<rect x="76" y="68" width="7" height="2" fill="none" stroke="#000099"/>
<rect x="168" y="68" width="5" height="1" fill="none" stroke="#000099"/>
<rect x="304" y="68" width="5" height="1" fill="none" stroke="#000099"/>
<rect x="77" y="56" width="5" height="1" fill="none" stroke="#000099"/>
<rect x="121" y="55" width="7" height="2" fill="none" stroke="#000099"/>
<rect x="258" y="56" width="5" height="1" fill="none" stroke="#000099"/>
<rect x="77" y="43" width="5" height="2" fill="none" stroke="#000099"/>
<path d="M57,346h 453" fill="none" stroke="black"/>
<text x="435" y="370" fill="black" font-size="12" font-family="Helvetica">
 energy [GeV]
</text>
<path d="M57,336v 10" fill="none" stroke="black"/>
<path d="M66,341v 5" fill="none" stroke="black"/>
<path d="M75,341v 5" fill="none" stroke="black"/>
<path d="M84,341v 5" fill="none" stroke="black"/>
<path d="M93,341v 5" fill="none" stroke="black"/>
<path d="M102,336v 10" fill="none" stroke="black"/>
<path d="M111,341v 5" fill="none" stroke="black"/>
<path d="M120,341v 5" fill="none" stroke="black"/>
<path d="M129,341v 5" fill="none" stroke="black"/>
<path d="M138,341v 5" fill="none" stroke="black"/>
<path d="M147,336v 10" fill="none" stroke="black"/>
<path d="M156,341v 5" fill="none" stroke="black"/>
<path d="M166,341v 5" fill="none" stroke="black"/>
<path d="M175,341v 5" fill="none" stroke="black"/>
<path d="M184,341v 5" fill="none" stroke="black"/>
<path d="M193,336v 10" fill="none" stroke="black"/>
<path d="M202,341v 5" fill="none" stroke="black"/>
<path d="M211,341v 5" fill="none" stroke="black"/>
<path d="M220,341v 5" fill="none" stroke="black"/>
<path d="M229,341v 5" fill="none" stroke="black"/>
<path d="M238,336v 10" fill="none" stroke="black"/>
<path d="M247,341v 5" fill="none" stroke="black"/>
<path d="M256,341v 5" fill="none" stroke="black"/>
<path d="M265,341v 5" fill="none" stroke="black"/>
<path d="M274,341v 5" fill="none" stroke="black"/>
<path d="M283,336v 10" fill="none" stroke="black"/>
<path d="M293,341v 5" fill="none" stroke="black"/>
<path d="M302,341v 5" fill="none" stroke="black"/>
<path d="M311,341v 5" fill="none" stroke="black"/>
<path d="M320,341v 5" fill="none" stroke="black"/>
<path d="M329,336v 10" fill="none" stroke="black"/>
<path d="M338,341v 5" fill="none" stroke="black"/>
<path d="M347,341v 5" fill="none" stroke="black"/>
<path d="M356,341v 5" fill="none" stroke="black"/>
<path d="M365,341v 5" fill="none" stroke="black"/>
<path d="M374,336v 10" fill="none" stroke="black"/>
<path d="M383,341v 5" fill="none" stroke="black"/>
<path d="M392,341v 5" fill="none" stroke="black"/>
<path d="M401,341v 5" fill="none" stroke="black"/>
<path d="M410,341v 5" fill="none" stroke="black"/>
<path d="M420,336v 10" fill="none" stroke="black"/>
<path d="M429,341v 5" fill="none" stroke="black"/>
<path d="M438,341v 5" fill="none" stroke="black"/>
<path d="M447,341v 5" fill="none" stroke="black"/>
<path d="M456,341v 5" fill="none" stroke="black"/>
<path d="M465,336v 10" fill="none" stroke="black"/>
<path d="M474,341v 5" fill="none" stroke="black"/>
<path d="M483,341v 5" fill="none" stroke="black"/>
<path d="M492,341v 5" fill="none" stroke="black"/>
<path d="M501,341v 5" fill="none" stroke="black"/>
<path d="M510,336v 10" fill="none" stroke="black"/>
<text x="53" y="358" fill="black" font-size="12" font-family="Helvetica">
0
</text>
<text x="99" y="358" fill="black" font-size="12" font-family="Helvetica">
1
</text>
<text x="143" y="358" fill="black" font-size="12" font-family="Helvetica">
2
</text>
<text x="189" y="358" fill="black" font-size="12" font-family="Helvetica">
3
</text>
<text x="235" y="358" fill="black" font-size="12" font-family="Helvetica">
4
</text>
<text x="280" y="358" fill="black" font-size="12" font-family="Helvetica">
5
</text>
<text x="325" y="358" fill="black" font-size="12" font-family="Helvetica">
6
</text>
<text x="371" y="358" fill="black" font-size="12" font-family="Helvetica">
7
</text>
<text x="416" y="358" fill="black" font-size="12" font-family="Helvetica">
8
</text>
<text x="461" y="358" fill="black" font-size="12" font-family="Helvetica">
9
</text>
<text x="503" y="358" fill="black" font-size="12" font-family="Helvetica">
10
</text>
<path d="M57,346v -308" fill="none" stroke="black"/>
<g transform="rotate(-90,27,92)">
<text x="27" y="92" fill="black" font-size="12" font-family="Helvetica">
 response
</text>
</g>
<path d="M70,346h -13" fill="none" stroke="black"/>
<path d="M63,338h -6" fill="none" stroke="black"/>
<path d="M63,330h -6" fill="none" stroke="black"/>
<path d="M63,322h -6" fill="none" stroke="black"/>
<path d="M70,315h -13" fill="none" stroke="black"/>
<path d="M63,307h -6" fill="none" stroke="black"/>
<path d="M63,299h -6" fill="none" stroke="black"/>
<path d="M63,292h -6" fill="none" stroke="black"/>
<path d="M70,284h -13" fill="none" stroke="black"/>
<path d="M63,276h -6" fill="none" stroke="black"/>
<path d="M63,269h -6" fill="none" stroke="black"/>
<path d="M63,261h -6" fill="none" stroke="black"/>
<path d="M70,253h -13" fill="none" stroke="black"/>
<path d="M63,246h -6" fill="none" stroke="black"/>
<path d="M63,238h -6" fill="none" stroke="black"/>
<path d="M63,230h -6" fill="none" stroke="black"/>
<path d="M70,223h -13" fill="none" stroke="black"/>
<path d="M63,215h -6" fill="none" stroke="black"/>
<path d="M63,207h -6" fill="none" stroke="black"/>
<path d="M63,199h -6" fill="none" stroke="black"/>
<path d="M70,192h -13" fill="none" stroke="black"/>
<path d="M63,184h -6" fill="none" stroke="black"/>
<path d="M63,176h -6" fill="none" stroke="black"/>
<path d="M63,169h -6" fill="none" stroke="black"/>
<path d="M70,161h -13" fill="none" stroke="black"/>
<path d="M63,153h -6" fill="none" stroke="black"/>
<path d="M63,146h -6" fill="none" stroke="black"/>
<path d="M63,138h -6" fill="none" stroke="black"/>
<path d="M70,130h -13" fill="none" stroke="black"/>
<path d="M63,123h -6" fill="none" stroke="black"/>
<path d="M63,115h -6" fill="none" stroke="black"/>
<path d="M63,107h -6" fill="none" stroke="black"/>
<path d="M70,99h -13" fill="none" stroke="black"/>
<path d="M63,92h -6" fill="none" stroke="black"/>
<path d="M63,84h -6" fill="none" stroke="black"/>
<path d="M63,76h -6" fill="none" stroke="black"/>
<path d="M70,69h -13" fill="none" stroke="black"/>
<path d="M63,61h -6" fill="none" stroke="black"/>
<path d="M63,53h -6" fill="none" stroke="black"/>
<path d="M63,46h -6" fill="none" stroke="black"/>
<path d="M70,38h -13" fill="none" stroke="black"/>
<text x="47" y="350" fill="black" font-size="12" font-family="Helvetica">
0
</text>
<text x="37" y="320" fill="black" font-size="12" font-family="Helvetica">
0.2
</text>
<text x="37" y="289" fill="black" font-size="12" font-family="Helvetica">
0.4
</text>
<text x="37" y="258" fill="black" font-size="12" font-family="Helvetica">
0.6
</text>
<text x="37" y="227" fill="black" font-size="12" font-family="Helvetica">
0.8
</text>
<text x="49" y="197" fill="black" font-size="12" font-family="Helvetica">
1
</text>
<text x="37" y="166" fill="black" font-size="12" font-family="Helvetica">
1.2
</text>
<text x="37" y="135" fill="black" font-size="12" font-family="Helvetica">
1.4
</text>
<text x="37" y="104" fill="black" font-size="12" font-family="Helvetica">
1.6
</text>
<text x="37" y="73" fill="black" font-size="12" font-family="Helvetica">
1.8
</text>
<text x="47" y="43" fill="black" font-size="12" font-family="Helvetica">
2
</text>
<rect x="442" y="25" width="114" height="92" fill="white"/>
<path d="M442,117h 114" fill="none" stroke="black"/>
<path d="M556,117v -92" fill="none" stroke="black"/>
<path d="M556,25h -114" fill="none" stroke="black"/>
<path d="M442,25v 92" fill="none" stroke="black"/>
<text x="468" y="36" fill="black" font-size="13" font-family="Helvetica">
hresponse
</text>
<path d="M442,40h 114" fill="none" stroke="black"/>
<text x="447" y="52" fill="black" font-size="13" font-family="Helvetica">
Entries 
</text>
<text x="517" y="52" fill="black" font-size="13" font-family="Helvetica">
 3000
</text>
<text x="447" y="67" fill="black" font-size="13" font-family="Helvetica">
Mean x 
</text>
<text x="510" y="67" fill="black" font-size="13" font-family="Helvetica">
  5.059
</text>
<text x="447" y="82" fill="black" font-size="13" font-family="Helvetica">
Mean y 
</text>
<text x="510" y="83" fill="black" font-size="13" font-family="Helvetica">
  1.025
</text>
<text x="447" y="98" fill="black" font-size="13" font-family="Helvetica">
RMS x 
</text>
<text x="510" y="98" fill="black" font-size="13" font-family="Helvetica">
  2.854
</text>
<text x="447" y="113" fill="black" font-size="13" font-family="Helvetica">
RMS y 
</text>
<text x="507" y="114" fill="black" font-size="13" font-family="Helvetica">
 0.2187
</text>
<rect x="442" y="25" width="114" height="92" fill="white"/>
<path d="M442,117h 114" fill="none" stroke="black"/>
<path d="M556,117v -92" fill="none" stroke="black"/>
<path d="M556,25h -114" fill="none" stroke="black"/>
<path d="M442,25v 92" fill="none" stroke="black"/>
<text x="468" y="36" fill="black" font-size="13" font-family="Helvetica">
hresponse
</text>
<path d="M442,40h 114" fill="none" stroke="black"/>
<text x="447" y="52" fill="black" font-size="13" font-family="Helvetica">
Entries 
</text>
<text x="517" y="52" fill="black" font-size="13" font-family="Helvetica">
 3000
</text>
<text x="447" y="67" fill="black" font-size="13" font-family="Helvetica">
Mean x 
</text>
<text x="510" y="67" fill="black" font-size="13" font-family="Helvetica">
  5.059
</text>
<text x="447" y="82" fill="black" font-size="13" font-family="Helvetica">
Mean y 
</text>
<text x="510" y="83" fill="black" font-size="13" font-family="Helvetica">
  1.025
</text>
<text x="447" y="98" fill="black" font-size="13" font-family="Helvetica">
RMS x 
</text>
<text x="510" y="98" fill="black" font-size="13" font-family="Helvetica">
  2.854
</text>
<text x="447" y="113" fill="black" font-size="13" font-family="Helvetica">
RMS y 
</text>
<text x="507" y="114" fill="black" font-size="13" font-family="Helvetica">
 0.2187
</text>
<text x="98" y="17" fill="black" font-size="16" font-family="Helvetica">
measured energy/particle energy vs particle energy
</text></svg>
