<?xml version="1.0" standalone="no"?>
<svg width="567" height="384" viewBox="0 0 567 384" xmlns="http://www.w3.org/2000/svg">
<title>
/home/ubuntuuser/geant_exercises/geant-exercises-karnivool/Exercise 7/1d fit e- lin large cal.svg
</title>
<desc>
Creator: ROOT Version 5.32/04
CreationDate: Wed Jan 31 16:19:49 2024</desc>
<defs>
</defs>
<rect x="0" y="0" width="567" height="384" fill="white"/>
<rect x="6" y="3" width="272" height="185" fill="white"/>
<rect x="33" y="22" width="218" height="147" fill="white"/>
<rect x="33" y="22" width="218" height="147" fill="none" stroke="black"/>
<rect x="33" y="22" width="218" height="147" fill="white"/>
<rect x="33" y="22" width="218" height="147" fill="none" stroke="black"/>
<path d="M33,85h 2v -37h 2v 121h 2v -9h 3v 9h 4v -140h 2v 94h 2v -47h 2v -10h 3v 57h 2v 18h 2v 10h 2v -10h 2v 28h 9v -9h 4v 9h 3v -9h 4v 9h 168" fill="none" stroke="#000099"/>
<rect x="218" y="15" width="54" height="30" fill="white"/>
<path d="M218,45h 54" fill="none" stroke="black"/>
<path d="M272,45v -30" fill="none" stroke="black"/>
<path d="M272,15h -54" fill="none" stroke="black"/>
<path d="M218,15v 30" fill="none" stroke="black"/>
<text x="240" y="22" fill="black" font-size="6" font-family="Helvetica">
hx
</text>
<path d="M218,23h 54" fill="none" stroke="black"/>
<text x="220" y="29" fill="black" font-size="6" font-family="Helvetica">
Entries 
</text>
<text x="257" y="29" fill="black" font-size="6" font-family="Helvetica">
 100
</text>
<text x="220" y="36" fill="black" font-size="6" font-family="Helvetica">
Mean  
</text>
<text x="249" y="36" fill="black" font-size="6" font-family="Helvetica">
  1.809
</text>
<text x="220" y="44" fill="black" font-size="6" font-family="Helvetica">
RMS   
</text>
<text x="249" y="44" fill="black" font-size="6" font-family="Helvetica">
  1.225
</text>
<path d="M33,169h 218" fill="none" stroke="black"/>
<text x="200" y="182" fill="black" font-size="6" font-family="Helvetica">
x of first vertex [cm]
</text>
<path d="M33,165v 4" fill="none" stroke="black"/>
<path d="M42,167v 2" fill="none" stroke="black"/>
<path d="M50,167v 2" fill="none" stroke="black"/>
<path d="M59,167v 2" fill="none" stroke="black"/>
<path d="M68,167v 2" fill="none" stroke="black"/>
<path d="M76,165v 4" fill="none" stroke="black"/>
<path d="M85,167v 2" fill="none" stroke="black"/>
<path d="M94,167v 2" fill="none" stroke="black"/>
<path d="M103,167v 2" fill="none" stroke="black"/>
<path d="M111,167v 2" fill="none" stroke="black"/>
<path d="M120,165v 4" fill="none" stroke="black"/>
<path d="M129,167v 2" fill="none" stroke="black"/>
<path d="M137,167v 2" fill="none" stroke="black"/>
<path d="M146,167v 2" fill="none" stroke="black"/>
<path d="M155,167v 2" fill="none" stroke="black"/>
<path d="M164,165v 4" fill="none" stroke="black"/>
<path d="M172,167v 2" fill="none" stroke="black"/>
<path d="M181,167v 2" fill="none" stroke="black"/>
<path d="M190,167v 2" fill="none" stroke="black"/>
<path d="M198,167v 2" fill="none" stroke="black"/>
<path d="M207,165v 4" fill="none" stroke="black"/>
<path d="M216,167v 2" fill="none" stroke="black"/>
<path d="M224,167v 2" fill="none" stroke="black"/>
<path d="M233,167v 2" fill="none" stroke="black"/>
<path d="M242,167v 2" fill="none" stroke="black"/>
<path d="M251,165v 4" fill="none" stroke="black"/>
<text x="31" y="175" fill="black" font-size="6" font-family="Helvetica">
0
</text>
<text x="74" y="175" fill="black" font-size="6" font-family="Helvetica">
5
</text>
<text x="116" y="175" fill="black" font-size="6" font-family="Helvetica">
10
</text>
<text x="160" y="175" fill="black" font-size="6" font-family="Helvetica">
15
</text>
<text x="204" y="175" fill="black" font-size="6" font-family="Helvetica">
20
</text>
<text x="247" y="175" fill="black" font-size="6" font-family="Helvetica">
25
</text>
<path d="M33,169v -147" fill="none" stroke="black"/>
<g transform="rotate(-90,20,50)">
<text x="20" y="50" fill="black" font-size="6" font-family="Helvetica">
# of entries
</text>
</g>
<path d="M39,169h -6" fill="none" stroke="black"/>
<path d="M36,165h -3" fill="none" stroke="black"/>
<path d="M36,160h -3" fill="none" stroke="black"/>
<path d="M36,155h -3" fill="none" stroke="black"/>
<path d="M39,151h -6" fill="none" stroke="black"/>
<path d="M36,146h -3" fill="none" stroke="black"/>
<path d="M36,141h -3" fill="none" stroke="black"/>
<path d="M36,137h -3" fill="none" stroke="black"/>
<path d="M39,132h -6" fill="none" stroke="black"/>
<path d="M36,127h -3" fill="none" stroke="black"/>
<path d="M36,123h -3" fill="none" stroke="black"/>
<path d="M36,118h -3" fill="none" stroke="black"/>
<path d="M39,113h -6" fill="none" stroke="black"/>
<path d="M36,109h -3" fill="none" stroke="black"/>
<path d="M36,104h -3" fill="none" stroke="black"/>
<path d="M36,99h -3" fill="none" stroke="black"/>
<path d="M39,94h -6" fill="none" stroke="black"/>
<path d="M36,90h -3" fill="none" stroke="black"/>
<path d="M36,85h -3" fill="none" stroke="black"/>
<path d="M36,80h -3" fill="none" stroke="black"/>
<path d="M39,76h -6" fill="none" stroke="black"/>
<path d="M36,71h -3" fill="none" stroke="black"/>
<path d="M36,66h -3" fill="none" stroke="black"/>
<path d="M36,62h -3" fill="none" stroke="black"/>
<path d="M39,57h -6" fill="none" stroke="black"/>
<path d="M36,52h -3" fill="none" stroke="black"/>
<path d="M36,48h -3" fill="none" stroke="black"/>
<path d="M36,43h -3" fill="none" stroke="black"/>
<path d="M39,38h -6" fill="none" stroke="black"/>
<path d="M39,38h -6" fill="none" stroke="black"/>
<path d="M36,34h -3" fill="none" stroke="black"/>
<path d="M36,29h -3" fill="none" stroke="black"/>
<path d="M36,24h -3" fill="none" stroke="black"/>
<text x="28" y="171" fill="black" font-size="6" font-family="Helvetica">
0
</text>
<text x="28" y="153" fill="black" font-size="6" font-family="Helvetica">
2
</text>
<text x="28" y="135" fill="black" font-size="6" font-family="Helvetica">
4
</text>
<text x="28" y="115" fill="black" font-size="6" font-family="Helvetica">
6
</text>
<text x="28" y="96" fill="black" font-size="6" font-family="Helvetica">
8
</text>
<text x="24" y="78" fill="black" font-size="6" font-family="Helvetica">
10
</text>
<text x="24" y="60" fill="black" font-size="6" font-family="Helvetica">
12
</text>
<text x="24" y="41" fill="black" font-size="6" font-family="Helvetica">
14
</text>
<rect x="218" y="15" width="54" height="30" fill="white"/>
<path d="M218,45h 54" fill="none" stroke="black"/>
<path d="M272,45v -30" fill="none" stroke="black"/>
<path d="M272,15h -54" fill="none" stroke="black"/>
<path d="M218,15v 30" fill="none" stroke="black"/>
<text x="240" y="22" fill="black" font-size="6" font-family="Helvetica">
hx
</text>
<path d="M218,23h 54" fill="none" stroke="black"/>
<text x="220" y="29" fill="black" font-size="6" font-family="Helvetica">
Entries 
</text>
<text x="257" y="29" fill="black" font-size="6" font-family="Helvetica">
 100
</text>
<text x="220" y="36" fill="black" font-size="6" font-family="Helvetica">
Mean  
</text>
<text x="249" y="36" fill="black" font-size="6" font-family="Helvetica">
  1.809
</text>
<text x="220" y="44" fill="black" font-size="6" font-family="Helvetica">
RMS   
</text>
<text x="249" y="44" fill="black" font-size="6" font-family="Helvetica">
  1.225
</text>
<text x="95" y="13" fill="black" font-size="9" font-family="Helvetica">
starting point of shower
</text>
<rect x="289" y="3" width="272" height="185" fill="white"/>
<rect x="316" y="22" width="218" height="147" fill="white"/>
<rect x="316" y="22" width="218" height="147" fill="none" stroke="black"/>
<rect x="316" y="22" width="218" height="147" fill="white"/>
<rect x="316" y="22" width="218" height="147" fill="none" stroke="black"/>
<path d="M316,169h 40v -44h 4v -96h 4v 22h 5v 70h 4v 30h 4v 18h 157" fill="none" stroke="#000099"/>
<rect x="501" y="15" width="55" height="30" fill="white"/>
<path d="M501,45h 55" fill="none" stroke="black"/>
<path d="M556,45v -30" fill="none" stroke="black"/>
<path d="M556,15h -55" fill="none" stroke="black"/>
<path d="M501,15v 30" fill="none" stroke="black"/>
<text x="518" y="21" fill="black" font-size="6" font-family="Helvetica">
hwidth
</text>
<path d="M501,23h 55" fill="none" stroke="black"/>
<text x="503" y="29" fill="black" font-size="6" font-family="Helvetica">
Entries 
</text>
<text x="540" y="29" fill="black" font-size="6" font-family="Helvetica">
 100
</text>
<text x="503" y="36" fill="black" font-size="6" font-family="Helvetica">
Mean  
</text>
<text x="534" y="36" fill="black" font-size="6" font-family="Helvetica">
  5.561
</text>
<text x="503" y="44" fill="black" font-size="6" font-family="Helvetica">
RMS   
</text>
<text x="531" y="44" fill="black" font-size="6" font-family="Helvetica">
 0.4697
</text>
<path d="M316,169h 218" fill="none" stroke="black"/>
<text x="472" y="182" fill="black" font-size="6" font-family="Helvetica">
width of the shower [cm]
</text>
<path d="M316,165v 4" fill="none" stroke="black"/>
<path d="M325,167v 2" fill="none" stroke="black"/>
<path d="M334,167v 2" fill="none" stroke="black"/>
<path d="M342,167v 2" fill="none" stroke="black"/>
<path d="M351,167v 2" fill="none" stroke="black"/>
<path d="M360,165v 4" fill="none" stroke="black"/>
<path d="M369,167v 2" fill="none" stroke="black"/>
<path d="M377,167v 2" fill="none" stroke="black"/>
<path d="M386,167v 2" fill="none" stroke="black"/>
<path d="M395,167v 2" fill="none" stroke="black"/>
<path d="M403,165v 4" fill="none" stroke="black"/>
<path d="M412,167v 2" fill="none" stroke="black"/>
<path d="M421,167v 2" fill="none" stroke="black"/>
<path d="M430,167v 2" fill="none" stroke="black"/>
<path d="M438,167v 2" fill="none" stroke="black"/>
<path d="M447,165v 4" fill="none" stroke="black"/>
<path d="M456,167v 2" fill="none" stroke="black"/>
<path d="M464,167v 2" fill="none" stroke="black"/>
<path d="M473,167v 2" fill="none" stroke="black"/>
<path d="M482,167v 2" fill="none" stroke="black"/>
<path d="M491,165v 4" fill="none" stroke="black"/>
<path d="M499,167v 2" fill="none" stroke="black"/>
<path d="M508,167v 2" fill="none" stroke="black"/>
<path d="M517,167v 2" fill="none" stroke="black"/>
<path d="M525,167v 2" fill="none" stroke="black"/>
<path d="M534,165v 4" fill="none" stroke="black"/>
<text x="314" y="175" fill="black" font-size="6" font-family="Helvetica">
0
</text>
<text x="358" y="175" fill="black" font-size="6" font-family="Helvetica">
5
</text>
<text x="400" y="175" fill="black" font-size="6" font-family="Helvetica">
10
</text>
<text x="443" y="175" fill="black" font-size="6" font-family="Helvetica">
15
</text>
<text x="487" y="175" fill="black" font-size="6" font-family="Helvetica">
20
</text>
<text x="530" y="175" fill="black" font-size="6" font-family="Helvetica">
25
</text>
<path d="M316,169v -147" fill="none" stroke="black"/>
<g transform="rotate(-90,303,50)">
<text x="303" y="50" fill="black" font-size="6" font-family="Helvetica">
# of entries
</text>
</g>
<path d="M323,169h -7" fill="none" stroke="black"/>
<path d="M320,166h -4" fill="none" stroke="black"/>
<path d="M320,162h -4" fill="none" stroke="black"/>
<path d="M320,158h -4" fill="none" stroke="black"/>
<path d="M320,155h -4" fill="none" stroke="black"/>
<path d="M323,151h -7" fill="none" stroke="black"/>
<path d="M320,147h -4" fill="none" stroke="black"/>
<path d="M320,144h -4" fill="none" stroke="black"/>
<path d="M320,140h -4" fill="none" stroke="black"/>
<path d="M320,136h -4" fill="none" stroke="black"/>
<path d="M323,132h -7" fill="none" stroke="black"/>
<path d="M320,129h -4" fill="none" stroke="black"/>
<path d="M320,125h -4" fill="none" stroke="black"/>
<path d="M320,121h -4" fill="none" stroke="black"/>
<path d="M320,118h -4" fill="none" stroke="black"/>
<path d="M323,114h -7" fill="none" stroke="black"/>
<path d="M320,110h -4" fill="none" stroke="black"/>
<path d="M320,107h -4" fill="none" stroke="black"/>
<path d="M320,103h -4" fill="none" stroke="black"/>
<path d="M320,99h -4" fill="none" stroke="black"/>
<path d="M323,95h -7" fill="none" stroke="black"/>
<path d="M320,92h -4" fill="none" stroke="black"/>
<path d="M320,88h -4" fill="none" stroke="black"/>
<path d="M320,84h -4" fill="none" stroke="black"/>
<path d="M320,81h -4" fill="none" stroke="black"/>
<path d="M323,77h -7" fill="none" stroke="black"/>
<path d="M320,73h -4" fill="none" stroke="black"/>
<path d="M320,70h -4" fill="none" stroke="black"/>
<path d="M320,66h -4" fill="none" stroke="black"/>
<path d="M320,62h -4" fill="none" stroke="black"/>
<path d="M323,58h -7" fill="none" stroke="black"/>
<path d="M320,55h -4" fill="none" stroke="black"/>
<path d="M320,51h -4" fill="none" stroke="black"/>
<path d="M320,47h -4" fill="none" stroke="black"/>
<path d="M320,44h -4" fill="none" stroke="black"/>
<path d="M323,40h -7" fill="none" stroke="black"/>
<path d="M323,40h -7" fill="none" stroke="black"/>
<path d="M320,36h -4" fill="none" stroke="black"/>
<path d="M320,33h -4" fill="none" stroke="black"/>
<path d="M320,29h -4" fill="none" stroke="black"/>
<path d="M320,25h -4" fill="none" stroke="black"/>
<text x="311" y="171" fill="black" font-size="6" font-family="Helvetica">
0
</text>
<text x="311" y="153" fill="black" font-size="6" font-family="Helvetica">
5
</text>
<text x="308" y="135" fill="black" font-size="6" font-family="Helvetica">
10
</text>
<text x="308" y="116" fill="black" font-size="6" font-family="Helvetica">
15
</text>
<text x="308" y="97" fill="black" font-size="6" font-family="Helvetica">
20
</text>
<text x="308" y="79" fill="black" font-size="6" font-family="Helvetica">
25
</text>
<text x="308" y="61" fill="black" font-size="6" font-family="Helvetica">
30
</text>
<text x="308" y="42" fill="black" font-size="6" font-family="Helvetica">
35
</text>
<rect x="501" y="15" width="55" height="30" fill="white"/>
<path d="M501,45h 55" fill="none" stroke="black"/>
<path d="M556,45v -30" fill="none" stroke="black"/>
<path d="M556,15h -55" fill="none" stroke="black"/>
<path d="M501,15v 30" fill="none" stroke="black"/>
<text x="518" y="21" fill="black" font-size="6" font-family="Helvetica">
hwidth
</text>
<path d="M501,23h 55" fill="none" stroke="black"/>
<text x="503" y="29" fill="black" font-size="6" font-family="Helvetica">
Entries 
</text>
<text x="540" y="29" fill="black" font-size="6" font-family="Helvetica">
 100
</text>
<text x="503" y="36" fill="black" font-size="6" font-family="Helvetica">
Mean  
</text>
<text x="534" y="36" fill="black" font-size="6" font-family="Helvetica">
  5.561
</text>
<text x="503" y="44" fill="black" font-size="6" font-family="Helvetica">
RMS   
</text>
<text x="531" y="44" fill="black" font-size="6" font-family="Helvetica">
 0.4697
</text>
<text x="389" y="13" fill="black" font-size="8" font-family="Helvetica">
width of the shower
</text>
<rect x="6" y="196" width="272" height="184" fill="white"/>
<rect x="33" y="214" width="218" height="148" fill="white"/>
<rect x="33" y="214" width="218" height="148" fill="none" stroke="black"/>
<rect x="33" y="214" width="218" height="148" fill="white"/>
<rect x="33" y="214" width="218" height="148" fill="none" stroke="black"/>
<path d="M33,362h 48v -9h 4v 9h 4v -50h 5v -83h 4v -8h 9v 83h 4v -33h 5v 33h 8v 33h 5v -8h 4v 8h 4v 16h 5v 9h 109" fill="none" stroke="#000099"/>
<rect x="218" y="208" width="54" height="29" fill="white"/>
<path d="M218,237h 54" fill="none" stroke="black"/>
<path d="M272,237v -29" fill="none" stroke="black"/>
<path d="M272,208h -54" fill="none" stroke="black"/>
<path d="M218,208v 29" fill="none" stroke="black"/>
<text x="234" y="213" fill="black" font-size="6" font-family="Helvetica">
hlength
</text>
<path d="M218,215h 54" fill="none" stroke="black"/>
<text x="220" y="221" fill="black" font-size="6" font-family="Helvetica">
Entries 
</text>
<text x="257" y="221" fill="black" font-size="6" font-family="Helvetica">
 100
</text>
<text x="220" y="228" fill="black" font-size="6" font-family="Helvetica">
Mean  
</text>
<text x="249" y="228" fill="black" font-size="6" font-family="Helvetica">
  8.647
</text>
<text x="220" y="236" fill="black" font-size="6" font-family="Helvetica">
RMS   
</text>
<text x="249" y="236" fill="black" font-size="6" font-family="Helvetica">
  1.357
</text>
<path d="M33,362h 218" fill="none" stroke="black"/>
<text x="187" y="374" fill="black" font-size="6" font-family="Helvetica">
length of the shower [cm]
</text>
<path d="M33,357v 5" fill="none" stroke="black"/>
<path d="M42,359v 3" fill="none" stroke="black"/>
<path d="M50,359v 3" fill="none" stroke="black"/>
<path d="M59,359v 3" fill="none" stroke="black"/>
<path d="M68,359v 3" fill="none" stroke="black"/>
<path d="M76,357v 5" fill="none" stroke="black"/>
<path d="M85,359v 3" fill="none" stroke="black"/>
<path d="M94,359v 3" fill="none" stroke="black"/>
<path d="M103,359v 3" fill="none" stroke="black"/>
<path d="M111,359v 3" fill="none" stroke="black"/>
<path d="M120,357v 5" fill="none" stroke="black"/>
<path d="M129,359v 3" fill="none" stroke="black"/>
<path d="M137,359v 3" fill="none" stroke="black"/>
<path d="M146,359v 3" fill="none" stroke="black"/>
<path d="M155,359v 3" fill="none" stroke="black"/>
<path d="M164,357v 5" fill="none" stroke="black"/>
<path d="M172,359v 3" fill="none" stroke="black"/>
<path d="M181,359v 3" fill="none" stroke="black"/>
<path d="M190,359v 3" fill="none" stroke="black"/>
<path d="M198,359v 3" fill="none" stroke="black"/>
<path d="M207,357v 5" fill="none" stroke="black"/>
<path d="M216,359v 3" fill="none" stroke="black"/>
<path d="M224,359v 3" fill="none" stroke="black"/>
<path d="M233,359v 3" fill="none" stroke="black"/>
<path d="M242,359v 3" fill="none" stroke="black"/>
<path d="M251,357v 5" fill="none" stroke="black"/>
<text x="31" y="368" fill="black" font-size="6" font-family="Helvetica">
0
</text>
<text x="74" y="368" fill="black" font-size="6" font-family="Helvetica">
5
</text>
<text x="116" y="368" fill="black" font-size="6" font-family="Helvetica">
10
</text>
<text x="160" y="368" fill="black" font-size="6" font-family="Helvetica">
15
</text>
<text x="204" y="368" fill="black" font-size="6" font-family="Helvetica">
20
</text>
<text x="247" y="368" fill="black" font-size="6" font-family="Helvetica">
25
</text>
<path d="M33,362v -148" fill="none" stroke="black"/>
<g transform="rotate(-90,20,242)">
<text x="20" y="242" fill="black" font-size="6" font-family="Helvetica">
# of entries
</text>
</g>
<path d="M39,362h -6" fill="none" stroke="black"/>
<path d="M36,358h -3" fill="none" stroke="black"/>
<path d="M36,353h -3" fill="none" stroke="black"/>
<path d="M36,349h -3" fill="none" stroke="black"/>
<path d="M39,345h -6" fill="none" stroke="black"/>
<path d="M36,341h -3" fill="none" stroke="black"/>
<path d="M36,337h -3" fill="none" stroke="black"/>
<path d="M36,333h -3" fill="none" stroke="black"/>
<path d="M39,329h -6" fill="none" stroke="black"/>
<path d="M36,324h -3" fill="none" stroke="black"/>
<path d="M36,320h -3" fill="none" stroke="black"/>
<path d="M36,316h -3" fill="none" stroke="black"/>
<path d="M39,312h -6" fill="none" stroke="black"/>
<path d="M36,308h -3" fill="none" stroke="black"/>
<path d="M36,304h -3" fill="none" stroke="black"/>
<path d="M36,300h -3" fill="none" stroke="black"/>
<path d="M39,296h -6" fill="none" stroke="black"/>
<path d="M36,291h -3" fill="none" stroke="black"/>
<path d="M36,287h -3" fill="none" stroke="black"/>
<path d="M36,283h -3" fill="none" stroke="black"/>
<path d="M39,279h -6" fill="none" stroke="black"/>
<path d="M36,275h -3" fill="none" stroke="black"/>
<path d="M36,271h -3" fill="none" stroke="black"/>
<path d="M36,267h -3" fill="none" stroke="black"/>
<path d="M39,262h -6" fill="none" stroke="black"/>
<path d="M36,258h -3" fill="none" stroke="black"/>
<path d="M36,254h -3" fill="none" stroke="black"/>
<path d="M36,250h -3" fill="none" stroke="black"/>
<path d="M39,246h -6" fill="none" stroke="black"/>
<path d="M36,242h -3" fill="none" stroke="black"/>
<path d="M36,238h -3" fill="none" stroke="black"/>
<path d="M36,234h -3" fill="none" stroke="black"/>
<path d="M39,229h -6" fill="none" stroke="black"/>
<path d="M39,229h -6" fill="none" stroke="black"/>
<path d="M36,225h -3" fill="none" stroke="black"/>
<path d="M36,221h -3" fill="none" stroke="black"/>
<path d="M36,217h -3" fill="none" stroke="black"/>
<text x="28" y="364" fill="black" font-size="6" font-family="Helvetica">
0
</text>
<text x="28" y="348" fill="black" font-size="6" font-family="Helvetica">
2
</text>
<text x="28" y="332" fill="black" font-size="6" font-family="Helvetica">
4
</text>
<text x="28" y="314" fill="black" font-size="6" font-family="Helvetica">
6
</text>
<text x="28" y="298" fill="black" font-size="6" font-family="Helvetica">
8
</text>
<text x="24" y="281" fill="black" font-size="6" font-family="Helvetica">
10
</text>
<text x="24" y="265" fill="black" font-size="6" font-family="Helvetica">
12
</text>
<text x="24" y="249" fill="black" font-size="6" font-family="Helvetica">
14
</text>
<text x="24" y="232" fill="black" font-size="6" font-family="Helvetica">
16
</text>
<rect x="218" y="208" width="54" height="29" fill="white"/>
<path d="M218,237h 54" fill="none" stroke="black"/>
<path d="M272,237v -29" fill="none" stroke="black"/>
<path d="M272,208h -54" fill="none" stroke="black"/>
<path d="M218,208v 29" fill="none" stroke="black"/>
<text x="234" y="213" fill="black" font-size="6" font-family="Helvetica">
hlength
</text>
<path d="M218,215h 54" fill="none" stroke="black"/>
<text x="220" y="221" fill="black" font-size="6" font-family="Helvetica">
Entries 
</text>
<text x="257" y="221" fill="black" font-size="6" font-family="Helvetica">
 100
</text>
<text x="220" y="228" fill="black" font-size="6" font-family="Helvetica">
Mean  
</text>
<text x="249" y="228" fill="black" font-size="6" font-family="Helvetica">
  8.647
</text>
<text x="220" y="236" fill="black" font-size="6" font-family="Helvetica">
RMS   
</text>
<text x="249" y="236" fill="black" font-size="6" font-family="Helvetica">
  1.357
</text>
<text x="101" y="206" fill="black" font-size="9" font-family="Helvetica">
length of the shower
</text>
<rect x="289" y="196" width="272" height="184" fill="white"/>
<rect x="316" y="214" width="218" height="148" fill="white"/>
<rect x="316" y="214" width="218" height="148" fill="none" stroke="black"/>
<rect x="316" y="214" width="218" height="148" fill="white"/>
<rect x="316" y="214" width="218" height="148" fill="none" stroke="black"/>
<path d="M322,355v -2" fill="none" stroke="#000099"/>
<path d="M322,353v -2" fill="none" stroke="#000099"/>
<path d="M316,353h 6" fill="none" stroke="#000099"/>
<path d="M322,353h 5" fill="none" stroke="#000099"/>
<g stroke="black" stroke-width="1" fill="none">
<line x1="321" y1="353" x2="322" y2="353"/>
</g>
<path d="M333,350v -3" fill="none" stroke="#000099"/>
<path d="M333,347v -3" fill="none" stroke="#000099"/>
<path d="M327,347h 6" fill="none" stroke="#000099"/>
<path d="M333,347h 5" fill="none" stroke="#000099"/>
<g stroke="black" stroke-width="1" fill="none">
<line x1="332" y1="347" x2="333" y2="347"/>
</g>
<path d="M344,346v -5" fill="none" stroke="#000099"/>
<path d="M344,341v -4" fill="none" stroke="#000099"/>
<path d="M338,341h 6" fill="none" stroke="#000099"/>
<path d="M344,341h 5" fill="none" stroke="#000099"/>
<g stroke="black" stroke-width="1" fill="none">
<line x1="343" y1="341" x2="344" y2="341"/>
</g>
<path d="M354,341v -8" fill="none" stroke="#000099"/>
<path d="M354,333v -8" fill="none" stroke="#000099"/>
<path d="M349,333h 5" fill="none" stroke="#000099"/>
<path d="M354,333h 6" fill="none" stroke="#000099"/>
<g stroke="black" stroke-width="1" fill="none">
<line x1="353" y1="333" x2="354" y2="333"/>
</g>
<path d="M365,337v -7" fill="none" stroke="#000099"/>
<path d="M365,330v -6" fill="none" stroke="#000099"/>
<path d="M360,330h 5" fill="none" stroke="#000099"/>
<path d="M365,330h 6" fill="none" stroke="#000099"/>
<g stroke="black" stroke-width="1" fill="none">
<line x1="364" y1="330" x2="365" y2="330"/>
</g>
<path d="M376,325v -7" fill="none" stroke="#000099"/>
<path d="M376,318v -7" fill="none" stroke="#000099"/>
<path d="M371,318h 5" fill="none" stroke="#000099"/>
<path d="M376,318h 6" fill="none" stroke="#000099"/>
<g stroke="black" stroke-width="1" fill="none">
<line x1="375" y1="318" x2="376" y2="318"/>
</g>
<path d="M387,320v -6" fill="none" stroke="#000099"/>
<path d="M387,314v -5" fill="none" stroke="#000099"/>
<path d="M382,314h 5" fill="none" stroke="#000099"/>
<path d="M387,314h 6" fill="none" stroke="#000099"/>
<g stroke="black" stroke-width="1" fill="none">
<line x1="386" y1="314" x2="387" y2="314"/>
</g>
<path d="M398,316v -6" fill="none" stroke="#000099"/>
<path d="M398,310v -7" fill="none" stroke="#000099"/>
<path d="M393,310h 5" fill="none" stroke="#000099"/>
<path d="M398,310h 5" fill="none" stroke="#000099"/>
<g stroke="black" stroke-width="1" fill="none">
<line x1="397" y1="310" x2="398" y2="310"/>
</g>
<path d="M409,303v -7" fill="none" stroke="#000099"/>
<path d="M409,296v -7" fill="none" stroke="#000099"/>
<path d="M403,296h 6" fill="none" stroke="#000099"/>
<path d="M409,296h 5" fill="none" stroke="#000099"/>
<g stroke="black" stroke-width="1" fill="none">
<line x1="408" y1="296" x2="409" y2="296"/>
</g>
<path d="M420,311v -11" fill="none" stroke="#000099"/>
<path d="M420,300v -12" fill="none" stroke="#000099"/>
<path d="M414,300h 6" fill="none" stroke="#000099"/>
<path d="M420,300h 5" fill="none" stroke="#000099"/>
<g stroke="black" stroke-width="1" fill="none">
<line x1="419" y1="300" x2="420" y2="300"/>
</g>
<path d="M431,290v -7" fill="none" stroke="#000099"/>
<path d="M431,283v -6" fill="none" stroke="#000099"/>
<path d="M425,283h 6" fill="none" stroke="#000099"/>
<path d="M431,283h 5" fill="none" stroke="#000099"/>
<g stroke="black" stroke-width="1" fill="none">
<line x1="430" y1="283" x2="431" y2="283"/>
</g>
<path d="M442,299v -9" fill="none" stroke="#000099"/>
<path d="M442,290v -8" fill="none" stroke="#000099"/>
<path d="M436,290h 6" fill="none" stroke="#000099"/>
<path d="M442,290h 5" fill="none" stroke="#000099"/>
<g stroke="black" stroke-width="1" fill="none">
<line x1="441" y1="290" x2="442" y2="290"/>
</g>
<path d="M452,282v -5" fill="none" stroke="#000099"/>
<path d="M452,277v -5" fill="none" stroke="#000099"/>
<path d="M447,277h 5" fill="none" stroke="#000099"/>
<path d="M452,277h 6" fill="none" stroke="#000099"/>
<g stroke="black" stroke-width="1" fill="none">
<line x1="451" y1="277" x2="452" y2="277"/>
</g>
<path d="M463,282v -12" fill="none" stroke="#000099"/>
<path d="M463,270v -13" fill="none" stroke="#000099"/>
<path d="M458,270h 5" fill="none" stroke="#000099"/>
<path d="M463,270h 6" fill="none" stroke="#000099"/>
<g stroke="black" stroke-width="1" fill="none">
<line x1="462" y1="270" x2="463" y2="270"/>
</g>
<path d="M474,280v -14" fill="none" stroke="#000099"/>
<path d="M474,266v -13" fill="none" stroke="#000099"/>
<path d="M469,266h 5" fill="none" stroke="#000099"/>
<path d="M474,266h 6" fill="none" stroke="#000099"/>
<g stroke="black" stroke-width="1" fill="none">
<line x1="473" y1="266" x2="474" y2="266"/>
</g>
<path d="M485,273v -11" fill="none" stroke="#000099"/>
<path d="M485,262v -11" fill="none" stroke="#000099"/>
<path d="M480,262h 5" fill="none" stroke="#000099"/>
<path d="M485,262h 6" fill="none" stroke="#000099"/>
<g stroke="black" stroke-width="1" fill="none">
<line x1="484" y1="262" x2="485" y2="262"/>
</g>
<path d="M496,263v -4" fill="none" stroke="#000099"/>
<path d="M496,259v -5" fill="none" stroke="#000099"/>
<path d="M491,259h 5" fill="none" stroke="#000099"/>
<path d="M496,259h 5" fill="none" stroke="#000099"/>
<g stroke="black" stroke-width="1" fill="none">
<line x1="495" y1="259" x2="496" y2="259"/>
</g>
<path d="M507,267v -15" fill="none" stroke="#000099"/>
<path d="M507,252v -15" fill="none" stroke="#000099"/>
<path d="M501,252h 6" fill="none" stroke="#000099"/>
<path d="M507,252h 5" fill="none" stroke="#000099"/>
<g stroke="black" stroke-width="1" fill="none">
<line x1="506" y1="252" x2="507" y2="252"/>
</g>
<path d="M518,248v -2" fill="none" stroke="#000099"/>
<path d="M518,246v -1" fill="none" stroke="#000099"/>
<path d="M512,246h 6" fill="none" stroke="#000099"/>
<path d="M518,246h 5" fill="none" stroke="#000099"/>
<g stroke="black" stroke-width="1" fill="none">
<line x1="517" y1="246" x2="518" y2="246"/>
</g>
<path d="M529,238v -8" fill="none" stroke="#000099"/>
<path d="M529,230v -9" fill="none" stroke="#000099"/>
<path d="M523,230h 6" fill="none" stroke="#000099"/>
<path d="M529,230h 5" fill="none" stroke="#000099"/>
<g stroke="black" stroke-width="1" fill="none">
<line x1="528" y1="230" x2="529" y2="230"/>
</g>
<rect x="327" y="207" width="94" height="80" fill="white"/>
<path d="M327,287h 94" fill="none" stroke="black"/>
<path d="M421,287v -80" fill="none" stroke="black"/>
<path d="M421,207h -94" fill="none" stroke="black"/>
<path d="M327,207v 80" fill="none" stroke="black"/>
<text x="362" y="213" fill="black" font-size="7" font-family="Helvetica">
hcounts
</text>
<path d="M327,215h 94" fill="none" stroke="black"/>
<text x="332" y="221" fill="black" font-size="7" font-family="Helvetica">
Entries 
</text>
<text x="403" y="221" fill="black" font-size="7" font-family="Helvetica">
 100
</text>
<text x="332" y="229" fill="black" font-size="7" font-family="Helvetica">
Mean  
</text>
<text x="398" y="229" fill="black" font-size="7" font-family="Helvetica">
  5.001
</text>
<text x="332" y="237" fill="black" font-size="7" font-family="Helvetica">
Mean y 
</text>
<text x="398" y="237" fill="black" font-size="7" font-family="Helvetica">
  73.31
</text>
<text x="332" y="246" fill="black" font-size="7" font-family="Helvetica">
RMS   
</text>
<text x="396" y="246" fill="black" font-size="7" font-family="Helvetica">
  2.858
</text>
<text x="332" y="253" fill="black" font-size="7" font-family="Helvetica">
RMS y 
</text>
<text x="396" y="253" fill="black" font-size="7" font-family="Helvetica">
  43.73
</text>
<text x="339" y="262" fill="black" font-size="7" font-family="Helvetica">
 / ndf 
</text>
<text x="336" y="259" fill="black" font-size="4" font-family="Helvetica">
2
</text>
<text x="332" y="262" fill="black" font-size="7" font-family="Times">
&#0967;
</text>
<text x="385" y="261" fill="black" font-size="7" font-family="Helvetica">
 7.461 / 18
</text>
<text x="332" y="269" fill="black" font-size="7" font-family="Helvetica">
Prob  
</text>
<text x="394" y="269" fill="black" font-size="7" font-family="Helvetica">
 0.9856
</text>
<text x="332" y="277" fill="black" font-size="7" font-family="Helvetica">
p0       
</text>
<text x="394" y="277" fill="black" font-size="7" font-family="Helvetica">
 1.8828
</text>
<text x="390" y="277" fill="black" font-size="7" font-family="Times">
&#0177;
</text>
<text x="365" y="277" fill="black" font-size="7" font-family="Helvetica">
 -0.6676 
</text>
<text x="332" y="285" fill="black" font-size="7" font-family="Helvetica">
p1       
</text>
<text x="402" y="285" fill="black" font-size="7" font-family="Helvetica">
 0.31
</text>
<text x="398" y="285" fill="black" font-size="7" font-family="Times">
&#0177;
</text>
<text x="379" y="285" fill="black" font-size="7" font-family="Helvetica">
 14.36 
</text>
<path d="M317,354l 3, -1l 2, -1l 2, -1l 2, -1l 2, -1l 2, -2l 3, -1l 2, -1l 2, -1l 2, -1l 2, -2l 3, -1l 2, -1l 2, -1l 2, -1l 2, -2l 2, -1l 3, -1l 2, -1l 2, -1l 2, -1l 2, -2l 3, -1l 2, -1l 2, -1l 2, -1l 2, -2l 2, -1l 3, -1l 2, -1l 2, -1l 2, -2l 2, -1l
 2, -1l 3, -1l 2, -1l 2, -1l 2, -2l 2, -1l 3, -1l 2, -1l 2, -1l 2, -2l 2, -1l 2, -1l 3, -1l 2, -1l 2, -2l 2, -1" fill="none" stroke="#ff0000" stroke-width="2"/>
<path d="M424,296l 2, -1l 2, -1l 3, -1l 2, -1l 2, -2l 2, -1l 2, -1l 3, -1l 2, -1l 2, -2l 2, -1l 2, -1l 2, -1l 3, -1l 2, -2l 2, -1l 2, -1l 2, -1l 2, -1l 3, -1l 2, -2l 2, -1l 2, -1l 2, -1l 3, -1l 2, -2l 2, -1l 2, -1l 2, -1l 2, -1l 3, -2l 2, -1l 2, -1l
 2, -1l 2, -1l 2, -1l 3, -2l 2, -1l 2, -1l 2, -1l 2, -1l 3, -2l 2, -1l 2, -1l 2, -1l 2, -1l 2, -2l 3, -1l 2, -1" fill="none" stroke="#ff0000" stroke-width="2"/>
<path d="M531,238l 2, -1" fill="none" stroke="#ff0000" stroke-width="2"/>
<path d="M316,362h 218" fill="none" stroke="black"/>
<text x="500" y="374" fill="black" font-size="6" font-family="Helvetica">
energy [GeV]
</text>
<path d="M316,357v 5" fill="none" stroke="black"/>
<path d="M321,359v 3" fill="none" stroke="black"/>
<path d="M325,359v 3" fill="none" stroke="black"/>
<path d="M329,359v 3" fill="none" stroke="black"/>
<path d="M334,359v 3" fill="none" stroke="black"/>
<path d="M338,357v 5" fill="none" stroke="black"/>
<path d="M342,359v 3" fill="none" stroke="black"/>
<path d="M347,359v 3" fill="none" stroke="black"/>
<path d="M351,359v 3" fill="none" stroke="black"/>
<path d="M356,359v 3" fill="none" stroke="black"/>
<path d="M360,357v 5" fill="none" stroke="black"/>
<path d="M364,359v 3" fill="none" stroke="black"/>
<path d="M369,359v 3" fill="none" stroke="black"/>
<path d="M373,359v 3" fill="none" stroke="black"/>
<path d="M377,359v 3" fill="none" stroke="black"/>
<path d="M382,357v 5" fill="none" stroke="black"/>
<path d="M386,359v 3" fill="none" stroke="black"/>
<path d="M390,359v 3" fill="none" stroke="black"/>
<path d="M395,359v 3" fill="none" stroke="black"/>
<path d="M399,359v 3" fill="none" stroke="black"/>
<path d="M403,357v 5" fill="none" stroke="black"/>
<path d="M408,359v 3" fill="none" stroke="black"/>
<path d="M412,359v 3" fill="none" stroke="black"/>
<path d="M416,359v 3" fill="none" stroke="black"/>
<path d="M421,359v 3" fill="none" stroke="black"/>
<path d="M425,357v 5" fill="none" stroke="black"/>
<path d="M430,359v 3" fill="none" stroke="black"/>
<path d="M434,359v 3" fill="none" stroke="black"/>
<path d="M438,359v 3" fill="none" stroke="black"/>
<path d="M443,359v 3" fill="none" stroke="black"/>
<path d="M447,357v 5" fill="none" stroke="black"/>
<path d="M451,359v 3" fill="none" stroke="black"/>
<path d="M456,359v 3" fill="none" stroke="black"/>
<path d="M460,359v 3" fill="none" stroke="black"/>
<path d="M464,359v 3" fill="none" stroke="black"/>
<path d="M469,357v 5" fill="none" stroke="black"/>
<path d="M473,359v 3" fill="none" stroke="black"/>
<path d="M477,359v 3" fill="none" stroke="black"/>
<path d="M482,359v 3" fill="none" stroke="black"/>
<path d="M486,359v 3" fill="none" stroke="black"/>
<path d="M491,357v 5" fill="none" stroke="black"/>
<path d="M495,359v 3" fill="none" stroke="black"/>
<path d="M499,359v 3" fill="none" stroke="black"/>
<path d="M504,359v 3" fill="none" stroke="black"/>
<path d="M508,359v 3" fill="none" stroke="black"/>
<path d="M512,357v 5" fill="none" stroke="black"/>
<path d="M517,359v 3" fill="none" stroke="black"/>
<path d="M521,359v 3" fill="none" stroke="black"/>
<path d="M525,359v 3" fill="none" stroke="black"/>
<path d="M530,359v 3" fill="none" stroke="black"/>
<path d="M534,357v 5" fill="none" stroke="black"/>
<text x="314" y="368" fill="black" font-size="6" font-family="Helvetica">
0
</text>
<text x="336" y="368" fill="black" font-size="6" font-family="Helvetica">
1
</text>
<text x="358" y="368" fill="black" font-size="6" font-family="Helvetica">
2
</text>
<text x="380" y="368" fill="black" font-size="6" font-family="Helvetica">
3
</text>
<text x="402" y="368" fill="black" font-size="6" font-family="Helvetica">
4
</text>
<text x="424" y="368" fill="black" font-size="6" font-family="Helvetica">
5
</text>
<text x="445" y="368" fill="black" font-size="6" font-family="Helvetica">
6
</text>
<text x="467" y="368" fill="black" font-size="6" font-family="Helvetica">
7
</text>
<text x="489" y="368" fill="black" font-size="6" font-family="Helvetica">
8
</text>
<text x="510" y="368" fill="black" font-size="6" font-family="Helvetica">
9
</text>
<text x="530" y="368" fill="black" font-size="6" font-family="Helvetica">
10
</text>
<path d="M316,362v -148" fill="none" stroke="black"/>
<g transform="rotate(-90,303,274)">
<text x="303" y="274" fill="black" font-size="6" font-family="Helvetica">
mean number of counts
</text>
</g>
<path d="M323,355h -7" fill="none" stroke="black"/>
<path d="M320,350h -4" fill="none" stroke="black"/>
<path d="M320,346h -4" fill="none" stroke="black"/>
<path d="M320,342h -4" fill="none" stroke="black"/>
<path d="M323,338h -7" fill="none" stroke="black"/>
<path d="M320,334h -4" fill="none" stroke="black"/>
<path d="M320,330h -4" fill="none" stroke="black"/>
<path d="M320,326h -4" fill="none" stroke="black"/>
<path d="M323,321h -7" fill="none" stroke="black"/>
<path d="M320,317h -4" fill="none" stroke="black"/>
<path d="M320,313h -4" fill="none" stroke="black"/>
<path d="M320,309h -4" fill="none" stroke="black"/>
<path d="M323,305h -7" fill="none" stroke="black"/>
<path d="M320,301h -4" fill="none" stroke="black"/>
<path d="M320,297h -4" fill="none" stroke="black"/>
<path d="M320,292h -4" fill="none" stroke="black"/>
<path d="M323,288h -7" fill="none" stroke="black"/>
<path d="M320,284h -4" fill="none" stroke="black"/>
<path d="M320,280h -4" fill="none" stroke="black"/>
<path d="M320,276h -4" fill="none" stroke="black"/>
<path d="M323,272h -7" fill="none" stroke="black"/>
<path d="M320,268h -4" fill="none" stroke="black"/>
<path d="M320,264h -4" fill="none" stroke="black"/>
<path d="M320,259h -4" fill="none" stroke="black"/>
<path d="M323,255h -7" fill="none" stroke="black"/>
<path d="M320,251h -4" fill="none" stroke="black"/>
<path d="M320,247h -4" fill="none" stroke="black"/>
<path d="M320,243h -4" fill="none" stroke="black"/>
<path d="M323,239h -7" fill="none" stroke="black"/>
<path d="M320,235h -4" fill="none" stroke="black"/>
<path d="M320,230h -4" fill="none" stroke="black"/>
<path d="M320,226h -4" fill="none" stroke="black"/>
<path d="M323,222h -7" fill="none" stroke="black"/>
<path d="M323,355h -7" fill="none" stroke="black"/>
<path d="M320,359h -4" fill="none" stroke="black"/>
<path d="M323,222h -7" fill="none" stroke="black"/>
<path d="M320,218h -4" fill="none" stroke="black"/>
<text x="311" y="356" fill="black" font-size="6" font-family="Helvetica">
0
</text>
<text x="308" y="340" fill="black" font-size="6" font-family="Helvetica">
20
</text>
<text x="308" y="324" fill="black" font-size="6" font-family="Helvetica">
40
</text>
<text x="308" y="307" fill="black" font-size="6" font-family="Helvetica">
60
</text>
<text x="308" y="290" fill="black" font-size="6" font-family="Helvetica">
80
</text>
<text x="305" y="274" fill="black" font-size="6" font-family="Helvetica">
100
</text>
<text x="305" y="257" fill="black" font-size="6" font-family="Helvetica">
120
</text>
<text x="305" y="241" fill="black" font-size="6" font-family="Helvetica">
140
</text>
<text x="305" y="224" fill="black" font-size="6" font-family="Helvetica">
160
</text>
<rect x="327" y="207" width="94" height="80" fill="white"/>
<path d="M327,287h 94" fill="none" stroke="black"/>
<path d="M421,287v -80" fill="none" stroke="black"/>
<path d="M421,207h -94" fill="none" stroke="black"/>
<path d="M327,207v 80" fill="none" stroke="black"/>
<text x="362" y="213" fill="black" font-size="7" font-family="Helvetica">
hcounts
</text>
<path d="M327,215h 94" fill="none" stroke="black"/>
<text x="332" y="221" fill="black" font-size="7" font-family="Helvetica">
Entries 
</text>
<text x="403" y="221" fill="black" font-size="7" font-family="Helvetica">
 100
</text>
<text x="332" y="229" fill="black" font-size="7" font-family="Helvetica">
Mean  
</text>
<text x="398" y="229" fill="black" font-size="7" font-family="Helvetica">
  5.001
</text>
<text x="332" y="237" fill="black" font-size="7" font-family="Helvetica">
Mean y 
</text>
<text x="398" y="237" fill="black" font-size="7" font-family="Helvetica">
  73.31
</text>
<text x="332" y="246" fill="black" font-size="7" font-family="Helvetica">
RMS   
</text>
<text x="396" y="246" fill="black" font-size="7" font-family="Helvetica">
  2.858
</text>
<text x="332" y="253" fill="black" font-size="7" font-family="Helvetica">
RMS y 
</text>
<text x="396" y="253" fill="black" font-size="7" font-family="Helvetica">
  43.73
</text>
<text x="339" y="262" fill="black" font-size="7" font-family="Helvetica">
 / ndf 
</text>
<text x="336" y="259" fill="black" font-size="4" font-family="Helvetica">
2
</text>
<text x="332" y="262" fill="black" font-size="7" font-family="Times">
&#0967;
</text>
<text x="385" y="261" fill="black" font-size="7" font-family="Helvetica">
 7.461 / 18
</text>
<text x="332" y="269" fill="black" font-size="7" font-family="Helvetica">
Prob  
</text>
<text x="394" y="269" fill="black" font-size="7" font-family="Helvetica">
 0.9856
</text>
<text x="332" y="277" fill="black" font-size="7" font-family="Helvetica">
p0       
</text>
<text x="394" y="277" fill="black" font-size="7" font-family="Helvetica">
 1.8828
</text>
<text x="390" y="277" fill="black" font-size="7" font-family="Times">
&#0177;
</text>
<text x="365" y="277" fill="black" font-size="7" font-family="Helvetica">
 -0.6676 
</text>
<text x="332" y="285" fill="black" font-size="7" font-family="Helvetica">
p1       
</text>
<text x="402" y="285" fill="black" font-size="7" font-family="Helvetica">
 0.31
</text>
<text x="398" y="285" fill="black" font-size="7" font-family="Times">
&#0177;
</text>
<text x="379" y="285" fill="black" font-size="7" font-family="Helvetica">
 14.36 
</text>
<text x="374" y="206" fill="black" font-size="9" font-family="Helvetica">
Counts vs particle energy
</text></svg>
