<?xml version="1.0" standalone="no"?>
<svg width="567" height="384" viewBox="0 0 567 384" xmlns="http://www.w3.org/2000/svg">
<title>
/home/ubuntuuser/geant_exercises/geant-exercises-karnivool/Exercise 7/1d resolution fit e-.svg
</title>
<desc>
Creator: ROOT Version 5.32/04
CreationDate: Mon Feb  5 11:15:40 2024</desc>
<defs>
</defs>
<rect x="0" y="0" width="567" height="384" fill="white"/>
<rect x="57" y="38" width="453" height="308" fill="white"/>
<rect x="57" y="38" width="453" height="308" fill="none" stroke="black"/>
<rect x="57" y="38" width="453" height="308" fill="white"/>
<rect x="57" y="38" width="453" height="308" fill="none" stroke="black"/>
<path d="M79,105v -19" fill="none" stroke="#000099"/>
<path d="M79,86v -19" fill="none" stroke="#000099"/>
<path d="M57,86h 22" fill="none" stroke="#000099"/>
<path d="M79,86h 23" fill="none" stroke="#000099"/>
<g stroke="black" stroke-width="1" fill="none">
<line x1="78" y1="86" x2="79" y2="86"/>
</g>
<path d="M125,195v -13" fill="none" stroke="#000099"/>
<path d="M125,182v -13" fill="none" stroke="#000099"/>
<path d="M102,182h 23" fill="none" stroke="#000099"/>
<path d="M125,182h 22" fill="none" stroke="#000099"/>
<g stroke="black" stroke-width="1" fill="none">
<line x1="124" y1="182" x2="125" y2="182"/>
</g>
<path d="M170,254v -8" fill="none" stroke="#000099"/>
<path d="M170,246v -8" fill="none" stroke="#000099"/>
<path d="M147,246h 23" fill="none" stroke="#000099"/>
<path d="M170,246h 23" fill="none" stroke="#000099"/>
<g stroke="black" stroke-width="1" fill="none">
<line x1="169" y1="246" x2="170" y2="246"/>
</g>
<path d="M215,283v -7" fill="none" stroke="#000099"/>
<path d="M215,276v -7" fill="none" stroke="#000099"/>
<path d="M193,276h 22" fill="none" stroke="#000099"/>
<path d="M215,276h 23" fill="none" stroke="#000099"/>
<g stroke="black" stroke-width="1" fill="none">
<line x1="214" y1="276" x2="215" y2="276"/>
</g>
<path d="M261,291v -8" fill="none" stroke="#000099"/>
<path d="M261,283v -8" fill="none" stroke="#000099"/>
<path d="M238,283h 23" fill="none" stroke="#000099"/>
<path d="M261,283h 22" fill="none" stroke="#000099"/>
<g stroke="black" stroke-width="1" fill="none">
<line x1="260" y1="283" x2="261" y2="283"/>
</g>
<path d="M306,316v -6" fill="none" stroke="#000099"/>
<path d="M306,310v -6" fill="none" stroke="#000099"/>
<path d="M283,310h 23" fill="none" stroke="#000099"/>
<path d="M306,310h 23" fill="none" stroke="#000099"/>
<g stroke="black" stroke-width="1" fill="none">
<line x1="305" y1="310" x2="306" y2="310"/>
</g>
<path d="M351,303v -6" fill="none" stroke="#000099"/>
<path d="M351,297v -6" fill="none" stroke="#000099"/>
<path d="M329,297h 22" fill="none" stroke="#000099"/>
<path d="M351,297h 23" fill="none" stroke="#000099"/>
<g stroke="black" stroke-width="1" fill="none">
<line x1="350" y1="297" x2="351" y2="297"/>
</g>
<path d="M397,315v -6" fill="none" stroke="#000099"/>
<path d="M397,309v -6" fill="none" stroke="#000099"/>
<path d="M374,309h 23" fill="none" stroke="#000099"/>
<path d="M397,309h 23" fill="none" stroke="#000099"/>
<g stroke="black" stroke-width="1" fill="none">
<line x1="396" y1="309" x2="397" y2="309"/>
</g>
<path d="M442,320v -6" fill="none" stroke="#000099"/>
<path d="M442,314v -5" fill="none" stroke="#000099"/>
<path d="M420,314h 22" fill="none" stroke="#000099"/>
<path d="M442,314h 23" fill="none" stroke="#000099"/>
<g stroke="black" stroke-width="1" fill="none">
<line x1="441" y1="314" x2="442" y2="314"/>
</g>
<path d="M488,332v -4" fill="none" stroke="#000099"/>
<path d="M488,328v -4" fill="none" stroke="#000099"/>
<path d="M465,328h 23" fill="none" stroke="#000099"/>
<path d="M488,328h 22" fill="none" stroke="#000099"/>
<g stroke="black" stroke-width="1" fill="none">
<line x1="487" y1="328" x2="488" y2="328"/>
</g>
<rect x="413" y="24" width="143" height="138" fill="white"/>
<path d="M413,162h 143" fill="none" stroke="black"/>
<path d="M556,162v -138" fill="none" stroke="black"/>
<path d="M556,24h -143" fill="none" stroke="black"/>
<path d="M413,24v 138" fill="none" stroke="black"/>
<text x="441" y="36" fill="black" font-size="15" font-family="Helvetica">
hresponse_2
</text>
<path d="M413,41h 143" fill="none" stroke="black"/>
<text x="419" y="53" fill="black" font-size="10" font-family="Helvetica">
Entries 
</text>
<text x="534" y="53" fill="black" font-size="10" font-family="Helvetica">
 10
</text>
<text x="419" y="70" fill="black" font-size="10" font-family="Helvetica">
Mean  
</text>
<text x="522" y="70" fill="black" font-size="10" font-family="Helvetica">
    3.9
</text>
<text x="419" y="88" fill="black" font-size="10" font-family="Helvetica">
RMS   
</text>
<text x="516" y="88" fill="black" font-size="10" font-family="Helvetica">
  2.917
</text>
<text x="429" y="105" fill="black" font-size="10" font-family="Helvetica">
 / ndf 
</text>
<text x="425" y="101" fill="black" font-size="7" font-family="Helvetica">
2
</text>
<text x="419" y="105" fill="black" font-size="10" font-family="Times">
&#0967;
</text>
<text x="504" y="105" fill="black" font-size="10" font-family="Helvetica">
 16.35 / 8
</text>
<text x="419" y="123" fill="black" font-size="10" font-family="Helvetica">
Prob  
</text>
<text x="507" y="123" fill="black" font-size="10" font-family="Helvetica">
 0.03759
</text>
<text x="419" y="139" fill="black" font-size="10" font-family="Helvetica">
p0       
</text>
<text x="507" y="140" fill="black" font-size="10" font-family="Helvetica">
 0.00963
</text>
<text x="500" y="140" fill="black" font-size="10" font-family="Times">
&#0177;
</text>
<text x="456" y="140" fill="black" font-size="10" font-family="Helvetica">
 0.06455 
</text>
<text x="419" y="156" fill="black" font-size="10" font-family="Helvetica">
p1       
</text>
<text x="516" y="157" fill="black" font-size="10" font-family="Helvetica">
 0.0111
</text>
<text x="509" y="157" fill="black" font-size="10" font-family="Times">
&#0177;
</text>
<text x="472" y="157" fill="black" font-size="10" font-family="Helvetica">
 0.3096 
</text>
<path d="M77,38l 5, 31l 4, 28l 5, 22l 4, 18l 5, 15l 4, 12l 5, 11l 4, 10l 5, 8l 4, 8l 5, 7l 5, 6l 4, 6l 5, 5l 4, 5l 5, 4l 4, 4l 5, 4l 4, 3l 5, 4l 4, 3l 5, 3l 4, 2l 5, 3l 4, 3l 5, 2l 5, 2l 4, 2l 5, 2l 4, 2l 5, 2l 4, 2l 5, 1l 4, 2l 5, 2l 4, 1l 5, 2l 4,
 1l 5, 1l 5, 2l 4, 1l 5, 1l 4, 1l 5, 1l 4, 1l 5, 1l 4, 1l 5, 1l 4, 1" fill="none" stroke="#ff0000" stroke-width="2"/>
<path d="M299,298l 5, 1l 4, 1l 5, 1l 4, 1l 5, 1l 5, 1h 4l 5, 1l 4, 1l 5, 1h 4l 5, 1l 4, 1h 5l 4, 1l 5, 1h 4l 5, 1h 5l 4, 1h 5l 4, 1l 5, 1h 4l 5, 1h 4l 5, 1h 4l 5, 1h 9l 4, 1h 5l 5, 1h 4l 5, 1h 9l 4, 1h 5l 4, 1h 9l 5, 1h 9" fill="none"
 stroke="#ff0000" stroke-width="2"/>
<path d="M57,346h 453" fill="none" stroke="black"/>
<text x="435" y="370" fill="black" font-size="12" font-family="Helvetica">
 energy [GeV]
</text>
<path d="M57,336v 10" fill="none" stroke="black"/>
<path d="M66,341v 5" fill="none" stroke="black"/>
<path d="M75,341v 5" fill="none" stroke="black"/>
<path d="M84,341v 5" fill="none" stroke="black"/>
<path d="M93,341v 5" fill="none" stroke="black"/>
<path d="M102,336v 10" fill="none" stroke="black"/>
<path d="M111,341v 5" fill="none" stroke="black"/>
<path d="M120,341v 5" fill="none" stroke="black"/>
<path d="M129,341v 5" fill="none" stroke="black"/>
<path d="M138,341v 5" fill="none" stroke="black"/>
<path d="M147,336v 10" fill="none" stroke="black"/>
<path d="M156,341v 5" fill="none" stroke="black"/>
<path d="M166,341v 5" fill="none" stroke="black"/>
<path d="M175,341v 5" fill="none" stroke="black"/>
<path d="M184,341v 5" fill="none" stroke="black"/>
<path d="M193,336v 10" fill="none" stroke="black"/>
<path d="M202,341v 5" fill="none" stroke="black"/>
<path d="M211,341v 5" fill="none" stroke="black"/>
<path d="M220,341v 5" fill="none" stroke="black"/>
<path d="M229,341v 5" fill="none" stroke="black"/>
<path d="M238,336v 10" fill="none" stroke="black"/>
<path d="M247,341v 5" fill="none" stroke="black"/>
<path d="M256,341v 5" fill="none" stroke="black"/>
<path d="M265,341v 5" fill="none" stroke="black"/>
<path d="M274,341v 5" fill="none" stroke="black"/>
<path d="M283,336v 10" fill="none" stroke="black"/>
<path d="M293,341v 5" fill="none" stroke="black"/>
<path d="M302,341v 5" fill="none" stroke="black"/>
<path d="M311,341v 5" fill="none" stroke="black"/>
<path d="M320,341v 5" fill="none" stroke="black"/>
<path d="M329,336v 10" fill="none" stroke="black"/>
<path d="M338,341v 5" fill="none" stroke="black"/>
<path d="M347,341v 5" fill="none" stroke="black"/>
<path d="M356,341v 5" fill="none" stroke="black"/>
<path d="M365,341v 5" fill="none" stroke="black"/>
<path d="M374,336v 10" fill="none" stroke="black"/>
<path d="M383,341v 5" fill="none" stroke="black"/>
<path d="M392,341v 5" fill="none" stroke="black"/>
<path d="M401,341v 5" fill="none" stroke="black"/>
<path d="M410,341v 5" fill="none" stroke="black"/>
<path d="M420,336v 10" fill="none" stroke="black"/>
<path d="M429,341v 5" fill="none" stroke="black"/>
<path d="M438,341v 5" fill="none" stroke="black"/>
<path d="M447,341v 5" fill="none" stroke="black"/>
<path d="M456,341v 5" fill="none" stroke="black"/>
<path d="M465,336v 10" fill="none" stroke="black"/>
<path d="M474,341v 5" fill="none" stroke="black"/>
<path d="M483,341v 5" fill="none" stroke="black"/>
<path d="M492,341v 5" fill="none" stroke="black"/>
<path d="M501,341v 5" fill="none" stroke="black"/>
<path d="M510,336v 10" fill="none" stroke="black"/>
<text x="53" y="358" fill="black" font-size="12" font-family="Helvetica">
0
</text>
<text x="99" y="358" fill="black" font-size="12" font-family="Helvetica">
1
</text>
<text x="143" y="358" fill="black" font-size="12" font-family="Helvetica">
2
</text>
<text x="189" y="358" fill="black" font-size="12" font-family="Helvetica">
3
</text>
<text x="235" y="358" fill="black" font-size="12" font-family="Helvetica">
4
</text>
<text x="280" y="358" fill="black" font-size="12" font-family="Helvetica">
5
</text>
<text x="325" y="358" fill="black" font-size="12" font-family="Helvetica">
6
</text>
<text x="371" y="358" fill="black" font-size="12" font-family="Helvetica">
7
</text>
<text x="416" y="358" fill="black" font-size="12" font-family="Helvetica">
8
</text>
<text x="461" y="358" fill="black" font-size="12" font-family="Helvetica">
9
</text>
<text x="503" y="358" fill="black" font-size="12" font-family="Helvetica">
10
</text>
<path d="M57,346v -308" fill="none" stroke="black"/>
<path d="M70,339h -13" fill="none" stroke="black"/>
<path d="M63,331h -6" fill="none" stroke="black"/>
<path d="M63,322h -6" fill="none" stroke="black"/>
<path d="M63,314h -6" fill="none" stroke="black"/>
<path d="M63,306h -6" fill="none" stroke="black"/>
<path d="M70,297h -13" fill="none" stroke="black"/>
<path d="M63,289h -6" fill="none" stroke="black"/>
<path d="M63,280h -6" fill="none" stroke="black"/>
<path d="M63,272h -6" fill="none" stroke="black"/>
<path d="M63,264h -6" fill="none" stroke="black"/>
<path d="M70,255h -13" fill="none" stroke="black"/>
<path d="M63,247h -6" fill="none" stroke="black"/>
<path d="M63,239h -6" fill="none" stroke="black"/>
<path d="M63,230h -6" fill="none" stroke="black"/>
<path d="M63,222h -6" fill="none" stroke="black"/>
<path d="M70,214h -13" fill="none" stroke="black"/>
<path d="M63,205h -6" fill="none" stroke="black"/>
<path d="M63,197h -6" fill="none" stroke="black"/>
<path d="M63,189h -6" fill="none" stroke="black"/>
<path d="M63,180h -6" fill="none" stroke="black"/>
<path d="M70,172h -13" fill="none" stroke="black"/>
<path d="M63,163h -6" fill="none" stroke="black"/>
<path d="M63,155h -6" fill="none" stroke="black"/>
<path d="M63,147h -6" fill="none" stroke="black"/>
<path d="M63,138h -6" fill="none" stroke="black"/>
<path d="M70,130h -13" fill="none" stroke="black"/>
<path d="M63,122h -6" fill="none" stroke="black"/>
<path d="M63,113h -6" fill="none" stroke="black"/>
<path d="M63,105h -6" fill="none" stroke="black"/>
<path d="M63,97h -6" fill="none" stroke="black"/>
<path d="M70,88h -13" fill="none" stroke="black"/>
<path d="M63,80h -6" fill="none" stroke="black"/>
<path d="M63,71h -6" fill="none" stroke="black"/>
<path d="M63,63h -6" fill="none" stroke="black"/>
<path d="M63,55h -6" fill="none" stroke="black"/>
<path d="M70,46h -13" fill="none" stroke="black"/>
<path d="M70,339h -13" fill="none" stroke="black"/>
<path d="M70,46h -13" fill="none" stroke="black"/>
<path d="M63,38h -6" fill="none" stroke="black"/>
<text x="38" y="343" fill="black" font-size="12" font-family="Helvetica">
0.1
</text>
<text x="30" y="302" fill="black" font-size="12" font-family="Helvetica">
0.15
</text>
<text x="37" y="260" fill="black" font-size="12" font-family="Helvetica">
0.2
</text>
<text x="30" y="218" fill="black" font-size="12" font-family="Helvetica">
0.25
</text>
<text x="37" y="176" fill="black" font-size="12" font-family="Helvetica">
0.3
</text>
<text x="30" y="135" fill="black" font-size="12" font-family="Helvetica">
0.35
</text>
<text x="37" y="92" fill="black" font-size="12" font-family="Helvetica">
0.4
</text>
<text x="30" y="51" fill="black" font-size="12" font-family="Helvetica">
0.45
</text>
<rect x="413" y="24" width="143" height="138" fill="white"/>
<path d="M413,162h 143" fill="none" stroke="black"/>
<path d="M556,162v -138" fill="none" stroke="black"/>
<path d="M556,24h -143" fill="none" stroke="black"/>
<path d="M413,24v 138" fill="none" stroke="black"/>
<text x="441" y="36" fill="black" font-size="15" font-family="Helvetica">
hresponse_2
</text>
<path d="M413,41h 143" fill="none" stroke="black"/>
<text x="419" y="53" fill="black" font-size="10" font-family="Helvetica">
Entries 
</text>
<text x="534" y="53" fill="black" font-size="10" font-family="Helvetica">
 10
</text>
<text x="419" y="70" fill="black" font-size="10" font-family="Helvetica">
Mean  
</text>
<text x="522" y="70" fill="black" font-size="10" font-family="Helvetica">
    3.9
</text>
<text x="419" y="88" fill="black" font-size="10" font-family="Helvetica">
RMS   
</text>
<text x="516" y="88" fill="black" font-size="10" font-family="Helvetica">
  2.917
</text>
<text x="429" y="105" fill="black" font-size="10" font-family="Helvetica">
 / ndf 
</text>
<text x="425" y="101" fill="black" font-size="7" font-family="Helvetica">
2
</text>
<text x="419" y="105" fill="black" font-size="10" font-family="Times">
&#0967;
</text>
<text x="504" y="105" fill="black" font-size="10" font-family="Helvetica">
 16.35 / 8
</text>
<text x="419" y="123" fill="black" font-size="10" font-family="Helvetica">
Prob  
</text>
<text x="507" y="123" fill="black" font-size="10" font-family="Helvetica">
 0.03759
</text>
<text x="419" y="139" fill="black" font-size="10" font-family="Helvetica">
p0       
</text>
<text x="507" y="140" fill="black" font-size="10" font-family="Helvetica">
 0.00963
</text>
<text x="500" y="140" fill="black" font-size="10" font-family="Times">
&#0177;
</text>
<text x="456" y="140" fill="black" font-size="10" font-family="Helvetica">
 0.06455 
</text>
<text x="419" y="156" fill="black" font-size="10" font-family="Helvetica">
p1       
</text>
<text x="516" y="157" fill="black" font-size="10" font-family="Helvetica">
 0.0111
</text>
<text x="509" y="157" fill="black" font-size="10" font-family="Times">
&#0177;
</text>
<text x="472" y="157" fill="black" font-size="10" font-family="Helvetica">
 0.3096 
</text>
<text x="166" y="18" fill="black" font-size="18" font-family="Helvetica">
Fitted value of par[2]=Sigma
</text></svg>
