<?xml version="1.0" standalone="no"?>
<svg width="567" height="384" viewBox="0 0 567 384" xmlns="http://www.w3.org/2000/svg">
<title>
/home/ubuntuuser/geant_exercises/geant-exercises-karnivool/Exercise 6/3b momentum fit.svg
</title>
<desc>
Creator: ROOT Version 5.32/04
CreationDate: Wed Jan 17 16:49:04 2024</desc>
<defs>
</defs>
<rect x="0" y="0" width="567" height="384" fill="white"/>
<rect x="6" y="3" width="272" height="377" fill="white"/>
<rect x="33" y="41" width="218" height="301" fill="white"/>
<rect x="33" y="41" width="218" height="301" fill="none" stroke="black"/>
<rect x="33" y="41" width="218" height="301" fill="white"/>
<rect x="33" y="41" width="218" height="301" fill="none" stroke="black"/>
<path d="M33,342h 69v -1h 10v 1h 10v -21h 10v -207h 10v -59h 10v 257h 10v 29h 9v 1h 10v -1h 20v 1h 10v -2h 10v 2h 30" fill="none" stroke="#000099"/>
<rect x="218" y="28" width="54" height="60" fill="white"/>
<path d="M218,88h 54" fill="none" stroke="black"/>
<path d="M272,88v -60" fill="none" stroke="black"/>
<path d="M272,28h -54" fill="none" stroke="black"/>
<path d="M218,28v 60" fill="none" stroke="black"/>
<text x="238" y="38" fill="black" font-size="9" font-family="Helvetica">
hpt
</text>
<path d="M218,43h 54" fill="none" stroke="black"/>
<text x="220" y="53" fill="black" font-size="7" font-family="Helvetica">
Entries 
</text>
<text x="255" y="53" fill="black" font-size="7" font-family="Helvetica">
 500
</text>
<text x="220" y="69" fill="black" font-size="7" font-family="Helvetica">
Mean  
</text>
<text x="247" y="69" fill="black" font-size="7" font-family="Helvetica">
  5.013
</text>
<text x="220" y="83" fill="black" font-size="7" font-family="Helvetica">
RMS   
</text>
<text x="241" y="83" fill="black" font-size="7" font-family="Helvetica">
 0.08864
</text>
<path d="M33,342h 218" fill="none" stroke="black"/>
<text x="225" y="364" fill="black" font-size="9" font-family="Helvetica">
 [GeV]
</text>
<text x="221" y="369" fill="black" font-size="6" font-family="Helvetica">
T
</text>
<text x="213" y="364" fill="black" font-size="9" font-family="Helvetica">
 p
</text>
<path d="M43,333v 9" fill="none" stroke="black"/>
<path d="M53,338v 4" fill="none" stroke="black"/>
<path d="M63,338v 4" fill="none" stroke="black"/>
<path d="M72,338v 4" fill="none" stroke="black"/>
<path d="M82,338v 4" fill="none" stroke="black"/>
<path d="M92,333v 9" fill="none" stroke="black"/>
<path d="M102,338v 4" fill="none" stroke="black"/>
<path d="M112,338v 4" fill="none" stroke="black"/>
<path d="M122,338v 4" fill="none" stroke="black"/>
<path d="M132,338v 4" fill="none" stroke="black"/>
<path d="M142,333v 9" fill="none" stroke="black"/>
<path d="M152,338v 4" fill="none" stroke="black"/>
<path d="M162,338v 4" fill="none" stroke="black"/>
<path d="M171,338v 4" fill="none" stroke="black"/>
<path d="M181,338v 4" fill="none" stroke="black"/>
<path d="M191,333v 9" fill="none" stroke="black"/>
<path d="M201,338v 4" fill="none" stroke="black"/>
<path d="M211,338v 4" fill="none" stroke="black"/>
<path d="M221,338v 4" fill="none" stroke="black"/>
<path d="M231,338v 4" fill="none" stroke="black"/>
<path d="M241,333v 9" fill="none" stroke="black"/>
<path d="M43,333v 9" fill="none" stroke="black"/>
<path d="M33,338v 4" fill="none" stroke="black"/>
<path d="M241,333v 9" fill="none" stroke="black"/>
<text x="40" y="355" fill="black" font-size="9" font-family="Helvetica">
4
</text>
<text x="86" y="355" fill="black" font-size="9" font-family="Helvetica">
4.5
</text>
<text x="139" y="355" fill="black" font-size="9" font-family="Helvetica">
5
</text>
<text x="184" y="355" fill="black" font-size="9" font-family="Helvetica">
5.5
</text>
<text x="238" y="355" fill="black" font-size="9" font-family="Helvetica">
6
</text>
<path d="M33,342v -301" fill="none" stroke="black"/>
<path d="M39,342h -6" fill="none" stroke="black"/>
<path d="M36,331h -3" fill="none" stroke="black"/>
<path d="M36,319h -3" fill="none" stroke="black"/>
<path d="M36,307h -3" fill="none" stroke="black"/>
<path d="M36,295h -3" fill="none" stroke="black"/>
<path d="M39,283h -6" fill="none" stroke="black"/>
<path d="M36,272h -3" fill="none" stroke="black"/>
<path d="M36,260h -3" fill="none" stroke="black"/>
<path d="M36,248h -3" fill="none" stroke="black"/>
<path d="M36,236h -3" fill="none" stroke="black"/>
<path d="M39,224h -6" fill="none" stroke="black"/>
<path d="M36,213h -3" fill="none" stroke="black"/>
<path d="M36,201h -3" fill="none" stroke="black"/>
<path d="M36,189h -3" fill="none" stroke="black"/>
<path d="M36,177h -3" fill="none" stroke="black"/>
<path d="M39,165h -6" fill="none" stroke="black"/>
<path d="M36,153h -3" fill="none" stroke="black"/>
<path d="M36,142h -3" fill="none" stroke="black"/>
<path d="M36,130h -3" fill="none" stroke="black"/>
<path d="M36,118h -3" fill="none" stroke="black"/>
<path d="M39,106h -6" fill="none" stroke="black"/>
<path d="M36,94h -3" fill="none" stroke="black"/>
<path d="M36,83h -3" fill="none" stroke="black"/>
<path d="M36,71h -3" fill="none" stroke="black"/>
<path d="M36,59h -3" fill="none" stroke="black"/>
<path d="M39,47h -6" fill="none" stroke="black"/>
<path d="M39,47h -6" fill="none" stroke="black"/>
<text x="26" y="346" fill="black" font-size="9" font-family="Helvetica">
0
</text>
<text x="21" y="286" fill="black" font-size="9" font-family="Helvetica">
50
</text>
<text x="16" y="227" fill="black" font-size="9" font-family="Helvetica">
100
</text>
<text x="16" y="168" fill="black" font-size="9" font-family="Helvetica">
150
</text>
<text x="16" y="109" fill="black" font-size="9" font-family="Helvetica">
200
</text>
<text x="16" y="50" fill="black" font-size="9" font-family="Helvetica">
250
</text>
<rect x="218" y="28" width="54" height="60" fill="white"/>
<path d="M218,88h 54" fill="none" stroke="black"/>
<path d="M272,88v -60" fill="none" stroke="black"/>
<path d="M272,28h -54" fill="none" stroke="black"/>
<path d="M218,28v 60" fill="none" stroke="black"/>
<text x="238" y="38" fill="black" font-size="9" font-family="Helvetica">
hpt
</text>
<path d="M218,43h 54" fill="none" stroke="black"/>
<text x="220" y="53" fill="black" font-size="7" font-family="Helvetica">
Entries 
</text>
<text x="255" y="53" fill="black" font-size="7" font-family="Helvetica">
 500
</text>
<text x="220" y="69" fill="black" font-size="7" font-family="Helvetica">
Mean  
</text>
<text x="247" y="69" fill="black" font-size="7" font-family="Helvetica">
  5.013
</text>
<text x="220" y="83" fill="black" font-size="7" font-family="Helvetica">
RMS   
</text>
<text x="241" y="83" fill="black" font-size="7" font-family="Helvetica">
 0.08864
</text>
<rect x="289" y="3" width="272" height="377" fill="white"/>
<rect x="316" y="41" width="218" height="301" fill="white"/>
<rect x="316" y="41" width="218" height="301" fill="none" stroke="black"/>
<rect x="316" y="41" width="218" height="301" fill="white"/>
<rect x="316" y="41" width="218" height="301" fill="none" stroke="black"/>
<path d="M316,342h 3v -23h 2v 23h 4v -23h 2v 23h 24v -23h 2v 23h 20v -23h 2v 23h 11v -23h 2v 23h 2v -23h 3v 23h 6v -23h 4v -72h 5v -72h 2v 72h 4v -24h 2v -144h 3v 168h 2v -24h 2v -48h 2v -96h 2v 48h 3v -72h 2v 192h 2v -96h 2v 48h 2v -24h 2v 24h 3v
 72h 6v -24h 2v 95h 2v -95h 3v 95h 2v -23h 2v 23h 2v -23h 2v 23h 3v -23h 2v 23h 22v -23h 2v 23h 17v -23h 4v 23h 5v -23h 2v 23h 13" fill="none" stroke="#000099"/>
<rect x="501" y="28" width="55" height="60" fill="white"/>
<path d="M501,88h 55" fill="none" stroke="black"/>
<path d="M556,88v -60" fill="none" stroke="black"/>
<path d="M556,28h -55" fill="none" stroke="black"/>
<path d="M501,28v 60" fill="none" stroke="black"/>
<text x="515" y="38" fill="black" font-size="9" font-family="Helvetica">
hptpull
</text>
<path d="M501,43h 55" fill="none" stroke="black"/>
<text x="503" y="53" fill="black" font-size="8" font-family="Helvetica">
Entries 
</text>
<text x="538" y="53" fill="black" font-size="8" font-family="Helvetica">
 500
</text>
<text x="503" y="69" fill="black" font-size="8" font-family="Helvetica">
Mean  
</text>
<text x="527" y="69" fill="black" font-size="8" font-family="Helvetica">
 0.1981
</text>
<text x="503" y="83" fill="black" font-size="8" font-family="Helvetica">
RMS   
</text>
<text x="529" y="84" fill="black" font-size="8" font-family="Helvetica">
  2.221
</text>
<path d="M316,342h 218" fill="none" stroke="black"/>
<text x="528" y="364" fill="black" font-size="9" font-family="Times">
&#0963;
</text>
<text x="522" y="364" fill="black" font-size="9" font-family="Helvetica">
)/
</text>
<text x="512" y="361" fill="black" font-size="6" font-family="Helvetica">
true
</text>
<text x="512" y="370" fill="black" font-size="6" font-family="Helvetica">
T
</text>
<text x="499" y="364" fill="black" font-size="9" font-family="Helvetica">
 - p
</text>
<text x="485" y="360" fill="black" font-size="6" font-family="Helvetica">
meas
</text>
<text x="485" y="370" fill="black" font-size="6" font-family="Helvetica">
T
</text>
<text x="475" y="364" fill="black" font-size="9" font-family="Helvetica">
 (p
</text>
<path d="M316,333v 9" fill="none" stroke="black"/>
<path d="M322,338v 4" fill="none" stroke="black"/>
<path d="M327,338v 4" fill="none" stroke="black"/>
<path d="M333,338v 4" fill="none" stroke="black"/>
<path d="M338,333v 9" fill="none" stroke="black"/>
<path d="M344,338v 4" fill="none" stroke="black"/>
<path d="M349,338v 4" fill="none" stroke="black"/>
<path d="M354,338v 4" fill="none" stroke="black"/>
<path d="M360,333v 9" fill="none" stroke="black"/>
<path d="M365,338v 4" fill="none" stroke="black"/>
<path d="M371,338v 4" fill="none" stroke="black"/>
<path d="M376,338v 4" fill="none" stroke="black"/>
<path d="M382,333v 9" fill="none" stroke="black"/>
<path d="M387,338v 4" fill="none" stroke="black"/>
<path d="M393,338v 4" fill="none" stroke="black"/>
<path d="M398,338v 4" fill="none" stroke="black"/>
<path d="M403,333v 9" fill="none" stroke="black"/>
<path d="M409,338v 4" fill="none" stroke="black"/>
<path d="M414,338v 4" fill="none" stroke="black"/>
<path d="M420,338v 4" fill="none" stroke="black"/>
<path d="M425,333v 9" fill="none" stroke="black"/>
<path d="M431,338v 4" fill="none" stroke="black"/>
<path d="M436,338v 4" fill="none" stroke="black"/>
<path d="M442,338v 4" fill="none" stroke="black"/>
<path d="M447,333v 9" fill="none" stroke="black"/>
<path d="M452,338v 4" fill="none" stroke="black"/>
<path d="M458,338v 4" fill="none" stroke="black"/>
<path d="M463,338v 4" fill="none" stroke="black"/>
<path d="M469,333v 9" fill="none" stroke="black"/>
<path d="M474,338v 4" fill="none" stroke="black"/>
<path d="M480,338v 4" fill="none" stroke="black"/>
<path d="M485,338v 4" fill="none" stroke="black"/>
<path d="M491,333v 9" fill="none" stroke="black"/>
<path d="M496,338v 4" fill="none" stroke="black"/>
<path d="M501,338v 4" fill="none" stroke="black"/>
<path d="M507,338v 4" fill="none" stroke="black"/>
<path d="M512,333v 9" fill="none" stroke="black"/>
<path d="M518,338v 4" fill="none" stroke="black"/>
<path d="M523,338v 4" fill="none" stroke="black"/>
<path d="M529,338v 4" fill="none" stroke="black"/>
<path d="M534,333v 9" fill="none" stroke="black"/>
<text x="310" y="355" fill="black" font-size="9" font-family="Helvetica">
-10
</text>
<text x="334" y="355" fill="black" font-size="9" font-family="Helvetica">
-8
</text>
<text x="355" y="355" fill="black" font-size="9" font-family="Helvetica">
-6
</text>
<text x="377" y="355" fill="black" font-size="9" font-family="Helvetica">
-4
</text>
<text x="399" y="355" fill="black" font-size="9" font-family="Helvetica">
-2
</text>
<text x="423" y="355" fill="black" font-size="9" font-family="Helvetica">
0
</text>
<text x="444" y="355" fill="black" font-size="9" font-family="Helvetica">
2
</text>
<text x="466" y="355" fill="black" font-size="9" font-family="Helvetica">
4
</text>
<text x="488" y="355" fill="black" font-size="9" font-family="Helvetica">
6
</text>
<text x="509" y="355" fill="black" font-size="9" font-family="Helvetica">
8
</text>
<text x="529" y="355" fill="black" font-size="9" font-family="Helvetica">
10
</text>
<path d="M316,342v -301" fill="none" stroke="black"/>
<path d="M323,342h -7" fill="none" stroke="black"/>
<path d="M320,331h -4" fill="none" stroke="black"/>
<path d="M320,319h -4" fill="none" stroke="black"/>
<path d="M320,307h -4" fill="none" stroke="black"/>
<path d="M323,295h -7" fill="none" stroke="black"/>
<path d="M320,283h -4" fill="none" stroke="black"/>
<path d="M320,271h -4" fill="none" stroke="black"/>
<path d="M320,259h -4" fill="none" stroke="black"/>
<path d="M323,247h -7" fill="none" stroke="black"/>
<path d="M320,235h -4" fill="none" stroke="black"/>
<path d="M320,223h -4" fill="none" stroke="black"/>
<path d="M320,211h -4" fill="none" stroke="black"/>
<path d="M323,199h -7" fill="none" stroke="black"/>
<path d="M320,187h -4" fill="none" stroke="black"/>
<path d="M320,175h -4" fill="none" stroke="black"/>
<path d="M320,163h -4" fill="none" stroke="black"/>
<path d="M323,151h -7" fill="none" stroke="black"/>
<path d="M320,139h -4" fill="none" stroke="black"/>
<path d="M320,127h -4" fill="none" stroke="black"/>
<path d="M320,115h -4" fill="none" stroke="black"/>
<path d="M323,103h -7" fill="none" stroke="black"/>
<path d="M320,91h -4" fill="none" stroke="black"/>
<path d="M320,79h -4" fill="none" stroke="black"/>
<path d="M320,67h -4" fill="none" stroke="black"/>
<path d="M323,55h -7" fill="none" stroke="black"/>
<path d="M323,55h -7" fill="none" stroke="black"/>
<path d="M320,43h -4" fill="none" stroke="black"/>
<text x="310" y="346" fill="black" font-size="9" font-family="Helvetica">
0
</text>
<text x="310" y="298" fill="black" font-size="9" font-family="Helvetica">
2
</text>
<text x="310" y="250" fill="black" font-size="9" font-family="Helvetica">
4
</text>
<text x="310" y="202" fill="black" font-size="9" font-family="Helvetica">
6
</text>
<text x="310" y="154" fill="black" font-size="9" font-family="Helvetica">
8
</text>
<text x="305" y="106" fill="black" font-size="9" font-family="Helvetica">
10
</text>
<text x="305" y="59" fill="black" font-size="9" font-family="Helvetica">
12
</text>
<rect x="501" y="28" width="55" height="60" fill="white"/>
<path d="M501,88h 55" fill="none" stroke="black"/>
<path d="M556,88v -60" fill="none" stroke="black"/>
<path d="M556,28h -55" fill="none" stroke="black"/>
<path d="M501,28v 60" fill="none" stroke="black"/>
<text x="515" y="38" fill="black" font-size="9" font-family="Helvetica">
hptpull
</text>
<path d="M501,43h 55" fill="none" stroke="black"/>
<text x="503" y="53" fill="black" font-size="8" font-family="Helvetica">
Entries 
</text>
<text x="538" y="53" fill="black" font-size="8" font-family="Helvetica">
 500
</text>
<text x="503" y="69" fill="black" font-size="8" font-family="Helvetica">
Mean  
</text>
<text x="527" y="69" fill="black" font-size="8" font-family="Helvetica">
 0.1981
</text>
<text x="503" y="83" fill="black" font-size="8" font-family="Helvetica">
RMS   
</text>
<text x="529" y="84" fill="black" font-size="8" font-family="Helvetica">
  2.221
</text></svg>
