<?xml version="1.0" standalone="no"?>
<svg width="567" height="384" viewBox="0 0 567 384" xmlns="http://www.w3.org/2000/svg">
<title>
/home/ubuntuuser/geant_exercises/geant-exercises-karnivool/Exercise 6/5a momentum fit 15.svg
</title>
<desc>
Creator: ROOT Version 5.32/04
CreationDate: Wed Jan 24 16:17:44 2024</desc>
<defs>
</defs>
<rect x="0" y="0" width="567" height="384" fill="white"/>
<rect x="57" y="38" width="453" height="308" fill="white"/>
<rect x="57" y="38" width="453" height="308" fill="none" stroke="black"/>
<rect x="57" y="38" width="453" height="308" fill="white"/>
<rect x="57" y="38" width="453" height="308" fill="none" stroke="black"/>
<path d="M57,346h 149v -6h 5v 6h 14v -12h 9v 6h 4v -6h 5v -34h 9v -23h 4v -52h 5v 34h 4v -63h 5v 29h 4v -167h 5v 121h 4v -126h 5v 74h 14v 98h 4v -46h 5v 109h 4v -57h 5v 51h 4v 18h 5v 17h 4v 11h 5v -5h 4v 11h 5v 12h 4v -6h 23v 6h 9v -6h 5v 6h 59v -6h
 4v 6h 55v -6h 4" fill="none" stroke="#000099"/>
<rect x="387" y="24" width="169" height="160" fill="white"/>
<path d="M387,184h 169" fill="none" stroke="black"/>
<path d="M556,184v -160" fill="none" stroke="black"/>
<path d="M556,24h -169" fill="none" stroke="black"/>
<path d="M387,24v 160" fill="none" stroke="black"/>
<text x="459" y="37" fill="black" font-size="15" font-family="Helvetica">
hpt
</text>
<path d="M387,42h 169" fill="none" stroke="black"/>
<text x="395" y="55" fill="black" font-size="11" font-family="Helvetica">
Entries 
</text>
<text x="525" y="55" fill="black" font-size="11" font-family="Helvetica">
 500
</text>
<text x="395" y="73" fill="black" font-size="11" font-family="Helvetica">
Mean  
</text>
<text x="512" y="73" fill="black" font-size="11" font-family="Helvetica">
  5.012
</text>
<text x="395" y="91" fill="black" font-size="11" font-family="Helvetica">
RMS   
</text>
<text x="503" y="91" fill="black" font-size="11" font-family="Helvetica">
 0.05823
</text>
<text x="406" y="108" fill="black" font-size="11" font-family="Helvetica">
 / ndf 
</text>
<text x="402" y="104" fill="black" font-size="7" font-family="Helvetica">
2
</text>
<text x="395" y="108" fill="black" font-size="11" font-family="Times">
&#0967;
</text>
<text x="493" y="109" fill="black" font-size="11" font-family="Helvetica">
 44.69 / 33
</text>
<text x="395" y="126" fill="black" font-size="11" font-family="Helvetica">
Prob  
</text>
<text x="509" y="126" fill="black" font-size="11" font-family="Helvetica">
 0.0842
</text>
<text x="395" y="144" fill="black" font-size="11" font-family="Helvetica">
Constant 
</text>
<text x="521" y="144" fill="black" font-size="11" font-family="Helvetica">
 2.32
</text>
<text x="515" y="144" fill="black" font-size="11" font-family="Times">
&#0177;
</text>
<text x="481" y="144" fill="black" font-size="11" font-family="Helvetica">
 37.04 
</text>
<text x="395" y="162" fill="black" font-size="11" font-family="Helvetica">
Mean     
</text>
<text x="515" y="162" fill="black" font-size="11" font-family="Helvetica">
 0.002
</text>
<text x="508" y="162" fill="black" font-size="11" font-family="Times">
&#0177;
</text>
<text x="474" y="162" fill="black" font-size="11" font-family="Helvetica">
 5.009 
</text>
<text x="395" y="179" fill="black" font-size="11" font-family="Helvetica">
Sigma    
</text>
<text x="503" y="180" fill="black" font-size="11" font-family="Helvetica">
 0.00197
</text>
<text x="496" y="180" fill="black" font-size="11" font-family="Times">
&#0177;
</text>
<text x="450" y="180" fill="black" font-size="11" font-family="Helvetica">
 0.04746 
</text>
<path d="M59,346h 141l 4, -1h 9l 5, -1l 4, -1l 5, -1l 4, -3l 5, -5l 4, -8l 5, -10l 4, -15l 5, -18l 5, -23l 4, -25l 5, -27l 4, -27l 5, -22l 4, -17" fill="none" stroke="#ff0000" stroke-width="2"/>
<path d="M281,142l 5, -8h 4l 5, 10l 4, 18l 5, 24l 4, 26l 5, 27l 4, 25l 5, 22l 5, 18l 4, 14l 5, 10l 4, 7l 5, 4l 4, 3l 5, 2l 4, 1h 14l 4, 1h 127" fill="none" stroke="#ff0000" stroke-width="2"/>
<path d="M503,346h 5" fill="none" stroke="#ff0000" stroke-width="2"/>
<path d="M57,346h 453" fill="none" stroke="black"/>
<text x="476" y="369" fill="black" font-size="12" font-family="Helvetica">
 [GeV]
</text>
<text x="471" y="375" fill="black" font-size="8" font-family="Helvetica">
T
</text>
<text x="461" y="369" fill="black" font-size="12" font-family="Helvetica">
 p
</text>
<path d="M57,336v 10" fill="none" stroke="black"/>
<path d="M66,341v 5" fill="none" stroke="black"/>
<path d="M75,341v 5" fill="none" stroke="black"/>
<path d="M84,341v 5" fill="none" stroke="black"/>
<path d="M93,341v 5" fill="none" stroke="black"/>
<path d="M102,336v 10" fill="none" stroke="black"/>
<path d="M111,341v 5" fill="none" stroke="black"/>
<path d="M120,341v 5" fill="none" stroke="black"/>
<path d="M129,341v 5" fill="none" stroke="black"/>
<path d="M138,341v 5" fill="none" stroke="black"/>
<path d="M147,336v 10" fill="none" stroke="black"/>
<path d="M156,341v 5" fill="none" stroke="black"/>
<path d="M166,341v 5" fill="none" stroke="black"/>
<path d="M175,341v 5" fill="none" stroke="black"/>
<path d="M184,341v 5" fill="none" stroke="black"/>
<path d="M193,336v 10" fill="none" stroke="black"/>
<path d="M202,341v 5" fill="none" stroke="black"/>
<path d="M211,341v 5" fill="none" stroke="black"/>
<path d="M220,341v 5" fill="none" stroke="black"/>
<path d="M229,341v 5" fill="none" stroke="black"/>
<path d="M238,336v 10" fill="none" stroke="black"/>
<path d="M247,341v 5" fill="none" stroke="black"/>
<path d="M256,341v 5" fill="none" stroke="black"/>
<path d="M265,341v 5" fill="none" stroke="black"/>
<path d="M274,341v 5" fill="none" stroke="black"/>
<path d="M283,336v 10" fill="none" stroke="black"/>
<path d="M293,341v 5" fill="none" stroke="black"/>
<path d="M302,341v 5" fill="none" stroke="black"/>
<path d="M311,341v 5" fill="none" stroke="black"/>
<path d="M320,341v 5" fill="none" stroke="black"/>
<path d="M329,336v 10" fill="none" stroke="black"/>
<path d="M338,341v 5" fill="none" stroke="black"/>
<path d="M347,341v 5" fill="none" stroke="black"/>
<path d="M356,341v 5" fill="none" stroke="black"/>
<path d="M365,341v 5" fill="none" stroke="black"/>
<path d="M374,336v 10" fill="none" stroke="black"/>
<path d="M383,341v 5" fill="none" stroke="black"/>
<path d="M392,341v 5" fill="none" stroke="black"/>
<path d="M401,341v 5" fill="none" stroke="black"/>
<path d="M410,341v 5" fill="none" stroke="black"/>
<path d="M420,336v 10" fill="none" stroke="black"/>
<path d="M429,341v 5" fill="none" stroke="black"/>
<path d="M438,341v 5" fill="none" stroke="black"/>
<path d="M447,341v 5" fill="none" stroke="black"/>
<path d="M456,341v 5" fill="none" stroke="black"/>
<path d="M465,336v 10" fill="none" stroke="black"/>
<path d="M474,341v 5" fill="none" stroke="black"/>
<path d="M483,341v 5" fill="none" stroke="black"/>
<path d="M492,341v 5" fill="none" stroke="black"/>
<path d="M501,341v 5" fill="none" stroke="black"/>
<path d="M510,336v 10" fill="none" stroke="black"/>
<path d="M510,336v 10" fill="none" stroke="black"/>
<text x="47" y="358" fill="black" font-size="12" font-family="Helvetica">
4.5
</text>
<text x="93" y="358" fill="black" font-size="12" font-family="Helvetica">
4.6
</text>
<text x="138" y="358" fill="black" font-size="12" font-family="Helvetica">
4.7
</text>
<text x="183" y="358" fill="black" font-size="12" font-family="Helvetica">
4.8
</text>
<text x="229" y="358" fill="black" font-size="12" font-family="Helvetica">
4.9
</text>
<text x="280" y="358" fill="black" font-size="12" font-family="Helvetica">
5
</text>
<text x="320" y="358" fill="black" font-size="12" font-family="Helvetica">
5.1
</text>
<text x="365" y="358" fill="black" font-size="12" font-family="Helvetica">
5.2
</text>
<text x="411" y="358" fill="black" font-size="12" font-family="Helvetica">
5.3
</text>
<text x="455" y="358" fill="black" font-size="12" font-family="Helvetica">
5.4
</text>
<text x="501" y="358" fill="black" font-size="12" font-family="Helvetica">
5.5
</text>
<path d="M57,346v -308" fill="none" stroke="black"/>
<path d="M70,346h -13" fill="none" stroke="black"/>
<path d="M63,334h -6" fill="none" stroke="black"/>
<path d="M63,323h -6" fill="none" stroke="black"/>
<path d="M63,311h -6" fill="none" stroke="black"/>
<path d="M63,300h -6" fill="none" stroke="black"/>
<path d="M70,288h -13" fill="none" stroke="black"/>
<path d="M63,277h -6" fill="none" stroke="black"/>
<path d="M63,265h -6" fill="none" stroke="black"/>
<path d="M63,254h -6" fill="none" stroke="black"/>
<path d="M63,242h -6" fill="none" stroke="black"/>
<path d="M70,231h -13" fill="none" stroke="black"/>
<path d="M63,219h -6" fill="none" stroke="black"/>
<path d="M63,208h -6" fill="none" stroke="black"/>
<path d="M63,196h -6" fill="none" stroke="black"/>
<path d="M63,185h -6" fill="none" stroke="black"/>
<path d="M70,173h -13" fill="none" stroke="black"/>
<path d="M63,162h -6" fill="none" stroke="black"/>
<path d="M63,150h -6" fill="none" stroke="black"/>
<path d="M63,139h -6" fill="none" stroke="black"/>
<path d="M63,127h -6" fill="none" stroke="black"/>
<path d="M70,116h -13" fill="none" stroke="black"/>
<path d="M63,104h -6" fill="none" stroke="black"/>
<path d="M63,93h -6" fill="none" stroke="black"/>
<path d="M63,81h -6" fill="none" stroke="black"/>
<path d="M63,70h -6" fill="none" stroke="black"/>
<path d="M70,58h -13" fill="none" stroke="black"/>
<path d="M70,58h -13" fill="none" stroke="black"/>
<path d="M63,47h -6" fill="none" stroke="black"/>
<text x="47" y="350" fill="black" font-size="12" font-family="Helvetica">
0
</text>
<text x="41" y="293" fill="black" font-size="12" font-family="Helvetica">
10
</text>
<text x="41" y="235" fill="black" font-size="12" font-family="Helvetica">
20
</text>
<text x="41" y="178" fill="black" font-size="12" font-family="Helvetica">
30
</text>
<text x="41" y="120" fill="black" font-size="12" font-family="Helvetica">
40
</text>
<text x="41" y="63" fill="black" font-size="12" font-family="Helvetica">
50
</text>
<rect x="387" y="24" width="169" height="160" fill="white"/>
<path d="M387,184h 169" fill="none" stroke="black"/>
<path d="M556,184v -160" fill="none" stroke="black"/>
<path d="M556,24h -169" fill="none" stroke="black"/>
<path d="M387,24v 160" fill="none" stroke="black"/>
<text x="459" y="37" fill="black" font-size="15" font-family="Helvetica">
hpt
</text>
<path d="M387,42h 169" fill="none" stroke="black"/>
<text x="395" y="55" fill="black" font-size="11" font-family="Helvetica">
Entries 
</text>
<text x="525" y="55" fill="black" font-size="11" font-family="Helvetica">
 500
</text>
<text x="395" y="73" fill="black" font-size="11" font-family="Helvetica">
Mean  
</text>
<text x="512" y="73" fill="black" font-size="11" font-family="Helvetica">
  5.012
</text>
<text x="395" y="91" fill="black" font-size="11" font-family="Helvetica">
RMS   
</text>
<text x="503" y="91" fill="black" font-size="11" font-family="Helvetica">
 0.05823
</text>
<text x="406" y="108" fill="black" font-size="11" font-family="Helvetica">
 / ndf 
</text>
<text x="402" y="104" fill="black" font-size="7" font-family="Helvetica">
2
</text>
<text x="395" y="108" fill="black" font-size="11" font-family="Times">
&#0967;
</text>
<text x="493" y="109" fill="black" font-size="11" font-family="Helvetica">
 44.69 / 33
</text>
<text x="395" y="126" fill="black" font-size="11" font-family="Helvetica">
Prob  
</text>
<text x="509" y="126" fill="black" font-size="11" font-family="Helvetica">
 0.0842
</text>
<text x="395" y="144" fill="black" font-size="11" font-family="Helvetica">
Constant 
</text>
<text x="521" y="144" fill="black" font-size="11" font-family="Helvetica">
 2.32
</text>
<text x="515" y="144" fill="black" font-size="11" font-family="Times">
&#0177;
</text>
<text x="481" y="144" fill="black" font-size="11" font-family="Helvetica">
 37.04 
</text>
<text x="395" y="162" fill="black" font-size="11" font-family="Helvetica">
Mean     
</text>
<text x="515" y="162" fill="black" font-size="11" font-family="Helvetica">
 0.002
</text>
<text x="508" y="162" fill="black" font-size="11" font-family="Times">
&#0177;
</text>
<text x="474" y="162" fill="black" font-size="11" font-family="Helvetica">
 5.009 
</text>
<text x="395" y="179" fill="black" font-size="11" font-family="Helvetica">
Sigma    
</text>
<text x="503" y="180" fill="black" font-size="11" font-family="Helvetica">
 0.00197
</text>
<text x="496" y="180" fill="black" font-size="11" font-family="Times">
&#0177;
</text>
<text x="450" y="180" fill="black" font-size="11" font-family="Helvetica">
 0.04746 
</text></svg>
