<?xml version="1.0" standalone="no"?>
<svg width="567" height="384" viewBox="0 0 567 384" xmlns="http://www.w3.org/2000/svg">
<title>
/home/ubuntuuser/geant_exercises/geant-exercises-karnivool/Exercise 6/5a momentum 30.svg
</title>
<desc>
Creator: ROOT Version 5.32/04
CreationDate: Wed Jan 24 16:18:40 2024</desc>
<defs>
</defs>
<rect x="0" y="0" width="567" height="384" fill="white"/>
<rect x="6" y="3" width="272" height="377" fill="white"/>
<rect x="33" y="41" width="218" height="301" fill="white"/>
<rect x="33" y="41" width="218" height="301" fill="none" stroke="black"/>
<rect x="33" y="41" width="218" height="301" fill="white"/>
<rect x="33" y="41" width="218" height="301" fill="none" stroke="black"/>
<path d="M33,342h 15v -7h 2v 7h 50v -7h 3v 7h 4v -7h 6v -7h 3v -7h 4v -7h 2v -28h 2v -42h 2v -7h 3v -28h 2v -21h 2v -56h 2v -21h 2v 56h 3v -7h 2v -105h 2v 112h 2v -35h 2v 77h 2v -119h 3v 112h 2v -42h 2v 126h 2v -70h 2v 42h 3v 35h 2v 7h 2v 14h 2v 7h
 2v -28h 2v 42h 3v -7h 2v 14h 4v -7h 2v 7h 5v -7h 2v 7h 22v -7h 4v 7h 33" fill="none" stroke="#000099"/>
<rect x="218" y="28" width="54" height="60" fill="white"/>
<path d="M218,88h 54" fill="none" stroke="black"/>
<path d="M272,88v -60" fill="none" stroke="black"/>
<path d="M272,28h -54" fill="none" stroke="black"/>
<path d="M218,28v 60" fill="none" stroke="black"/>
<text x="238" y="38" fill="black" font-size="9" font-family="Helvetica">
hpt
</text>
<path d="M218,43h 54" fill="none" stroke="black"/>
<text x="220" y="53" fill="black" font-size="7" font-family="Helvetica">
Entries 
</text>
<text x="255" y="53" fill="black" font-size="7" font-family="Helvetica">
 500
</text>
<text x="220" y="69" fill="black" font-size="7" font-family="Helvetica">
Mean  
</text>
<text x="248" y="69" fill="black" font-size="7" font-family="Helvetica">
  5.011
</text>
<text x="220" y="83" fill="black" font-size="7" font-family="Helvetica">
RMS   
</text>
<text x="241" y="83" fill="black" font-size="7" font-family="Helvetica">
 0.06672
</text>
<path d="M33,342h 218" fill="none" stroke="black"/>
<text x="225" y="364" fill="black" font-size="9" font-family="Helvetica">
 [GeV]
</text>
<text x="221" y="369" fill="black" font-size="6" font-family="Helvetica">
T
</text>
<text x="213" y="364" fill="black" font-size="9" font-family="Helvetica">
 p
</text>
<path d="M33,333v 9" fill="none" stroke="black"/>
<path d="M37,338v 4" fill="none" stroke="black"/>
<path d="M42,338v 4" fill="none" stroke="black"/>
<path d="M46,338v 4" fill="none" stroke="black"/>
<path d="M50,338v 4" fill="none" stroke="black"/>
<path d="M55,333v 9" fill="none" stroke="black"/>
<path d="M59,338v 4" fill="none" stroke="black"/>
<path d="M63,338v 4" fill="none" stroke="black"/>
<path d="M68,338v 4" fill="none" stroke="black"/>
<path d="M72,338v 4" fill="none" stroke="black"/>
<path d="M76,333v 9" fill="none" stroke="black"/>
<path d="M81,338v 4" fill="none" stroke="black"/>
<path d="M85,338v 4" fill="none" stroke="black"/>
<path d="M89,338v 4" fill="none" stroke="black"/>
<path d="M94,338v 4" fill="none" stroke="black"/>
<path d="M98,333v 9" fill="none" stroke="black"/>
<path d="M103,338v 4" fill="none" stroke="black"/>
<path d="M107,338v 4" fill="none" stroke="black"/>
<path d="M111,338v 4" fill="none" stroke="black"/>
<path d="M116,338v 4" fill="none" stroke="black"/>
<path d="M120,333v 9" fill="none" stroke="black"/>
<path d="M124,338v 4" fill="none" stroke="black"/>
<path d="M129,338v 4" fill="none" stroke="black"/>
<path d="M133,338v 4" fill="none" stroke="black"/>
<path d="M137,338v 4" fill="none" stroke="black"/>
<path d="M142,333v 9" fill="none" stroke="black"/>
<path d="M146,338v 4" fill="none" stroke="black"/>
<path d="M150,338v 4" fill="none" stroke="black"/>
<path d="M155,338v 4" fill="none" stroke="black"/>
<path d="M159,338v 4" fill="none" stroke="black"/>
<path d="M164,333v 9" fill="none" stroke="black"/>
<path d="M168,338v 4" fill="none" stroke="black"/>
<path d="M172,338v 4" fill="none" stroke="black"/>
<path d="M177,338v 4" fill="none" stroke="black"/>
<path d="M181,338v 4" fill="none" stroke="black"/>
<path d="M185,333v 9" fill="none" stroke="black"/>
<path d="M190,338v 4" fill="none" stroke="black"/>
<path d="M194,338v 4" fill="none" stroke="black"/>
<path d="M198,338v 4" fill="none" stroke="black"/>
<path d="M203,338v 4" fill="none" stroke="black"/>
<path d="M207,333v 9" fill="none" stroke="black"/>
<path d="M211,338v 4" fill="none" stroke="black"/>
<path d="M216,338v 4" fill="none" stroke="black"/>
<path d="M220,338v 4" fill="none" stroke="black"/>
<path d="M224,338v 4" fill="none" stroke="black"/>
<path d="M229,333v 9" fill="none" stroke="black"/>
<path d="M233,338v 4" fill="none" stroke="black"/>
<path d="M238,338v 4" fill="none" stroke="black"/>
<path d="M242,338v 4" fill="none" stroke="black"/>
<path d="M246,338v 4" fill="none" stroke="black"/>
<path d="M251,333v 9" fill="none" stroke="black"/>
<path d="M251,333v 9" fill="none" stroke="black"/>
<text x="26" y="355" fill="black" font-size="9" font-family="Helvetica">
4.5
</text>
<text x="48" y="355" fill="black" font-size="9" font-family="Helvetica">
4.6
</text>
<text x="69" y="355" fill="black" font-size="9" font-family="Helvetica">
4.7
</text>
<text x="91" y="355" fill="black" font-size="9" font-family="Helvetica">
4.8
</text>
<text x="113" y="355" fill="black" font-size="9" font-family="Helvetica">
4.9
</text>
<text x="139" y="355" fill="black" font-size="9" font-family="Helvetica">
5
</text>
<text x="157" y="355" fill="black" font-size="9" font-family="Helvetica">
5.1
</text>
<text x="178" y="355" fill="black" font-size="9" font-family="Helvetica">
5.2
</text>
<text x="200" y="355" fill="black" font-size="9" font-family="Helvetica">
5.3
</text>
<text x="222" y="355" fill="black" font-size="9" font-family="Helvetica">
5.4
</text>
<text x="244" y="355" fill="black" font-size="9" font-family="Helvetica">
5.5
</text>
<path d="M33,342v -301" fill="none" stroke="black"/>
<path d="M39,342h -6" fill="none" stroke="black"/>
<path d="M36,335h -3" fill="none" stroke="black"/>
<path d="M36,328h -3" fill="none" stroke="black"/>
<path d="M36,321h -3" fill="none" stroke="black"/>
<path d="M36,314h -3" fill="none" stroke="black"/>
<path d="M39,307h -6" fill="none" stroke="black"/>
<path d="M36,300h -3" fill="none" stroke="black"/>
<path d="M36,293h -3" fill="none" stroke="black"/>
<path d="M36,286h -3" fill="none" stroke="black"/>
<path d="M36,279h -3" fill="none" stroke="black"/>
<path d="M39,272h -6" fill="none" stroke="black"/>
<path d="M36,265h -3" fill="none" stroke="black"/>
<path d="M36,258h -3" fill="none" stroke="black"/>
<path d="M36,251h -3" fill="none" stroke="black"/>
<path d="M36,244h -3" fill="none" stroke="black"/>
<path d="M39,237h -6" fill="none" stroke="black"/>
<path d="M36,230h -3" fill="none" stroke="black"/>
<path d="M36,223h -3" fill="none" stroke="black"/>
<path d="M36,216h -3" fill="none" stroke="black"/>
<path d="M36,209h -3" fill="none" stroke="black"/>
<path d="M39,202h -6" fill="none" stroke="black"/>
<path d="M36,195h -3" fill="none" stroke="black"/>
<path d="M36,188h -3" fill="none" stroke="black"/>
<path d="M36,181h -3" fill="none" stroke="black"/>
<path d="M36,174h -3" fill="none" stroke="black"/>
<path d="M39,167h -6" fill="none" stroke="black"/>
<path d="M36,160h -3" fill="none" stroke="black"/>
<path d="M36,153h -3" fill="none" stroke="black"/>
<path d="M36,146h -3" fill="none" stroke="black"/>
<path d="M36,139h -3" fill="none" stroke="black"/>
<path d="M39,132h -6" fill="none" stroke="black"/>
<path d="M36,125h -3" fill="none" stroke="black"/>
<path d="M36,118h -3" fill="none" stroke="black"/>
<path d="M36,111h -3" fill="none" stroke="black"/>
<path d="M36,104h -3" fill="none" stroke="black"/>
<path d="M39,97h -6" fill="none" stroke="black"/>
<path d="M36,90h -3" fill="none" stroke="black"/>
<path d="M36,83h -3" fill="none" stroke="black"/>
<path d="M36,76h -3" fill="none" stroke="black"/>
<path d="M36,69h -3" fill="none" stroke="black"/>
<path d="M39,62h -6" fill="none" stroke="black"/>
<path d="M39,62h -6" fill="none" stroke="black"/>
<path d="M36,55h -3" fill="none" stroke="black"/>
<path d="M36,48h -3" fill="none" stroke="black"/>
<path d="M36,41h -3" fill="none" stroke="black"/>
<text x="26" y="346" fill="black" font-size="9" font-family="Helvetica">
0
</text>
<text x="26" y="311" fill="black" font-size="9" font-family="Helvetica">
5
</text>
<text x="21" y="276" fill="black" font-size="9" font-family="Helvetica">
10
</text>
<text x="21" y="241" fill="black" font-size="9" font-family="Helvetica">
15
</text>
<text x="21" y="206" fill="black" font-size="9" font-family="Helvetica">
20
</text>
<text x="21" y="171" fill="black" font-size="9" font-family="Helvetica">
25
</text>
<text x="21" y="136" fill="black" font-size="9" font-family="Helvetica">
30
</text>
<text x="21" y="101" fill="black" font-size="9" font-family="Helvetica">
35
</text>
<text x="21" y="66" fill="black" font-size="9" font-family="Helvetica">
40
</text>
<rect x="218" y="28" width="54" height="60" fill="white"/>
<path d="M218,88h 54" fill="none" stroke="black"/>
<path d="M272,88v -60" fill="none" stroke="black"/>
<path d="M272,28h -54" fill="none" stroke="black"/>
<path d="M218,28v 60" fill="none" stroke="black"/>
<text x="238" y="38" fill="black" font-size="9" font-family="Helvetica">
hpt
</text>
<path d="M218,43h 54" fill="none" stroke="black"/>
<text x="220" y="53" fill="black" font-size="7" font-family="Helvetica">
Entries 
</text>
<text x="255" y="53" fill="black" font-size="7" font-family="Helvetica">
 500
</text>
<text x="220" y="69" fill="black" font-size="7" font-family="Helvetica">
Mean  
</text>
<text x="248" y="69" fill="black" font-size="7" font-family="Helvetica">
  5.011
</text>
<text x="220" y="83" fill="black" font-size="7" font-family="Helvetica">
RMS   
</text>
<text x="241" y="83" fill="black" font-size="7" font-family="Helvetica">
 0.06672
</text>
<rect x="289" y="3" width="272" height="377" fill="white"/>
<rect x="316" y="41" width="218" height="301" fill="white"/>
<rect x="316" y="41" width="218" height="301" fill="none" stroke="black"/>
<rect x="316" y="41" width="218" height="301" fill="white"/>
<rect x="316" y="41" width="218" height="301" fill="none" stroke="black"/>
<path d="M316,342h 37v -16h 3v 16h 2v -16h 2v 16h 11v -16h 2v 16h 6v -16h 3v 16h 2v -16h 2v 16h 9v -16h 8v -51h 3v -17h 2v 51h 2v -51h 2v -17h 2v 68h 2v -254h 3v 135h 2v -16h 2v 67h 2v -51h 2v 17h 3v -17h 2v -33h 2v 135h 2v -85h 2v 34h 2v -34h 3v 85h
 2v -17h 6v 51h 2v 16h 3v -33h 2v -34h 2v 34h 2v 17h 2v 16h 27v -16h 2v 16h 13v -16h 2v 16h 4v -16h 2v 16h 7v -16h 2v 16h 11" fill="none" stroke="#000099"/>
<rect x="501" y="28" width="55" height="60" fill="white"/>
<path d="M501,88h 55" fill="none" stroke="black"/>
<path d="M556,88v -60" fill="none" stroke="black"/>
<path d="M556,28h -55" fill="none" stroke="black"/>
<path d="M501,28v 60" fill="none" stroke="black"/>
<text x="515" y="38" fill="black" font-size="9" font-family="Helvetica">
hptpull
</text>
<path d="M501,43h 55" fill="none" stroke="black"/>
<text x="503" y="53" fill="black" font-size="7" font-family="Helvetica">
Entries 
</text>
<text x="538" y="53" fill="black" font-size="7" font-family="Helvetica">
 500
</text>
<text x="503" y="69" fill="black" font-size="7" font-family="Helvetica">
Mean  
</text>
<text x="529" y="69" fill="black" font-size="7" font-family="Helvetica">
 0.2875
</text>
<text x="503" y="83" fill="black" font-size="7" font-family="Helvetica">
RMS   
</text>
<text x="530" y="83" fill="black" font-size="7" font-family="Helvetica">
  1.973
</text>
<path d="M316,342h 218" fill="none" stroke="black"/>
<text x="528" y="364" fill="black" font-size="9" font-family="Times">
&#0963;
</text>
<text x="522" y="364" fill="black" font-size="9" font-family="Helvetica">
)/
</text>
<text x="512" y="361" fill="black" font-size="6" font-family="Helvetica">
true
</text>
<text x="512" y="370" fill="black" font-size="6" font-family="Helvetica">
T
</text>
<text x="499" y="364" fill="black" font-size="9" font-family="Helvetica">
 - p
</text>
<text x="485" y="360" fill="black" font-size="6" font-family="Helvetica">
meas
</text>
<text x="485" y="370" fill="black" font-size="6" font-family="Helvetica">
T
</text>
<text x="475" y="364" fill="black" font-size="9" font-family="Helvetica">
 (p
</text>
<path d="M316,333v 9" fill="none" stroke="black"/>
<path d="M322,338v 4" fill="none" stroke="black"/>
<path d="M327,338v 4" fill="none" stroke="black"/>
<path d="M333,338v 4" fill="none" stroke="black"/>
<path d="M338,333v 9" fill="none" stroke="black"/>
<path d="M344,338v 4" fill="none" stroke="black"/>
<path d="M349,338v 4" fill="none" stroke="black"/>
<path d="M354,338v 4" fill="none" stroke="black"/>
<path d="M360,333v 9" fill="none" stroke="black"/>
<path d="M365,338v 4" fill="none" stroke="black"/>
<path d="M371,338v 4" fill="none" stroke="black"/>
<path d="M376,338v 4" fill="none" stroke="black"/>
<path d="M382,333v 9" fill="none" stroke="black"/>
<path d="M387,338v 4" fill="none" stroke="black"/>
<path d="M393,338v 4" fill="none" stroke="black"/>
<path d="M398,338v 4" fill="none" stroke="black"/>
<path d="M403,333v 9" fill="none" stroke="black"/>
<path d="M409,338v 4" fill="none" stroke="black"/>
<path d="M414,338v 4" fill="none" stroke="black"/>
<path d="M420,338v 4" fill="none" stroke="black"/>
<path d="M425,333v 9" fill="none" stroke="black"/>
<path d="M431,338v 4" fill="none" stroke="black"/>
<path d="M436,338v 4" fill="none" stroke="black"/>
<path d="M442,338v 4" fill="none" stroke="black"/>
<path d="M447,333v 9" fill="none" stroke="black"/>
<path d="M452,338v 4" fill="none" stroke="black"/>
<path d="M458,338v 4" fill="none" stroke="black"/>
<path d="M463,338v 4" fill="none" stroke="black"/>
<path d="M469,333v 9" fill="none" stroke="black"/>
<path d="M474,338v 4" fill="none" stroke="black"/>
<path d="M480,338v 4" fill="none" stroke="black"/>
<path d="M485,338v 4" fill="none" stroke="black"/>
<path d="M491,333v 9" fill="none" stroke="black"/>
<path d="M496,338v 4" fill="none" stroke="black"/>
<path d="M501,338v 4" fill="none" stroke="black"/>
<path d="M507,338v 4" fill="none" stroke="black"/>
<path d="M512,333v 9" fill="none" stroke="black"/>
<path d="M518,338v 4" fill="none" stroke="black"/>
<path d="M523,338v 4" fill="none" stroke="black"/>
<path d="M529,338v 4" fill="none" stroke="black"/>
<path d="M534,333v 9" fill="none" stroke="black"/>
<text x="310" y="355" fill="black" font-size="9" font-family="Helvetica">
-10
</text>
<text x="334" y="355" fill="black" font-size="9" font-family="Helvetica">
-8
</text>
<text x="355" y="355" fill="black" font-size="9" font-family="Helvetica">
-6
</text>
<text x="377" y="355" fill="black" font-size="9" font-family="Helvetica">
-4
</text>
<text x="399" y="355" fill="black" font-size="9" font-family="Helvetica">
-2
</text>
<text x="423" y="355" fill="black" font-size="9" font-family="Helvetica">
0
</text>
<text x="444" y="355" fill="black" font-size="9" font-family="Helvetica">
2
</text>
<text x="466" y="355" fill="black" font-size="9" font-family="Helvetica">
4
</text>
<text x="488" y="355" fill="black" font-size="9" font-family="Helvetica">
6
</text>
<text x="509" y="355" fill="black" font-size="9" font-family="Helvetica">
8
</text>
<text x="529" y="355" fill="black" font-size="9" font-family="Helvetica">
10
</text>
<path d="M316,342v -301" fill="none" stroke="black"/>
<path d="M323,342h -7" fill="none" stroke="black"/>
<path d="M320,334h -4" fill="none" stroke="black"/>
<path d="M320,326h -4" fill="none" stroke="black"/>
<path d="M320,317h -4" fill="none" stroke="black"/>
<path d="M323,309h -7" fill="none" stroke="black"/>
<path d="M320,300h -4" fill="none" stroke="black"/>
<path d="M320,292h -4" fill="none" stroke="black"/>
<path d="M320,283h -4" fill="none" stroke="black"/>
<path d="M323,275h -7" fill="none" stroke="black"/>
<path d="M320,266h -4" fill="none" stroke="black"/>
<path d="M320,258h -4" fill="none" stroke="black"/>
<path d="M320,250h -4" fill="none" stroke="black"/>
<path d="M323,241h -7" fill="none" stroke="black"/>
<path d="M320,233h -4" fill="none" stroke="black"/>
<path d="M320,224h -4" fill="none" stroke="black"/>
<path d="M320,216h -4" fill="none" stroke="black"/>
<path d="M323,207h -7" fill="none" stroke="black"/>
<path d="M320,199h -4" fill="none" stroke="black"/>
<path d="M320,190h -4" fill="none" stroke="black"/>
<path d="M320,182h -4" fill="none" stroke="black"/>
<path d="M323,174h -7" fill="none" stroke="black"/>
<path d="M320,165h -4" fill="none" stroke="black"/>
<path d="M320,157h -4" fill="none" stroke="black"/>
<path d="M320,148h -4" fill="none" stroke="black"/>
<path d="M323,140h -7" fill="none" stroke="black"/>
<path d="M320,131h -4" fill="none" stroke="black"/>
<path d="M320,123h -4" fill="none" stroke="black"/>
<path d="M320,115h -4" fill="none" stroke="black"/>
<path d="M323,106h -7" fill="none" stroke="black"/>
<path d="M320,98h -4" fill="none" stroke="black"/>
<path d="M320,89h -4" fill="none" stroke="black"/>
<path d="M320,81h -4" fill="none" stroke="black"/>
<path d="M323,72h -7" fill="none" stroke="black"/>
<path d="M323,72h -7" fill="none" stroke="black"/>
<path d="M320,64h -4" fill="none" stroke="black"/>
<path d="M320,55h -4" fill="none" stroke="black"/>
<path d="M320,47h -4" fill="none" stroke="black"/>
<text x="310" y="346" fill="black" font-size="9" font-family="Helvetica">
0
</text>
<text x="310" y="312" fill="black" font-size="9" font-family="Helvetica">
2
</text>
<text x="310" y="279" fill="black" font-size="9" font-family="Helvetica">
4
</text>
<text x="310" y="244" fill="black" font-size="9" font-family="Helvetica">
6
</text>
<text x="310" y="211" fill="black" font-size="9" font-family="Helvetica">
8
</text>
<text x="305" y="176" fill="black" font-size="9" font-family="Helvetica">
10
</text>
<text x="305" y="144" fill="black" font-size="9" font-family="Helvetica">
12
</text>
<text x="305" y="109" fill="black" font-size="9" font-family="Helvetica">
14
</text>
<text x="305" y="75" fill="black" font-size="9" font-family="Helvetica">
16
</text>
<rect x="501" y="28" width="55" height="60" fill="white"/>
<path d="M501,88h 55" fill="none" stroke="black"/>
<path d="M556,88v -60" fill="none" stroke="black"/>
<path d="M556,28h -55" fill="none" stroke="black"/>
<path d="M501,28v 60" fill="none" stroke="black"/>
<text x="515" y="38" fill="black" font-size="9" font-family="Helvetica">
hptpull
</text>
<path d="M501,43h 55" fill="none" stroke="black"/>
<text x="503" y="53" fill="black" font-size="7" font-family="Helvetica">
Entries 
</text>
<text x="538" y="53" fill="black" font-size="7" font-family="Helvetica">
 500
</text>
<text x="503" y="69" fill="black" font-size="7" font-family="Helvetica">
Mean  
</text>
<text x="529" y="69" fill="black" font-size="7" font-family="Helvetica">
 0.2875
</text>
<text x="503" y="83" fill="black" font-size="7" font-family="Helvetica">
RMS   
</text>
<text x="530" y="83" fill="black" font-size="7" font-family="Helvetica">
  1.973
</text></svg>
