<?xml version="1.0" standalone="no"?>
<svg width="567" height="384" viewBox="0 0 567 384" xmlns="http://www.w3.org/2000/svg">
<title>
/home/ubuntuuser/geant_exercises/geant-exercises-karnivool/Exercise 6/5a momentum fit 30.svg
</title>
<desc>
Creator: ROOT Version 5.32/04
CreationDate: Wed Jan 24 16:19:32 2024</desc>
<defs>
</defs>
<rect x="0" y="0" width="567" height="384" fill="white"/>
<rect x="57" y="38" width="453" height="308" fill="white"/>
<rect x="57" y="38" width="453" height="308" fill="none" stroke="black"/>
<rect x="57" y="38" width="453" height="308" fill="white"/>
<rect x="57" y="38" width="453" height="308" fill="none" stroke="black"/>
<path d="M57,346h 31v -8h 5v 8h 104v -8h 5v 8h 9v -8h 14v -7h 4v -7h 9v -7h 5v -29h 4v -42h 5v -8h 4v -28h 5v -22h 4v -57h 5v -21h 4v 57h 5v -7h 4v -107h 5v 114h 5v -36h 4v 79h 5v -122h 4v 115h 5v -43h 4v 128h 5v -71h 4v 43h 5v 36h 4v 7h 5v 14h 4v 7h
 5v -28h 4v 42h 5v -7h 5v 15h 9v -8h 4v 8h 9v -8h 5v 8h 45v -8h 9v 8h 68" fill="none" stroke="#000099"/>
<rect x="398" y="24" width="158" height="152" fill="white"/>
<path d="M398,176h 158" fill="none" stroke="black"/>
<path d="M556,176v -152" fill="none" stroke="black"/>
<path d="M556,24h -158" fill="none" stroke="black"/>
<path d="M398,24v 152" fill="none" stroke="black"/>
<text x="466" y="36" fill="black" font-size="14" font-family="Helvetica">
hpt
</text>
<path d="M398,41h 158" fill="none" stroke="black"/>
<text x="406" y="53" fill="black" font-size="11" font-family="Helvetica">
Entries 
</text>
<text x="527" y="53" fill="black" font-size="11" font-family="Helvetica">
 500
</text>
<text x="406" y="70" fill="black" font-size="11" font-family="Helvetica">
Mean  
</text>
<text x="517" y="70" fill="black" font-size="11" font-family="Helvetica">
  5.011
</text>
<text x="406" y="87" fill="black" font-size="11" font-family="Helvetica">
RMS   
</text>
<text x="507" y="87" fill="black" font-size="11" font-family="Helvetica">
 0.06672
</text>
<text x="415" y="104" fill="black" font-size="11" font-family="Helvetica">
 / ndf 
</text>
<text x="411" y="100" fill="black" font-size="7" font-family="Helvetica">
2
</text>
<text x="406" y="104" fill="black" font-size="11" font-family="Times">
&#0967;
</text>
<text x="498" y="104" fill="black" font-size="11" font-family="Helvetica">
 40.17 / 36
</text>
<text x="406" y="121" fill="black" font-size="11" font-family="Helvetica">
Prob  
</text>
<text x="512" y="121" fill="black" font-size="11" font-family="Helvetica">
 0.2908
</text>
<text x="406" y="138" fill="black" font-size="11" font-family="Helvetica">
Constant 
</text>
<text x="524" y="138" fill="black" font-size="11" font-family="Helvetica">
 1.85
</text>
<text x="517" y="138" fill="black" font-size="11" font-family="Times">
&#0177;
</text>
<text x="485" y="138" fill="black" font-size="11" font-family="Helvetica">
 30.26 
</text>
<text x="406" y="154" fill="black" font-size="11" font-family="Helvetica">
Mean     
</text>
<text x="518" y="154" fill="black" font-size="11" font-family="Helvetica">
 0.003
</text>
<text x="512" y="154" fill="black" font-size="11" font-family="Times">
&#0177;
</text>
<text x="480" y="154" fill="black" font-size="11" font-family="Helvetica">
 5.008 
</text>
<text x="406" y="171" fill="black" font-size="11" font-family="Helvetica">
Sigma    
</text>
<text x="506" y="171" fill="black" font-size="11" font-family="Helvetica">
 0.00228
</text>
<text x="499" y="171" fill="black" font-size="11" font-family="Times">
&#0177;
</text>
<text x="455" y="171" fill="black" font-size="11" font-family="Helvetica">
 0.05793 
</text>
<path d="M59,346h 118l 4, -1h 19l 4, -1l 5, -1l 4, -2l 5, -2l 4, -4l 5, -5l 4, -8l 5, -9l 4, -13l 5, -15l 4, -18l 5, -20l 5, -22l 4, -23l 5, -22l 4, -19l 5, -16l 4, -11" fill="none" stroke="#ff0000" stroke-width="2"/>
<path d="M281,134l 5, -4l 4, 1l 5, 8l 4, 13l 5, 18l 4, 21l 5, 22l 4, 23l 5, 21l 5, 19l 4, 17l 5, 14l 4, 11l 5, 8l 4, 7l 5, 4l 4, 3l 5, 2l 4, 2h 5l 4, 1h 14l 5, 1h 108" fill="none" stroke="#ff0000" stroke-width="2"/>
<path d="M503,346h 5" fill="none" stroke="#ff0000" stroke-width="2"/>
<path d="M57,346h 453" fill="none" stroke="black"/>
<text x="476" y="369" fill="black" font-size="12" font-family="Helvetica">
 [GeV]
</text>
<text x="471" y="375" fill="black" font-size="8" font-family="Helvetica">
T
</text>
<text x="461" y="369" fill="black" font-size="12" font-family="Helvetica">
 p
</text>
<path d="M57,336v 10" fill="none" stroke="black"/>
<path d="M66,341v 5" fill="none" stroke="black"/>
<path d="M75,341v 5" fill="none" stroke="black"/>
<path d="M84,341v 5" fill="none" stroke="black"/>
<path d="M93,341v 5" fill="none" stroke="black"/>
<path d="M102,336v 10" fill="none" stroke="black"/>
<path d="M111,341v 5" fill="none" stroke="black"/>
<path d="M120,341v 5" fill="none" stroke="black"/>
<path d="M129,341v 5" fill="none" stroke="black"/>
<path d="M138,341v 5" fill="none" stroke="black"/>
<path d="M147,336v 10" fill="none" stroke="black"/>
<path d="M156,341v 5" fill="none" stroke="black"/>
<path d="M166,341v 5" fill="none" stroke="black"/>
<path d="M175,341v 5" fill="none" stroke="black"/>
<path d="M184,341v 5" fill="none" stroke="black"/>
<path d="M193,336v 10" fill="none" stroke="black"/>
<path d="M202,341v 5" fill="none" stroke="black"/>
<path d="M211,341v 5" fill="none" stroke="black"/>
<path d="M220,341v 5" fill="none" stroke="black"/>
<path d="M229,341v 5" fill="none" stroke="black"/>
<path d="M238,336v 10" fill="none" stroke="black"/>
<path d="M247,341v 5" fill="none" stroke="black"/>
<path d="M256,341v 5" fill="none" stroke="black"/>
<path d="M265,341v 5" fill="none" stroke="black"/>
<path d="M274,341v 5" fill="none" stroke="black"/>
<path d="M283,336v 10" fill="none" stroke="black"/>
<path d="M293,341v 5" fill="none" stroke="black"/>
<path d="M302,341v 5" fill="none" stroke="black"/>
<path d="M311,341v 5" fill="none" stroke="black"/>
<path d="M320,341v 5" fill="none" stroke="black"/>
<path d="M329,336v 10" fill="none" stroke="black"/>
<path d="M338,341v 5" fill="none" stroke="black"/>
<path d="M347,341v 5" fill="none" stroke="black"/>
<path d="M356,341v 5" fill="none" stroke="black"/>
<path d="M365,341v 5" fill="none" stroke="black"/>
<path d="M374,336v 10" fill="none" stroke="black"/>
<path d="M383,341v 5" fill="none" stroke="black"/>
<path d="M392,341v 5" fill="none" stroke="black"/>
<path d="M401,341v 5" fill="none" stroke="black"/>
<path d="M410,341v 5" fill="none" stroke="black"/>
<path d="M420,336v 10" fill="none" stroke="black"/>
<path d="M429,341v 5" fill="none" stroke="black"/>
<path d="M438,341v 5" fill="none" stroke="black"/>
<path d="M447,341v 5" fill="none" stroke="black"/>
<path d="M456,341v 5" fill="none" stroke="black"/>
<path d="M465,336v 10" fill="none" stroke="black"/>
<path d="M474,341v 5" fill="none" stroke="black"/>
<path d="M483,341v 5" fill="none" stroke="black"/>
<path d="M492,341v 5" fill="none" stroke="black"/>
<path d="M501,341v 5" fill="none" stroke="black"/>
<path d="M510,336v 10" fill="none" stroke="black"/>
<path d="M510,336v 10" fill="none" stroke="black"/>
<text x="47" y="358" fill="black" font-size="12" font-family="Helvetica">
4.5
</text>
<text x="93" y="358" fill="black" font-size="12" font-family="Helvetica">
4.6
</text>
<text x="138" y="358" fill="black" font-size="12" font-family="Helvetica">
4.7
</text>
<text x="183" y="358" fill="black" font-size="12" font-family="Helvetica">
4.8
</text>
<text x="229" y="358" fill="black" font-size="12" font-family="Helvetica">
4.9
</text>
<text x="280" y="358" fill="black" font-size="12" font-family="Helvetica">
5
</text>
<text x="320" y="358" fill="black" font-size="12" font-family="Helvetica">
5.1
</text>
<text x="365" y="358" fill="black" font-size="12" font-family="Helvetica">
5.2
</text>
<text x="411" y="358" fill="black" font-size="12" font-family="Helvetica">
5.3
</text>
<text x="455" y="358" fill="black" font-size="12" font-family="Helvetica">
5.4
</text>
<text x="501" y="358" fill="black" font-size="12" font-family="Helvetica">
5.5
</text>
<path d="M57,346v -308" fill="none" stroke="black"/>
<path d="M70,346h -13" fill="none" stroke="black"/>
<path d="M63,338h -6" fill="none" stroke="black"/>
<path d="M63,331h -6" fill="none" stroke="black"/>
<path d="M63,324h -6" fill="none" stroke="black"/>
<path d="M63,317h -6" fill="none" stroke="black"/>
<path d="M70,310h -13" fill="none" stroke="black"/>
<path d="M63,303h -6" fill="none" stroke="black"/>
<path d="M63,296h -6" fill="none" stroke="black"/>
<path d="M63,288h -6" fill="none" stroke="black"/>
<path d="M63,281h -6" fill="none" stroke="black"/>
<path d="M70,274h -13" fill="none" stroke="black"/>
<path d="M63,267h -6" fill="none" stroke="black"/>
<path d="M63,260h -6" fill="none" stroke="black"/>
<path d="M63,253h -6" fill="none" stroke="black"/>
<path d="M63,246h -6" fill="none" stroke="black"/>
<path d="M70,238h -13" fill="none" stroke="black"/>
<path d="M63,231h -6" fill="none" stroke="black"/>
<path d="M63,224h -6" fill="none" stroke="black"/>
<path d="M63,217h -6" fill="none" stroke="black"/>
<path d="M63,210h -6" fill="none" stroke="black"/>
<path d="M70,203h -13" fill="none" stroke="black"/>
<path d="M63,196h -6" fill="none" stroke="black"/>
<path d="M63,188h -6" fill="none" stroke="black"/>
<path d="M63,181h -6" fill="none" stroke="black"/>
<path d="M63,174h -6" fill="none" stroke="black"/>
<path d="M70,167h -13" fill="none" stroke="black"/>
<path d="M63,160h -6" fill="none" stroke="black"/>
<path d="M63,153h -6" fill="none" stroke="black"/>
<path d="M63,146h -6" fill="none" stroke="black"/>
<path d="M63,138h -6" fill="none" stroke="black"/>
<path d="M70,131h -13" fill="none" stroke="black"/>
<path d="M63,124h -6" fill="none" stroke="black"/>
<path d="M63,117h -6" fill="none" stroke="black"/>
<path d="M63,110h -6" fill="none" stroke="black"/>
<path d="M63,103h -6" fill="none" stroke="black"/>
<path d="M70,95h -13" fill="none" stroke="black"/>
<path d="M63,88h -6" fill="none" stroke="black"/>
<path d="M63,81h -6" fill="none" stroke="black"/>
<path d="M63,74h -6" fill="none" stroke="black"/>
<path d="M63,67h -6" fill="none" stroke="black"/>
<path d="M70,60h -13" fill="none" stroke="black"/>
<path d="M70,60h -13" fill="none" stroke="black"/>
<path d="M63,53h -6" fill="none" stroke="black"/>
<path d="M63,45h -6" fill="none" stroke="black"/>
<path d="M63,38h -6" fill="none" stroke="black"/>
<text x="47" y="350" fill="black" font-size="12" font-family="Helvetica">
0
</text>
<text x="47" y="314" fill="black" font-size="12" font-family="Helvetica">
5
</text>
<text x="41" y="279" fill="black" font-size="12" font-family="Helvetica">
10
</text>
<text x="40" y="243" fill="black" font-size="12" font-family="Helvetica">
15
</text>
<text x="41" y="207" fill="black" font-size="12" font-family="Helvetica">
20
</text>
<text x="40" y="171" fill="black" font-size="12" font-family="Helvetica">
25
</text>
<text x="41" y="136" fill="black" font-size="12" font-family="Helvetica">
30
</text>
<text x="40" y="100" fill="black" font-size="12" font-family="Helvetica">
35
</text>
<text x="41" y="64" fill="black" font-size="12" font-family="Helvetica">
40
</text>
<rect x="398" y="24" width="158" height="152" fill="white"/>
<path d="M398,176h 158" fill="none" stroke="black"/>
<path d="M556,176v -152" fill="none" stroke="black"/>
<path d="M556,24h -158" fill="none" stroke="black"/>
<path d="M398,24v 152" fill="none" stroke="black"/>
<text x="466" y="36" fill="black" font-size="14" font-family="Helvetica">
hpt
</text>
<path d="M398,41h 158" fill="none" stroke="black"/>
<text x="406" y="53" fill="black" font-size="11" font-family="Helvetica">
Entries 
</text>
<text x="527" y="53" fill="black" font-size="11" font-family="Helvetica">
 500
</text>
<text x="406" y="70" fill="black" font-size="11" font-family="Helvetica">
Mean  
</text>
<text x="517" y="70" fill="black" font-size="11" font-family="Helvetica">
  5.011
</text>
<text x="406" y="87" fill="black" font-size="11" font-family="Helvetica">
RMS   
</text>
<text x="507" y="87" fill="black" font-size="11" font-family="Helvetica">
 0.06672
</text>
<text x="415" y="104" fill="black" font-size="11" font-family="Helvetica">
 / ndf 
</text>
<text x="411" y="100" fill="black" font-size="7" font-family="Helvetica">
2
</text>
<text x="406" y="104" fill="black" font-size="11" font-family="Times">
&#0967;
</text>
<text x="498" y="104" fill="black" font-size="11" font-family="Helvetica">
 40.17 / 36
</text>
<text x="406" y="121" fill="black" font-size="11" font-family="Helvetica">
Prob  
</text>
<text x="512" y="121" fill="black" font-size="11" font-family="Helvetica">
 0.2908
</text>
<text x="406" y="138" fill="black" font-size="11" font-family="Helvetica">
Constant 
</text>
<text x="524" y="138" fill="black" font-size="11" font-family="Helvetica">
 1.85
</text>
<text x="517" y="138" fill="black" font-size="11" font-family="Times">
&#0177;
</text>
<text x="485" y="138" fill="black" font-size="11" font-family="Helvetica">
 30.26 
</text>
<text x="406" y="154" fill="black" font-size="11" font-family="Helvetica">
Mean     
</text>
<text x="518" y="154" fill="black" font-size="11" font-family="Helvetica">
 0.003
</text>
<text x="512" y="154" fill="black" font-size="11" font-family="Times">
&#0177;
</text>
<text x="480" y="154" fill="black" font-size="11" font-family="Helvetica">
 5.008 
</text>
<text x="406" y="171" fill="black" font-size="11" font-family="Helvetica">
Sigma    
</text>
<text x="506" y="171" fill="black" font-size="11" font-family="Helvetica">
 0.00228
</text>
<text x="499" y="171" fill="black" font-size="11" font-family="Times">
&#0177;
</text>
<text x="455" y="171" fill="black" font-size="11" font-family="Helvetica">
 0.05793 
</text></svg>
