<?xml version="1.0" standalone="no"?>
<svg width="567" height="384" viewBox="0 0 567 384" xmlns="http://www.w3.org/2000/svg">
<title>
/home/ubuntuuser/geant_exercises/geant-exercises-karnivool/Exercise 6/6b momentum 3.svg
</title>
<desc>
Creator: ROOT Version 5.32/04
CreationDate: Wed Jan 24 16:45:11 2024</desc>
<defs>
</defs>
<rect x="0" y="0" width="567" height="384" fill="white"/>
<rect x="56" y="39" width="454" height="307" fill="white"/>
<rect x="56" y="39" width="454" height="307" fill="none" stroke="black"/>
<rect x="56" y="39" width="454" height="307" fill="white"/>
<rect x="56" y="39" width="454" height="307" fill="none" stroke="black"/>
<path d="M56,346h 141v -6h 9v 6h 4v -6h 5v 6h 5v -6h 9v -6h 4v -13h 5v 25h 9v -25h 4v -24h 5v -55h 4v 6h 5v 6h 4v -201h 5v 98h 5v -79h 4v 18h 5v -25h 9v 55h 4v 61h 5v 18h 4v 37h 5v 37h 9v 42h 4v 6h 5v 13h 9v 6h 9v 6h 5v -6h 4v 6h 5v -6h 13v 6h 82v
 -6h 5v -6h 4v 6h 5v 6h 13v -6h 5v 6h 18" fill="none" stroke="#000099"/>
<rect x="403" y="24" width="153" height="149" fill="white"/>
<path d="M403,173h 153" fill="none" stroke="black"/>
<path d="M556,173v -149" fill="none" stroke="black"/>
<path d="M556,24h -153" fill="none" stroke="black"/>
<path d="M403,24v 149" fill="none" stroke="black"/>
<text x="469" y="36" fill="black" font-size="14" font-family="Helvetica">
hpt
</text>
<path d="M403,41h 153" fill="none" stroke="black"/>
<text x="411" y="52" fill="black" font-size="11" font-family="Helvetica">
Entries 
</text>
<text x="527" y="52" fill="black" font-size="11" font-family="Helvetica">
 500
</text>
<text x="411" y="69" fill="black" font-size="11" font-family="Helvetica">
Mean  
</text>
<text x="515" y="69" fill="black" font-size="11" font-family="Helvetica">
  3.009
</text>
<text x="411" y="86" fill="black" font-size="11" font-family="Helvetica">
RMS   
</text>
<text x="506" y="86" fill="black" font-size="11" font-family="Helvetica">
 0.03777
</text>
<text x="420" y="102" fill="black" font-size="11" font-family="Helvetica">
 / ndf 
</text>
<text x="416" y="98" fill="black" font-size="7" font-family="Helvetica">
2
</text>
<text x="411" y="102" fill="black" font-size="11" font-family="Times">
&#0967;
</text>
<text x="503" y="102" fill="black" font-size="11" font-family="Helvetica">
    35 / 35
</text>
<text x="411" y="118" fill="black" font-size="11" font-family="Helvetica">
Prob  
</text>
<text x="512" y="118" fill="black" font-size="11" font-family="Helvetica">
 0.4683
</text>
<text x="411" y="136" fill="black" font-size="11" font-family="Helvetica">
Constant 
</text>
<text x="524" y="136" fill="black" font-size="11" font-family="Helvetica">
 2.73
</text>
<text x="517" y="136" fill="black" font-size="11" font-family="Times">
&#0177;
</text>
<text x="485" y="136" fill="black" font-size="11" font-family="Helvetica">
 42.84 
</text>
<text x="411" y="152" fill="black" font-size="11" font-family="Helvetica">
Mean     
</text>
<text x="520" y="152" fill="black" font-size="11" font-family="Helvetica">
 0.001
</text>
<text x="513" y="152" fill="black" font-size="11" font-family="Times">
&#0177;
</text>
<text x="481" y="152" fill="black" font-size="11" font-family="Helvetica">
 3.007 
</text>
<text x="411" y="167" fill="black" font-size="11" font-family="Helvetica">
Sigma    
</text>
<text x="507" y="168" fill="black" font-size="11" font-family="Helvetica">
 0.00115
</text>
<text x="500" y="168" fill="black" font-size="11" font-family="Times">
&#0177;
</text>
<text x="456" y="168" fill="black" font-size="11" font-family="Helvetica">
 0.02538 
</text>
<path d="M58,346h 155l 4, -1h 5l 4, -1l 5, -1l 4, -3l 5, -5l 4, -9l 5, -13l 5, -19l 4, -25l 5, -31l 4, -36l 5, -37l 4, -35l 5, -27" fill="none" stroke="#ff0000" stroke-width="2"/>
<path d="M281,103l 4, -15l 5, -2l 4, 12l 5, 25l 4, 33l 5, 37l 5, 36l 4, 33l 5, 27l 4, 20l 5, 14l 4, 10l 5, 6l 4, 3l 5, 2l 4, 1h 5l 4, 1h 141" fill="none" stroke="#ff0000" stroke-width="2"/>
<path d="M503,346h 5" fill="none" stroke="#ff0000" stroke-width="2"/>
<path d="M56,346h 454" fill="none" stroke="black"/>
<text x="476" y="369" fill="black" font-size="12" font-family="Helvetica">
 [GeV]
</text>
<text x="471" y="375" fill="black" font-size="8" font-family="Helvetica">
T
</text>
<text x="461" y="369" fill="black" font-size="12" font-family="Helvetica">
 p
</text>
<path d="M56,336v 10" fill="none" stroke="black"/>
<path d="M71,341v 5" fill="none" stroke="black"/>
<path d="M86,341v 5" fill="none" stroke="black"/>
<path d="M102,341v 5" fill="none" stroke="black"/>
<path d="M117,341v 5" fill="none" stroke="black"/>
<path d="M132,336v 10" fill="none" stroke="black"/>
<path d="M147,341v 5" fill="none" stroke="black"/>
<path d="M162,341v 5" fill="none" stroke="black"/>
<path d="M177,341v 5" fill="none" stroke="black"/>
<path d="M192,341v 5" fill="none" stroke="black"/>
<path d="M207,336v 10" fill="none" stroke="black"/>
<path d="M223,341v 5" fill="none" stroke="black"/>
<path d="M238,341v 5" fill="none" stroke="black"/>
<path d="M253,341v 5" fill="none" stroke="black"/>
<path d="M268,341v 5" fill="none" stroke="black"/>
<path d="M283,336v 10" fill="none" stroke="black"/>
<path d="M298,341v 5" fill="none" stroke="black"/>
<path d="M313,341v 5" fill="none" stroke="black"/>
<path d="M328,341v 5" fill="none" stroke="black"/>
<path d="M344,341v 5" fill="none" stroke="black"/>
<path d="M359,336v 10" fill="none" stroke="black"/>
<path d="M374,341v 5" fill="none" stroke="black"/>
<path d="M389,341v 5" fill="none" stroke="black"/>
<path d="M404,341v 5" fill="none" stroke="black"/>
<path d="M419,341v 5" fill="none" stroke="black"/>
<path d="M434,336v 10" fill="none" stroke="black"/>
<path d="M449,341v 5" fill="none" stroke="black"/>
<path d="M465,341v 5" fill="none" stroke="black"/>
<path d="M480,341v 5" fill="none" stroke="black"/>
<path d="M495,341v 5" fill="none" stroke="black"/>
<path d="M510,336v 10" fill="none" stroke="black"/>
<text x="47" y="358" fill="black" font-size="12" font-family="Helvetica">
2.7
</text>
<text x="122" y="358" fill="black" font-size="12" font-family="Helvetica">
2.8
</text>
<text x="198" y="358" fill="black" font-size="12" font-family="Helvetica">
2.9
</text>
<text x="279" y="358" fill="black" font-size="12" font-family="Helvetica">
3
</text>
<text x="350" y="358" fill="black" font-size="12" font-family="Helvetica">
3.1
</text>
<text x="425" y="358" fill="black" font-size="12" font-family="Helvetica">
3.2
</text>
<text x="501" y="358" fill="black" font-size="12" font-family="Helvetica">
3.3
</text>
<path d="M56,346v -307" fill="none" stroke="black"/>
<path d="M70,346h -14" fill="none" stroke="black"/>
<path d="M63,334h -7" fill="none" stroke="black"/>
<path d="M63,321h -7" fill="none" stroke="black"/>
<path d="M63,309h -7" fill="none" stroke="black"/>
<path d="M63,297h -7" fill="none" stroke="black"/>
<path d="M70,285h -14" fill="none" stroke="black"/>
<path d="M63,273h -7" fill="none" stroke="black"/>
<path d="M63,260h -7" fill="none" stroke="black"/>
<path d="M63,248h -7" fill="none" stroke="black"/>
<path d="M63,236h -7" fill="none" stroke="black"/>
<path d="M70,224h -14" fill="none" stroke="black"/>
<path d="M63,212h -7" fill="none" stroke="black"/>
<path d="M63,199h -7" fill="none" stroke="black"/>
<path d="M63,187h -7" fill="none" stroke="black"/>
<path d="M63,175h -7" fill="none" stroke="black"/>
<path d="M70,163h -14" fill="none" stroke="black"/>
<path d="M63,151h -7" fill="none" stroke="black"/>
<path d="M63,139h -7" fill="none" stroke="black"/>
<path d="M63,126h -7" fill="none" stroke="black"/>
<path d="M63,114h -7" fill="none" stroke="black"/>
<path d="M70,102h -14" fill="none" stroke="black"/>
<path d="M63,90h -7" fill="none" stroke="black"/>
<path d="M63,78h -7" fill="none" stroke="black"/>
<path d="M63,65h -7" fill="none" stroke="black"/>
<path d="M63,53h -7" fill="none" stroke="black"/>
<path d="M70,41h -14" fill="none" stroke="black"/>
<path d="M70,41h -14" fill="none" stroke="black"/>
<text x="46" y="351" fill="black" font-size="12" font-family="Helvetica">
0
</text>
<text x="40" y="290" fill="black" font-size="12" font-family="Helvetica">
10
</text>
<text x="40" y="228" fill="black" font-size="12" font-family="Helvetica">
20
</text>
<text x="40" y="167" fill="black" font-size="12" font-family="Helvetica">
30
</text>
<text x="40" y="106" fill="black" font-size="12" font-family="Helvetica">
40
</text>
<text x="40" y="45" fill="black" font-size="12" font-family="Helvetica">
50
</text>
<rect x="403" y="24" width="153" height="149" fill="white"/>
<path d="M403,173h 153" fill="none" stroke="black"/>
<path d="M556,173v -149" fill="none" stroke="black"/>
<path d="M556,24h -153" fill="none" stroke="black"/>
<path d="M403,24v 149" fill="none" stroke="black"/>
<text x="469" y="36" fill="black" font-size="14" font-family="Helvetica">
hpt
</text>
<path d="M403,41h 153" fill="none" stroke="black"/>
<text x="411" y="52" fill="black" font-size="11" font-family="Helvetica">
Entries 
</text>
<text x="527" y="52" fill="black" font-size="11" font-family="Helvetica">
 500
</text>
<text x="411" y="69" fill="black" font-size="11" font-family="Helvetica">
Mean  
</text>
<text x="515" y="69" fill="black" font-size="11" font-family="Helvetica">
  3.009
</text>
<text x="411" y="86" fill="black" font-size="11" font-family="Helvetica">
RMS   
</text>
<text x="506" y="86" fill="black" font-size="11" font-family="Helvetica">
 0.03777
</text>
<text x="420" y="102" fill="black" font-size="11" font-family="Helvetica">
 / ndf 
</text>
<text x="416" y="98" fill="black" font-size="7" font-family="Helvetica">
2
</text>
<text x="411" y="102" fill="black" font-size="11" font-family="Times">
&#0967;
</text>
<text x="503" y="102" fill="black" font-size="11" font-family="Helvetica">
    35 / 35
</text>
<text x="411" y="118" fill="black" font-size="11" font-family="Helvetica">
Prob  
</text>
<text x="512" y="118" fill="black" font-size="11" font-family="Helvetica">
 0.4683
</text>
<text x="411" y="136" fill="black" font-size="11" font-family="Helvetica">
Constant 
</text>
<text x="524" y="136" fill="black" font-size="11" font-family="Helvetica">
 2.73
</text>
<text x="517" y="136" fill="black" font-size="11" font-family="Times">
&#0177;
</text>
<text x="485" y="136" fill="black" font-size="11" font-family="Helvetica">
 42.84 
</text>
<text x="411" y="152" fill="black" font-size="11" font-family="Helvetica">
Mean     
</text>
<text x="520" y="152" fill="black" font-size="11" font-family="Helvetica">
 0.001
</text>
<text x="513" y="152" fill="black" font-size="11" font-family="Times">
&#0177;
</text>
<text x="481" y="152" fill="black" font-size="11" font-family="Helvetica">
 3.007 
</text>
<text x="411" y="167" fill="black" font-size="11" font-family="Helvetica">
Sigma    
</text>
<text x="507" y="168" fill="black" font-size="11" font-family="Helvetica">
 0.00115
</text>
<text x="500" y="168" fill="black" font-size="11" font-family="Times">
&#0177;
</text>
<text x="456" y="168" fill="black" font-size="11" font-family="Helvetica">
 0.02538 
</text></svg>
