<?xml version="1.0" standalone="no"?>
<svg width="567" height="384" viewBox="0 0 567 384" xmlns="http://www.w3.org/2000/svg">
<title>
/home/ubuntuuser/geant_exercises/geant-exercises-karnivool/Exercise 6/5c magnet 6.svg
</title>
<desc>
Creator: ROOT Version 5.32/04
CreationDate: Wed Jan 24 17:04:10 2024</desc>
<defs>
</defs>
<rect x="0" y="0" width="567" height="384" fill="white"/>
<rect x="57" y="38" width="453" height="308" fill="white"/>
<rect x="57" y="38" width="453" height="308" fill="none" stroke="black"/>
<rect x="57" y="38" width="453" height="308" fill="white"/>
<rect x="57" y="38" width="453" height="308" fill="none" stroke="black"/>
<path d="M57,346h 9v -5h 9v 5h 59v -5h 4v 5h 32v -5h 9v 5h 18v -5h 5v 5h 23v -5h 4v 5h 5v -5h 9v 5h 4v -5h 5v -4h 9v -23h 4v -71h 5v 14h 4v -9h 5v -102h 4v -62h 5v 17h 5v -48h 4v 80h 5v 44h 4v 71h 5v -18h 4v 53h 5v 36h 4v -13h 5v 26h 9v 14h 13v -5h
 10v 5h 9v -5h 4v 5h 5v -5h 9v 5h 22v -5h 10v 5h 4v -5h 5v 5h 9v -5h 4v 5h 9v -5h 5v 5h 13v -9h 5v 9h 18v -9h 5v 9h 13" fill="none" stroke="#000099"/>
<rect x="393" y="24" width="163" height="143" fill="white"/>
<path d="M393,167h 163" fill="none" stroke="black"/>
<path d="M556,167v -143" fill="none" stroke="black"/>
<path d="M556,24h -163" fill="none" stroke="black"/>
<path d="M393,24v 143" fill="none" stroke="black"/>
<text x="464" y="35" fill="black" font-size="13" font-family="Helvetica">
hpt
</text>
<path d="M393,40h 163" fill="none" stroke="black"/>
<text x="401" y="52" fill="black" font-size="11" font-family="Helvetica">
Entries 
</text>
<text x="525" y="52" fill="black" font-size="11" font-family="Helvetica">
 500
</text>
<text x="401" y="68" fill="black" font-size="11" font-family="Helvetica">
Mean  
</text>
<text x="512" y="68" fill="black" font-size="11" font-family="Helvetica">
  5.012
</text>
<text x="401" y="84" fill="black" font-size="11" font-family="Helvetica">
RMS   
</text>
<text x="505" y="84" fill="black" font-size="11" font-family="Helvetica">
 0.03671
</text>
<text x="411" y="100" fill="black" font-size="11" font-family="Helvetica">
 / ndf 
</text>
<text x="407" y="96" fill="black" font-size="7" font-family="Helvetica">
2
</text>
<text x="401" y="100" fill="black" font-size="11" font-family="Times">
&#0967;
</text>
<text x="494" y="101" fill="black" font-size="11" font-family="Helvetica">
 46.45 / 38
</text>
<text x="401" y="116" fill="black" font-size="11" font-family="Helvetica">
Prob  
</text>
<text x="509" y="116" fill="black" font-size="11" font-family="Helvetica">
 0.1633
</text>
<text x="401" y="132" fill="black" font-size="11" font-family="Helvetica">
Constant 
</text>
<text x="522" y="132" fill="black" font-size="11" font-family="Helvetica">
 3.44
</text>
<text x="516" y="132" fill="black" font-size="11" font-family="Times">
&#0177;
</text>
<text x="481" y="132" fill="black" font-size="11" font-family="Helvetica">
 55.36 
</text>
<text x="401" y="148" fill="black" font-size="11" font-family="Helvetica">
Mean     
</text>
<text x="522" y="148" fill="black" font-size="11" font-family="Helvetica">
 0.00
</text>
<text x="516" y="148" fill="black" font-size="11" font-family="Times">
&#0177;
</text>
<text x="486" y="148" fill="black" font-size="11" font-family="Helvetica">
  5.01 
</text>
<text x="401" y="163" fill="black" font-size="11" font-family="Helvetica">
Sigma    
</text>
<text x="503" y="164" fill="black" font-size="11" font-family="Helvetica">
 0.00066
</text>
<text x="497" y="164" fill="black" font-size="11" font-family="Times">
&#0177;
</text>
<text x="450" y="164" fill="black" font-size="11" font-family="Helvetica">
 0.01615 
</text>
<path d="M59,346h 172l 5, -1h 4l 5, -1l 4, -2l 5, -4l 5, -9l 4, -15l 5, -26l 4, -35l 5, -43l 4, -46" fill="none" stroke="#ff0000" stroke-width="2"/>
<path d="M281,164l 5, -38l 4, -23h 5l 4, 21l 5, 39l 4, 45l 5, 44l 4, 35l 5, 26l 5, 16l 4, 9l 5, 4l 4, 2l 5, 1h 4l 5, 1h 149" fill="none" stroke="#ff0000" stroke-width="2"/>
<path d="M503,346h 5" fill="none" stroke="#ff0000" stroke-width="2"/>
<path d="M57,346h 453" fill="none" stroke="black"/>
<text x="476" y="369" fill="black" font-size="12" font-family="Helvetica">
 [GeV]
</text>
<text x="471" y="375" fill="black" font-size="8" font-family="Helvetica">
T
</text>
<text x="461" y="369" fill="black" font-size="12" font-family="Helvetica">
 p
</text>
<path d="M57,336v 10" fill="none" stroke="black"/>
<path d="M66,341v 5" fill="none" stroke="black"/>
<path d="M75,341v 5" fill="none" stroke="black"/>
<path d="M84,341v 5" fill="none" stroke="black"/>
<path d="M93,341v 5" fill="none" stroke="black"/>
<path d="M102,336v 10" fill="none" stroke="black"/>
<path d="M111,341v 5" fill="none" stroke="black"/>
<path d="M120,341v 5" fill="none" stroke="black"/>
<path d="M129,341v 5" fill="none" stroke="black"/>
<path d="M138,341v 5" fill="none" stroke="black"/>
<path d="M147,336v 10" fill="none" stroke="black"/>
<path d="M156,341v 5" fill="none" stroke="black"/>
<path d="M166,341v 5" fill="none" stroke="black"/>
<path d="M175,341v 5" fill="none" stroke="black"/>
<path d="M184,341v 5" fill="none" stroke="black"/>
<path d="M193,336v 10" fill="none" stroke="black"/>
<path d="M202,341v 5" fill="none" stroke="black"/>
<path d="M211,341v 5" fill="none" stroke="black"/>
<path d="M220,341v 5" fill="none" stroke="black"/>
<path d="M229,341v 5" fill="none" stroke="black"/>
<path d="M238,336v 10" fill="none" stroke="black"/>
<path d="M247,341v 5" fill="none" stroke="black"/>
<path d="M256,341v 5" fill="none" stroke="black"/>
<path d="M265,341v 5" fill="none" stroke="black"/>
<path d="M274,341v 5" fill="none" stroke="black"/>
<path d="M283,336v 10" fill="none" stroke="black"/>
<path d="M293,341v 5" fill="none" stroke="black"/>
<path d="M302,341v 5" fill="none" stroke="black"/>
<path d="M311,341v 5" fill="none" stroke="black"/>
<path d="M320,341v 5" fill="none" stroke="black"/>
<path d="M329,336v 10" fill="none" stroke="black"/>
<path d="M338,341v 5" fill="none" stroke="black"/>
<path d="M347,341v 5" fill="none" stroke="black"/>
<path d="M356,341v 5" fill="none" stroke="black"/>
<path d="M365,341v 5" fill="none" stroke="black"/>
<path d="M374,336v 10" fill="none" stroke="black"/>
<path d="M383,341v 5" fill="none" stroke="black"/>
<path d="M392,341v 5" fill="none" stroke="black"/>
<path d="M401,341v 5" fill="none" stroke="black"/>
<path d="M410,341v 5" fill="none" stroke="black"/>
<path d="M420,336v 10" fill="none" stroke="black"/>
<path d="M429,341v 5" fill="none" stroke="black"/>
<path d="M438,341v 5" fill="none" stroke="black"/>
<path d="M447,341v 5" fill="none" stroke="black"/>
<path d="M456,341v 5" fill="none" stroke="black"/>
<path d="M465,336v 10" fill="none" stroke="black"/>
<path d="M474,341v 5" fill="none" stroke="black"/>
<path d="M483,341v 5" fill="none" stroke="black"/>
<path d="M492,341v 5" fill="none" stroke="black"/>
<path d="M501,341v 5" fill="none" stroke="black"/>
<path d="M510,336v 10" fill="none" stroke="black"/>
<path d="M510,336v 10" fill="none" stroke="black"/>
<text x="44" y="358" fill="black" font-size="12" font-family="Helvetica">
4.75
</text>
<text x="93" y="358" fill="black" font-size="12" font-family="Helvetica">
4.8
</text>
<text x="134" y="358" fill="black" font-size="12" font-family="Helvetica">
4.85
</text>
<text x="183" y="358" fill="black" font-size="12" font-family="Helvetica">
4.9
</text>
<text x="226" y="358" fill="black" font-size="12" font-family="Helvetica">
4.95
</text>
<text x="280" y="358" fill="black" font-size="12" font-family="Helvetica">
5
</text>
<text x="316" y="358" fill="black" font-size="12" font-family="Helvetica">
5.05
</text>
<text x="366" y="358" fill="black" font-size="12" font-family="Helvetica">
5.1
</text>
<text x="407" y="358" fill="black" font-size="12" font-family="Helvetica">
5.15
</text>
<text x="455" y="358" fill="black" font-size="12" font-family="Helvetica">
5.2
</text>
<text x="498" y="358" fill="black" font-size="12" font-family="Helvetica">
5.25
</text>
<path d="M57,346v -308" fill="none" stroke="black"/>
<path d="M70,346h -13" fill="none" stroke="black"/>
<path d="M63,337h -6" fill="none" stroke="black"/>
<path d="M63,328h -6" fill="none" stroke="black"/>
<path d="M63,319h -6" fill="none" stroke="black"/>
<path d="M63,310h -6" fill="none" stroke="black"/>
<path d="M70,301h -13" fill="none" stroke="black"/>
<path d="M63,292h -6" fill="none" stroke="black"/>
<path d="M63,283h -6" fill="none" stroke="black"/>
<path d="M63,275h -6" fill="none" stroke="black"/>
<path d="M63,266h -6" fill="none" stroke="black"/>
<path d="M70,257h -13" fill="none" stroke="black"/>
<path d="M63,248h -6" fill="none" stroke="black"/>
<path d="M63,239h -6" fill="none" stroke="black"/>
<path d="M63,230h -6" fill="none" stroke="black"/>
<path d="M63,221h -6" fill="none" stroke="black"/>
<path d="M70,212h -13" fill="none" stroke="black"/>
<path d="M63,204h -6" fill="none" stroke="black"/>
<path d="M63,195h -6" fill="none" stroke="black"/>
<path d="M63,186h -6" fill="none" stroke="black"/>
<path d="M63,177h -6" fill="none" stroke="black"/>
<path d="M70,168h -13" fill="none" stroke="black"/>
<path d="M63,159h -6" fill="none" stroke="black"/>
<path d="M63,150h -6" fill="none" stroke="black"/>
<path d="M63,141h -6" fill="none" stroke="black"/>
<path d="M63,133h -6" fill="none" stroke="black"/>
<path d="M70,124h -13" fill="none" stroke="black"/>
<path d="M63,115h -6" fill="none" stroke="black"/>
<path d="M63,106h -6" fill="none" stroke="black"/>
<path d="M63,97h -6" fill="none" stroke="black"/>
<path d="M63,88h -6" fill="none" stroke="black"/>
<path d="M70,79h -13" fill="none" stroke="black"/>
<path d="M70,79h -13" fill="none" stroke="black"/>
<path d="M63,70h -6" fill="none" stroke="black"/>
<path d="M63,62h -6" fill="none" stroke="black"/>
<path d="M63,53h -6" fill="none" stroke="black"/>
<path d="M63,44h -6" fill="none" stroke="black"/>
<text x="47" y="350" fill="black" font-size="12" font-family="Helvetica">
0
</text>
<text x="41" y="306" fill="black" font-size="12" font-family="Helvetica">
10
</text>
<text x="41" y="261" fill="black" font-size="12" font-family="Helvetica">
20
</text>
<text x="41" y="217" fill="black" font-size="12" font-family="Helvetica">
30
</text>
<text x="41" y="172" fill="black" font-size="12" font-family="Helvetica">
40
</text>
<text x="41" y="128" fill="black" font-size="12" font-family="Helvetica">
50
</text>
<text x="41" y="83" fill="black" font-size="12" font-family="Helvetica">
60
</text>
<rect x="393" y="24" width="163" height="143" fill="white"/>
<path d="M393,167h 163" fill="none" stroke="black"/>
<path d="M556,167v -143" fill="none" stroke="black"/>
<path d="M556,24h -163" fill="none" stroke="black"/>
<path d="M393,24v 143" fill="none" stroke="black"/>
<text x="464" y="35" fill="black" font-size="13" font-family="Helvetica">
hpt
</text>
<path d="M393,40h 163" fill="none" stroke="black"/>
<text x="401" y="52" fill="black" font-size="11" font-family="Helvetica">
Entries 
</text>
<text x="525" y="52" fill="black" font-size="11" font-family="Helvetica">
 500
</text>
<text x="401" y="68" fill="black" font-size="11" font-family="Helvetica">
Mean  
</text>
<text x="512" y="68" fill="black" font-size="11" font-family="Helvetica">
  5.012
</text>
<text x="401" y="84" fill="black" font-size="11" font-family="Helvetica">
RMS   
</text>
<text x="505" y="84" fill="black" font-size="11" font-family="Helvetica">
 0.03671
</text>
<text x="411" y="100" fill="black" font-size="11" font-family="Helvetica">
 / ndf 
</text>
<text x="407" y="96" fill="black" font-size="7" font-family="Helvetica">
2
</text>
<text x="401" y="100" fill="black" font-size="11" font-family="Times">
&#0967;
</text>
<text x="494" y="101" fill="black" font-size="11" font-family="Helvetica">
 46.45 / 38
</text>
<text x="401" y="116" fill="black" font-size="11" font-family="Helvetica">
Prob  
</text>
<text x="509" y="116" fill="black" font-size="11" font-family="Helvetica">
 0.1633
</text>
<text x="401" y="132" fill="black" font-size="11" font-family="Helvetica">
Constant 
</text>
<text x="522" y="132" fill="black" font-size="11" font-family="Helvetica">
 3.44
</text>
<text x="516" y="132" fill="black" font-size="11" font-family="Times">
&#0177;
</text>
<text x="481" y="132" fill="black" font-size="11" font-family="Helvetica">
 55.36 
</text>
<text x="401" y="148" fill="black" font-size="11" font-family="Helvetica">
Mean     
</text>
<text x="522" y="148" fill="black" font-size="11" font-family="Helvetica">
 0.00
</text>
<text x="516" y="148" fill="black" font-size="11" font-family="Times">
&#0177;
</text>
<text x="486" y="148" fill="black" font-size="11" font-family="Helvetica">
  5.01 
</text>
<text x="401" y="163" fill="black" font-size="11" font-family="Helvetica">
Sigma    
</text>
<text x="503" y="164" fill="black" font-size="11" font-family="Helvetica">
 0.00066
</text>
<text x="497" y="164" fill="black" font-size="11" font-family="Times">
&#0177;
</text>
<text x="450" y="164" fill="black" font-size="11" font-family="Helvetica">
 0.01615 
</text></svg>
