<?xml version="1.0" standalone="no"?>
<svg width="567" height="384" viewBox="0 0 567 384" xmlns="http://www.w3.org/2000/svg">
<title>
/home/ubuntuuser/geant_exercises/geant-exercises-karnivool/Exercise 6/5c magnet 4.svg
</title>
<desc>
Creator: ROOT Version 5.32/04
CreationDate: Wed Jan 24 17:01:28 2024</desc>
<defs>
</defs>
<rect x="0" y="0" width="567" height="384" fill="white"/>
<rect x="56" y="39" width="454" height="307" fill="white"/>
<rect x="56" y="39" width="454" height="307" fill="none" stroke="black"/>
<rect x="56" y="39" width="454" height="307" fill="white"/>
<rect x="56" y="39" width="454" height="307" fill="none" stroke="black"/>
<path d="M56,346h 114v -7h 4v 7h 41v -7h 9v 7h 5v -7h 13v -19h 5v 7h 4v -39h 5v -6h 4v -38h 5v -19h 4v -26h 5v -50h 5v -39h 4v -19h 5v -38h 4v 64h 5v 13h 4v -20h 5v 83h 4v -32h 5v 64h 4v -6h 5v 63h 4v 13h 5v 6h 5v 7h 4v 38h 5v -19h 4v 12h 9v 7h 5v
 -7h 9v 7h 18v -7h 4v 7h 73v -7h 5v 7h 9v -13h 4v 13h 23" fill="none" stroke="#000099"/>
<rect x="400" y="24" width="156" height="154" fill="white"/>
<path d="M400,178h 156" fill="none" stroke="black"/>
<path d="M556,178v -154" fill="none" stroke="black"/>
<path d="M556,24h -156" fill="none" stroke="black"/>
<path d="M400,24v 154" fill="none" stroke="black"/>
<text x="467" y="36" fill="black" font-size="14" font-family="Helvetica">
hpt
</text>
<path d="M400,41h 156" fill="none" stroke="black"/>
<text x="407" y="53" fill="black" font-size="11" font-family="Helvetica">
Entries 
</text>
<text x="527" y="53" fill="black" font-size="11" font-family="Helvetica">
 500
</text>
<text x="407" y="70" fill="black" font-size="11" font-family="Helvetica">
Mean  
</text>
<text x="515" y="70" fill="black" font-size="11" font-family="Helvetica">
  5.012
</text>
<text x="407" y="88" fill="black" font-size="11" font-family="Helvetica">
RMS   
</text>
<text x="506" y="88" fill="black" font-size="11" font-family="Helvetica">
 0.03043
</text>
<text x="417" y="105" fill="black" font-size="11" font-family="Helvetica">
 / ndf 
</text>
<text x="413" y="101" fill="black" font-size="7" font-family="Helvetica">
2
</text>
<text x="407" y="105" fill="black" font-size="11" font-family="Times">
&#0967;
</text>
<text x="498" y="105" fill="black" font-size="11" font-family="Helvetica">
 19.66 / 33
</text>
<text x="407" y="122" fill="black" font-size="11" font-family="Helvetica">
Prob  
</text>
<text x="512" y="122" fill="black" font-size="11" font-family="Helvetica">
 0.9679
</text>
<text x="407" y="139" fill="black" font-size="11" font-family="Helvetica">
Constant 
</text>
<text x="524" y="139" fill="black" font-size="11" font-family="Helvetica">
 2.33
</text>
<text x="517" y="139" fill="black" font-size="11" font-family="Times">
&#0177;
</text>
<text x="485" y="139" fill="black" font-size="11" font-family="Helvetica">
 39.05 
</text>
<text x="407" y="156" fill="black" font-size="11" font-family="Helvetica">
Mean     
</text>
<text x="520" y="156" fill="black" font-size="11" font-family="Helvetica">
 0.001
</text>
<text x="513" y="156" fill="black" font-size="11" font-family="Times">
&#0177;
</text>
<text x="484" y="156" fill="black" font-size="11" font-family="Helvetica">
 5.011 
</text>
<text x="407" y="172" fill="black" font-size="11" font-family="Helvetica">
Sigma    
</text>
<text x="506" y="173" fill="black" font-size="11" font-family="Helvetica">
 0.00093
</text>
<text x="499" y="173" fill="black" font-size="11" font-family="Times">
&#0177;
</text>
<text x="455" y="173" fill="black" font-size="11" font-family="Helvetica">
 0.02393 
</text>
<path d="M58,346h 150l 5, -1h 9l 4, -1l 5, -2l 4, -4l 5, -5l 4, -7l 5, -12l 5, -15l 4, -21l 5, -25l 4, -29l 5, -31l 4, -31l 5, -27" fill="none" stroke="#ff0000" stroke-width="2"/>
<path d="M281,135l 4, -22l 5, -13l 4, -2l 5, 8l 4, 18l 5, 25l 5, 30l 4, 31l 5, 31l 4, 26l 5, 23l 4, 18l 5, 13l 4, 9l 5, 6l 4, 4l 5, 3l 4, 1l 5, 1h 5l 4, 1h 127" fill="none" stroke="#ff0000" stroke-width="2"/>
<path d="M503,346h 5" fill="none" stroke="#ff0000" stroke-width="2"/>
<path d="M56,346h 454" fill="none" stroke="black"/>
<text x="476" y="369" fill="black" font-size="12" font-family="Helvetica">
 [GeV]
</text>
<text x="471" y="375" fill="black" font-size="8" font-family="Helvetica">
T
</text>
<text x="461" y="369" fill="black" font-size="12" font-family="Helvetica">
 p
</text>
<path d="M56,336v 10" fill="none" stroke="black"/>
<path d="M65,341v 5" fill="none" stroke="black"/>
<path d="M74,341v 5" fill="none" stroke="black"/>
<path d="M83,341v 5" fill="none" stroke="black"/>
<path d="M93,341v 5" fill="none" stroke="black"/>
<path d="M102,336v 10" fill="none" stroke="black"/>
<path d="M111,341v 5" fill="none" stroke="black"/>
<path d="M120,341v 5" fill="none" stroke="black"/>
<path d="M129,341v 5" fill="none" stroke="black"/>
<path d="M138,341v 5" fill="none" stroke="black"/>
<path d="M147,336v 10" fill="none" stroke="black"/>
<path d="M156,341v 5" fill="none" stroke="black"/>
<path d="M165,341v 5" fill="none" stroke="black"/>
<path d="M174,341v 5" fill="none" stroke="black"/>
<path d="M183,341v 5" fill="none" stroke="black"/>
<path d="M192,336v 10" fill="none" stroke="black"/>
<path d="M201,341v 5" fill="none" stroke="black"/>
<path d="M210,341v 5" fill="none" stroke="black"/>
<path d="M220,341v 5" fill="none" stroke="black"/>
<path d="M229,341v 5" fill="none" stroke="black"/>
<path d="M238,336v 10" fill="none" stroke="black"/>
<path d="M247,341v 5" fill="none" stroke="black"/>
<path d="M256,341v 5" fill="none" stroke="black"/>
<path d="M265,341v 5" fill="none" stroke="black"/>
<path d="M274,341v 5" fill="none" stroke="black"/>
<path d="M283,336v 10" fill="none" stroke="black"/>
<path d="M292,341v 5" fill="none" stroke="black"/>
<path d="M301,341v 5" fill="none" stroke="black"/>
<path d="M310,341v 5" fill="none" stroke="black"/>
<path d="M319,341v 5" fill="none" stroke="black"/>
<path d="M328,336v 10" fill="none" stroke="black"/>
<path d="M338,341v 5" fill="none" stroke="black"/>
<path d="M347,341v 5" fill="none" stroke="black"/>
<path d="M356,341v 5" fill="none" stroke="black"/>
<path d="M365,341v 5" fill="none" stroke="black"/>
<path d="M374,336v 10" fill="none" stroke="black"/>
<path d="M383,341v 5" fill="none" stroke="black"/>
<path d="M392,341v 5" fill="none" stroke="black"/>
<path d="M401,341v 5" fill="none" stroke="black"/>
<path d="M410,341v 5" fill="none" stroke="black"/>
<path d="M419,336v 10" fill="none" stroke="black"/>
<path d="M428,341v 5" fill="none" stroke="black"/>
<path d="M437,341v 5" fill="none" stroke="black"/>
<path d="M446,341v 5" fill="none" stroke="black"/>
<path d="M455,341v 5" fill="none" stroke="black"/>
<path d="M465,336v 10" fill="none" stroke="black"/>
<path d="M474,341v 5" fill="none" stroke="black"/>
<path d="M483,341v 5" fill="none" stroke="black"/>
<path d="M492,341v 5" fill="none" stroke="black"/>
<path d="M501,341v 5" fill="none" stroke="black"/>
<path d="M510,336v 10" fill="none" stroke="black"/>
<path d="M510,336v 10" fill="none" stroke="black"/>
<text x="44" y="358" fill="black" font-size="12" font-family="Helvetica">
4.75
</text>
<text x="92" y="358" fill="black" font-size="12" font-family="Helvetica">
4.8
</text>
<text x="134" y="358" fill="black" font-size="12" font-family="Helvetica">
4.85
</text>
<text x="183" y="358" fill="black" font-size="12" font-family="Helvetica">
4.9
</text>
<text x="225" y="358" fill="black" font-size="12" font-family="Helvetica">
4.95
</text>
<text x="279" y="358" fill="black" font-size="12" font-family="Helvetica">
5
</text>
<text x="316" y="358" fill="black" font-size="12" font-family="Helvetica">
5.05
</text>
<text x="365" y="358" fill="black" font-size="12" font-family="Helvetica">
5.1
</text>
<text x="406" y="358" fill="black" font-size="12" font-family="Helvetica">
5.15
</text>
<text x="455" y="358" fill="black" font-size="12" font-family="Helvetica">
5.2
</text>
<text x="498" y="358" fill="black" font-size="12" font-family="Helvetica">
5.25
</text>
<path d="M56,346v -307" fill="none" stroke="black"/>
<path d="M70,346h -14" fill="none" stroke="black"/>
<path d="M63,339h -7" fill="none" stroke="black"/>
<path d="M63,333h -7" fill="none" stroke="black"/>
<path d="M63,327h -7" fill="none" stroke="black"/>
<path d="M63,320h -7" fill="none" stroke="black"/>
<path d="M70,314h -14" fill="none" stroke="black"/>
<path d="M63,308h -7" fill="none" stroke="black"/>
<path d="M63,301h -7" fill="none" stroke="black"/>
<path d="M63,295h -7" fill="none" stroke="black"/>
<path d="M63,288h -7" fill="none" stroke="black"/>
<path d="M70,282h -14" fill="none" stroke="black"/>
<path d="M63,276h -7" fill="none" stroke="black"/>
<path d="M63,269h -7" fill="none" stroke="black"/>
<path d="M63,263h -7" fill="none" stroke="black"/>
<path d="M63,257h -7" fill="none" stroke="black"/>
<path d="M70,250h -14" fill="none" stroke="black"/>
<path d="M63,244h -7" fill="none" stroke="black"/>
<path d="M63,238h -7" fill="none" stroke="black"/>
<path d="M63,231h -7" fill="none" stroke="black"/>
<path d="M63,225h -7" fill="none" stroke="black"/>
<path d="M70,219h -14" fill="none" stroke="black"/>
<path d="M63,212h -7" fill="none" stroke="black"/>
<path d="M63,206h -7" fill="none" stroke="black"/>
<path d="M63,199h -7" fill="none" stroke="black"/>
<path d="M63,193h -7" fill="none" stroke="black"/>
<path d="M70,187h -14" fill="none" stroke="black"/>
<path d="M63,180h -7" fill="none" stroke="black"/>
<path d="M63,174h -7" fill="none" stroke="black"/>
<path d="M63,168h -7" fill="none" stroke="black"/>
<path d="M63,161h -7" fill="none" stroke="black"/>
<path d="M70,155h -14" fill="none" stroke="black"/>
<path d="M63,149h -7" fill="none" stroke="black"/>
<path d="M63,142h -7" fill="none" stroke="black"/>
<path d="M63,136h -7" fill="none" stroke="black"/>
<path d="M63,130h -7" fill="none" stroke="black"/>
<path d="M70,123h -14" fill="none" stroke="black"/>
<path d="M63,117h -7" fill="none" stroke="black"/>
<path d="M63,110h -7" fill="none" stroke="black"/>
<path d="M63,104h -7" fill="none" stroke="black"/>
<path d="M63,98h -7" fill="none" stroke="black"/>
<path d="M70,91h -14" fill="none" stroke="black"/>
<path d="M63,85h -7" fill="none" stroke="black"/>
<path d="M63,79h -7" fill="none" stroke="black"/>
<path d="M63,72h -7" fill="none" stroke="black"/>
<path d="M63,66h -7" fill="none" stroke="black"/>
<path d="M70,60h -14" fill="none" stroke="black"/>
<path d="M70,60h -14" fill="none" stroke="black"/>
<path d="M63,53h -7" fill="none" stroke="black"/>
<path d="M63,47h -7" fill="none" stroke="black"/>
<path d="M63,41h -7" fill="none" stroke="black"/>
<text x="46" y="351" fill="black" font-size="12" font-family="Helvetica">
0
</text>
<text x="46" y="318" fill="black" font-size="12" font-family="Helvetica">
5
</text>
<text x="40" y="286" fill="black" font-size="12" font-family="Helvetica">
10
</text>
<text x="39" y="254" fill="black" font-size="12" font-family="Helvetica">
15
</text>
<text x="40" y="223" fill="black" font-size="12" font-family="Helvetica">
20
</text>
<text x="39" y="191" fill="black" font-size="12" font-family="Helvetica">
25
</text>
<text x="40" y="159" fill="black" font-size="12" font-family="Helvetica">
30
</text>
<text x="39" y="127" fill="black" font-size="12" font-family="Helvetica">
35
</text>
<text x="40" y="96" fill="black" font-size="12" font-family="Helvetica">
40
</text>
<text x="39" y="64" fill="black" font-size="12" font-family="Helvetica">
45
</text>
<rect x="400" y="24" width="156" height="154" fill="white"/>
<path d="M400,178h 156" fill="none" stroke="black"/>
<path d="M556,178v -154" fill="none" stroke="black"/>
<path d="M556,24h -156" fill="none" stroke="black"/>
<path d="M400,24v 154" fill="none" stroke="black"/>
<text x="467" y="36" fill="black" font-size="14" font-family="Helvetica">
hpt
</text>
<path d="M400,41h 156" fill="none" stroke="black"/>
<text x="407" y="53" fill="black" font-size="11" font-family="Helvetica">
Entries 
</text>
<text x="527" y="53" fill="black" font-size="11" font-family="Helvetica">
 500
</text>
<text x="407" y="70" fill="black" font-size="11" font-family="Helvetica">
Mean  
</text>
<text x="515" y="70" fill="black" font-size="11" font-family="Helvetica">
  5.012
</text>
<text x="407" y="88" fill="black" font-size="11" font-family="Helvetica">
RMS   
</text>
<text x="506" y="88" fill="black" font-size="11" font-family="Helvetica">
 0.03043
</text>
<text x="417" y="105" fill="black" font-size="11" font-family="Helvetica">
 / ndf 
</text>
<text x="413" y="101" fill="black" font-size="7" font-family="Helvetica">
2
</text>
<text x="407" y="105" fill="black" font-size="11" font-family="Times">
&#0967;
</text>
<text x="498" y="105" fill="black" font-size="11" font-family="Helvetica">
 19.66 / 33
</text>
<text x="407" y="122" fill="black" font-size="11" font-family="Helvetica">
Prob  
</text>
<text x="512" y="122" fill="black" font-size="11" font-family="Helvetica">
 0.9679
</text>
<text x="407" y="139" fill="black" font-size="11" font-family="Helvetica">
Constant 
</text>
<text x="524" y="139" fill="black" font-size="11" font-family="Helvetica">
 2.33
</text>
<text x="517" y="139" fill="black" font-size="11" font-family="Times">
&#0177;
</text>
<text x="485" y="139" fill="black" font-size="11" font-family="Helvetica">
 39.05 
</text>
<text x="407" y="156" fill="black" font-size="11" font-family="Helvetica">
Mean     
</text>
<text x="520" y="156" fill="black" font-size="11" font-family="Helvetica">
 0.001
</text>
<text x="513" y="156" fill="black" font-size="11" font-family="Times">
&#0177;
</text>
<text x="484" y="156" fill="black" font-size="11" font-family="Helvetica">
 5.011 
</text>
<text x="407" y="172" fill="black" font-size="11" font-family="Helvetica">
Sigma    
</text>
<text x="506" y="173" fill="black" font-size="11" font-family="Helvetica">
 0.00093
</text>
<text x="499" y="173" fill="black" font-size="11" font-family="Times">
&#0177;
</text>
<text x="455" y="173" fill="black" font-size="11" font-family="Helvetica">
 0.02393 
</text></svg>
