<?xml version="1.0" standalone="no"?>
<svg width="567" height="384" viewBox="0 0 567 384" xmlns="http://www.w3.org/2000/svg">
<title>
/home/ubuntuuser/geant_exercises/geant-exercises-karnivool/Exercise 6/5c magnet 5.svg
</title>
<desc>
Creator: ROOT Version 5.32/04
CreationDate: Wed Jan 24 17:02:39 2024</desc>
<defs>
</defs>
<rect x="0" y="0" width="567" height="384" fill="white"/>
<rect x="57" y="38" width="453" height="308" fill="white"/>
<rect x="57" y="38" width="453" height="308" fill="none" stroke="black"/>
<rect x="57" y="38" width="453" height="308" fill="white"/>
<rect x="57" y="38" width="453" height="308" fill="none" stroke="black"/>
<path d="M57,346h 36v -5h 5v 5h 36v -5h 4v 5h 87v -5h 4v 5h 9v -10h 5v 5h 4v 5h 5v -10h 4v -5h 5v -38h 4v -39h 5v -62h 4v 38h 5v -120h 4v -57h 5v 72h 5v 4h 4v 44h 5v -24h 4v 96h 5v -24h 4v 33h 5v -9h 4v 72h 9v 14h 5v 10h 4v -5h 5v 10h 14v -5h 4v 5h
 5v -5h 4v 5h 23v -10h 4v 10h 5v -5h 4v 5h 5v -5h 5v 5h 63v -5h 5v 5h 22" fill="none" stroke="#000099"/>
<rect x="396" y="24" width="160" height="156" fill="white"/>
<path d="M396,180h 160" fill="none" stroke="black"/>
<path d="M556,180v -156" fill="none" stroke="black"/>
<path d="M556,24h -160" fill="none" stroke="black"/>
<path d="M396,24v 156" fill="none" stroke="black"/>
<text x="465" y="36" fill="black" font-size="15" font-family="Helvetica">
hpt
</text>
<path d="M396,41h 160" fill="none" stroke="black"/>
<text x="403" y="54" fill="black" font-size="11" font-family="Helvetica">
Entries 
</text>
<text x="525" y="54" fill="black" font-size="11" font-family="Helvetica">
 500
</text>
<text x="403" y="72" fill="black" font-size="11" font-family="Helvetica">
Mean  
</text>
<text x="515" y="72" fill="black" font-size="11" font-family="Helvetica">
  5.011
</text>
<text x="403" y="89" fill="black" font-size="11" font-family="Helvetica">
RMS   
</text>
<text x="503" y="89" fill="black" font-size="11" font-family="Helvetica">
 0.02804
</text>
<text x="414" y="105" fill="black" font-size="11" font-family="Helvetica">
 / ndf 
</text>
<text x="410" y="101" fill="black" font-size="7" font-family="Helvetica">
2
</text>
<text x="403" y="105" fill="black" font-size="11" font-family="Times">
&#0967;
</text>
<text x="497" y="106" fill="black" font-size="11" font-family="Helvetica">
  43.2 / 29
</text>
<text x="403" y="123" fill="black" font-size="11" font-family="Helvetica">
Prob  
</text>
<text x="503" y="123" fill="black" font-size="11" font-family="Helvetica">
 0.04364
</text>
<text x="403" y="140" fill="black" font-size="11" font-family="Helvetica">
Constant 
</text>
<text x="522" y="140" fill="black" font-size="11" font-family="Helvetica">
 2.85
</text>
<text x="516" y="140" fill="black" font-size="11" font-family="Times">
&#0177;
</text>
<text x="481" y="140" fill="black" font-size="11" font-family="Helvetica">
 47.19 
</text>
<text x="403" y="158" fill="black" font-size="11" font-family="Helvetica">
Mean     
</text>
<text x="517" y="158" fill="black" font-size="11" font-family="Helvetica">
 0.001
</text>
<text x="511" y="158" fill="black" font-size="11" font-family="Times">
&#0177;
</text>
<text x="479" y="158" fill="black" font-size="11" font-family="Helvetica">
 5.011 
</text>
<text x="403" y="175" fill="black" font-size="11" font-family="Helvetica">
Sigma    
</text>
<text x="503" y="175" fill="black" font-size="11" font-family="Helvetica">
 0.00072
</text>
<text x="497" y="175" fill="black" font-size="11" font-family="Times">
&#0177;
</text>
<text x="450" y="175" fill="black" font-size="11" font-family="Helvetica">
 0.01886 
</text>
<path d="M59,346h 163l 5, -1h 9l 4, -1l 5, -3l 4, -4l 5, -8l 5, -13l 4, -19l 5, -26l 4, -33l 5, -36l 4, -35" fill="none" stroke="#ff0000" stroke-width="2"/>
<path d="M281,167l 5, -28l 4, -17l 5, -2l 4, 14l 5, 26l 4, 34l 5, 36l 4, 34l 5, 28l 5, 20l 4, 14l 5, 9l 4, 5l 5, 3l 4, 2h 14l 4, 1h 136" fill="none" stroke="#ff0000" stroke-width="2"/>
<path d="M503,346h 5" fill="none" stroke="#ff0000" stroke-width="2"/>
<path d="M57,346h 453" fill="none" stroke="black"/>
<text x="476" y="369" fill="black" font-size="12" font-family="Helvetica">
 [GeV]
</text>
<text x="471" y="375" fill="black" font-size="8" font-family="Helvetica">
T
</text>
<text x="461" y="369" fill="black" font-size="12" font-family="Helvetica">
 p
</text>
<path d="M57,336v 10" fill="none" stroke="black"/>
<path d="M66,341v 5" fill="none" stroke="black"/>
<path d="M75,341v 5" fill="none" stroke="black"/>
<path d="M84,341v 5" fill="none" stroke="black"/>
<path d="M93,341v 5" fill="none" stroke="black"/>
<path d="M102,336v 10" fill="none" stroke="black"/>
<path d="M111,341v 5" fill="none" stroke="black"/>
<path d="M120,341v 5" fill="none" stroke="black"/>
<path d="M129,341v 5" fill="none" stroke="black"/>
<path d="M138,341v 5" fill="none" stroke="black"/>
<path d="M147,336v 10" fill="none" stroke="black"/>
<path d="M156,341v 5" fill="none" stroke="black"/>
<path d="M166,341v 5" fill="none" stroke="black"/>
<path d="M175,341v 5" fill="none" stroke="black"/>
<path d="M184,341v 5" fill="none" stroke="black"/>
<path d="M193,336v 10" fill="none" stroke="black"/>
<path d="M202,341v 5" fill="none" stroke="black"/>
<path d="M211,341v 5" fill="none" stroke="black"/>
<path d="M220,341v 5" fill="none" stroke="black"/>
<path d="M229,341v 5" fill="none" stroke="black"/>
<path d="M238,336v 10" fill="none" stroke="black"/>
<path d="M247,341v 5" fill="none" stroke="black"/>
<path d="M256,341v 5" fill="none" stroke="black"/>
<path d="M265,341v 5" fill="none" stroke="black"/>
<path d="M274,341v 5" fill="none" stroke="black"/>
<path d="M283,336v 10" fill="none" stroke="black"/>
<path d="M293,341v 5" fill="none" stroke="black"/>
<path d="M302,341v 5" fill="none" stroke="black"/>
<path d="M311,341v 5" fill="none" stroke="black"/>
<path d="M320,341v 5" fill="none" stroke="black"/>
<path d="M329,336v 10" fill="none" stroke="black"/>
<path d="M338,341v 5" fill="none" stroke="black"/>
<path d="M347,341v 5" fill="none" stroke="black"/>
<path d="M356,341v 5" fill="none" stroke="black"/>
<path d="M365,341v 5" fill="none" stroke="black"/>
<path d="M374,336v 10" fill="none" stroke="black"/>
<path d="M383,341v 5" fill="none" stroke="black"/>
<path d="M392,341v 5" fill="none" stroke="black"/>
<path d="M401,341v 5" fill="none" stroke="black"/>
<path d="M410,341v 5" fill="none" stroke="black"/>
<path d="M420,336v 10" fill="none" stroke="black"/>
<path d="M429,341v 5" fill="none" stroke="black"/>
<path d="M438,341v 5" fill="none" stroke="black"/>
<path d="M447,341v 5" fill="none" stroke="black"/>
<path d="M456,341v 5" fill="none" stroke="black"/>
<path d="M465,336v 10" fill="none" stroke="black"/>
<path d="M474,341v 5" fill="none" stroke="black"/>
<path d="M483,341v 5" fill="none" stroke="black"/>
<path d="M492,341v 5" fill="none" stroke="black"/>
<path d="M501,341v 5" fill="none" stroke="black"/>
<path d="M510,336v 10" fill="none" stroke="black"/>
<path d="M510,336v 10" fill="none" stroke="black"/>
<text x="44" y="358" fill="black" font-size="12" font-family="Helvetica">
4.75
</text>
<text x="93" y="358" fill="black" font-size="12" font-family="Helvetica">
4.8
</text>
<text x="134" y="358" fill="black" font-size="12" font-family="Helvetica">
4.85
</text>
<text x="183" y="358" fill="black" font-size="12" font-family="Helvetica">
4.9
</text>
<text x="226" y="358" fill="black" font-size="12" font-family="Helvetica">
4.95
</text>
<text x="280" y="358" fill="black" font-size="12" font-family="Helvetica">
5
</text>
<text x="316" y="358" fill="black" font-size="12" font-family="Helvetica">
5.05
</text>
<text x="366" y="358" fill="black" font-size="12" font-family="Helvetica">
5.1
</text>
<text x="407" y="358" fill="black" font-size="12" font-family="Helvetica">
5.15
</text>
<text x="455" y="358" fill="black" font-size="12" font-family="Helvetica">
5.2
</text>
<text x="498" y="358" fill="black" font-size="12" font-family="Helvetica">
5.25
</text>
<path d="M57,346v -308" fill="none" stroke="black"/>
<path d="M70,346h -13" fill="none" stroke="black"/>
<path d="M63,336h -6" fill="none" stroke="black"/>
<path d="M63,326h -6" fill="none" stroke="black"/>
<path d="M63,317h -6" fill="none" stroke="black"/>
<path d="M63,307h -6" fill="none" stroke="black"/>
<path d="M70,298h -13" fill="none" stroke="black"/>
<path d="M63,288h -6" fill="none" stroke="black"/>
<path d="M63,278h -6" fill="none" stroke="black"/>
<path d="M63,269h -6" fill="none" stroke="black"/>
<path d="M63,259h -6" fill="none" stroke="black"/>
<path d="M70,250h -13" fill="none" stroke="black"/>
<path d="M63,240h -6" fill="none" stroke="black"/>
<path d="M63,230h -6" fill="none" stroke="black"/>
<path d="M63,221h -6" fill="none" stroke="black"/>
<path d="M63,211h -6" fill="none" stroke="black"/>
<path d="M70,201h -13" fill="none" stroke="black"/>
<path d="M63,192h -6" fill="none" stroke="black"/>
<path d="M63,182h -6" fill="none" stroke="black"/>
<path d="M63,173h -6" fill="none" stroke="black"/>
<path d="M63,163h -6" fill="none" stroke="black"/>
<path d="M70,153h -13" fill="none" stroke="black"/>
<path d="M63,144h -6" fill="none" stroke="black"/>
<path d="M63,134h -6" fill="none" stroke="black"/>
<path d="M63,125h -6" fill="none" stroke="black"/>
<path d="M63,115h -6" fill="none" stroke="black"/>
<path d="M70,105h -13" fill="none" stroke="black"/>
<path d="M63,96h -6" fill="none" stroke="black"/>
<path d="M63,86h -6" fill="none" stroke="black"/>
<path d="M63,77h -6" fill="none" stroke="black"/>
<path d="M63,67h -6" fill="none" stroke="black"/>
<path d="M70,57h -13" fill="none" stroke="black"/>
<path d="M70,57h -13" fill="none" stroke="black"/>
<path d="M63,48h -6" fill="none" stroke="black"/>
<path d="M63,38h -6" fill="none" stroke="black"/>
<text x="47" y="350" fill="black" font-size="12" font-family="Helvetica">
0
</text>
<text x="41" y="302" fill="black" font-size="12" font-family="Helvetica">
10
</text>
<text x="41" y="254" fill="black" font-size="12" font-family="Helvetica">
20
</text>
<text x="41" y="206" fill="black" font-size="12" font-family="Helvetica">
30
</text>
<text x="41" y="158" fill="black" font-size="12" font-family="Helvetica">
40
</text>
<text x="41" y="110" fill="black" font-size="12" font-family="Helvetica">
50
</text>
<text x="41" y="62" fill="black" font-size="12" font-family="Helvetica">
60
</text>
<rect x="396" y="24" width="160" height="156" fill="white"/>
<path d="M396,180h 160" fill="none" stroke="black"/>
<path d="M556,180v -156" fill="none" stroke="black"/>
<path d="M556,24h -160" fill="none" stroke="black"/>
<path d="M396,24v 156" fill="none" stroke="black"/>
<text x="465" y="36" fill="black" font-size="15" font-family="Helvetica">
hpt
</text>
<path d="M396,41h 160" fill="none" stroke="black"/>
<text x="403" y="54" fill="black" font-size="11" font-family="Helvetica">
Entries 
</text>
<text x="525" y="54" fill="black" font-size="11" font-family="Helvetica">
 500
</text>
<text x="403" y="72" fill="black" font-size="11" font-family="Helvetica">
Mean  
</text>
<text x="515" y="72" fill="black" font-size="11" font-family="Helvetica">
  5.011
</text>
<text x="403" y="89" fill="black" font-size="11" font-family="Helvetica">
RMS   
</text>
<text x="503" y="89" fill="black" font-size="11" font-family="Helvetica">
 0.02804
</text>
<text x="414" y="105" fill="black" font-size="11" font-family="Helvetica">
 / ndf 
</text>
<text x="410" y="101" fill="black" font-size="7" font-family="Helvetica">
2
</text>
<text x="403" y="105" fill="black" font-size="11" font-family="Times">
&#0967;
</text>
<text x="497" y="106" fill="black" font-size="11" font-family="Helvetica">
  43.2 / 29
</text>
<text x="403" y="123" fill="black" font-size="11" font-family="Helvetica">
Prob  
</text>
<text x="503" y="123" fill="black" font-size="11" font-family="Helvetica">
 0.04364
</text>
<text x="403" y="140" fill="black" font-size="11" font-family="Helvetica">
Constant 
</text>
<text x="522" y="140" fill="black" font-size="11" font-family="Helvetica">
 2.85
</text>
<text x="516" y="140" fill="black" font-size="11" font-family="Times">
&#0177;
</text>
<text x="481" y="140" fill="black" font-size="11" font-family="Helvetica">
 47.19 
</text>
<text x="403" y="158" fill="black" font-size="11" font-family="Helvetica">
Mean     
</text>
<text x="517" y="158" fill="black" font-size="11" font-family="Helvetica">
 0.001
</text>
<text x="511" y="158" fill="black" font-size="11" font-family="Times">
&#0177;
</text>
<text x="479" y="158" fill="black" font-size="11" font-family="Helvetica">
 5.011 
</text>
<text x="403" y="175" fill="black" font-size="11" font-family="Helvetica">
Sigma    
</text>
<text x="503" y="175" fill="black" font-size="11" font-family="Helvetica">
 0.00072
</text>
<text x="497" y="175" fill="black" font-size="11" font-family="Times">
&#0177;
</text>
<text x="450" y="175" fill="black" font-size="11" font-family="Helvetica">
 0.01886 
</text></svg>
